<svg xmlns="http://www.w3.org/2000/svg" viewBox="0 0 581.41 657.85"><defs><style>.cls-1,.cls-11{fill:#ff8d4d;}.cls-2{fill:#fff1d9;}.cls-3{fill:#ede1ce;}.cls-4{fill:#caa5f2;}.cls-5{fill:#d7a9ff;}.cls-12,.cls-6{fill:#9c8cb1;}.cls-6{stroke:#9c8cb1;}.cls-10,.cls-11,.cls-15,.cls-6,.cls-8,.cls-9{stroke-miterlimit:10;}.cls-7{fill:#a5876a;}.cls-8{fill:#fff;}.cls-10,.cls-11,.cls-15,.cls-8,.cls-9{stroke:#1d1d1b;}.cls-15,.cls-8,.cls-9{stroke-width:0.25px;}.cls-9{fill:#106b22;}.cls-10,.cls-15,.cls-25{fill:none;}.cls-13{fill:#fc9968;}.cls-14{fill:#f99767;}.cls-16{fill:#bfa0e8;}.cls-17{fill:#bea1e5;}.cls-18{fill:#00c3e7;}.cls-19{fill:#565656;}.cls-20{fill:#3087b2;}.cls-21{fill:#1d1d1b;opacity:0.18;}.cls-22{opacity:0.15;}.cls-23{opacity:0.7;}.cls-24{fill:#373735;}.cls-25{stroke:#373735;stroke-width:0;}</style></defs><g id="lines"><path class="cls-1" d="M263.21,113.24c-12.49,2.72-37.29,24.49-37.29,24.49s-33.79,37-35.85,53.57S137,337.78,147.93,386.61c5.21,23.22,13.83,25,28.07,16s58.35-14.37,58.35-14.37-28.81-23.27,19.71-54.72S272,170,272,170l3.82-61.44S275.71,110.51,263.21,113.24Z" transform="translate(-79.17 -102.72)"/><path class="cls-2" d="M285.21,363l-16.7,23.79s-25.08,23.14-33.44,24.42c-4.72.73-17-10.43-26.84-20.29-7.57-7.6-13.66-14.42-13.66-14.42l38.57-30.86c2-1.58,3.71-24,4.75-41.06.18-2.91.34-5.66.47-8.13v0c0-.65.07-1.28.11-1.88.29-5.61.46-9.34.46-9.34l19.69-3.1,4.74-.75s-.49,2.92-1.08,7.46h0c-.47,3.59-1,8.2-1.45,13.16a163.16,163.16,0,0,0-.67,19.91,65.66,65.66,0,0,0,.64,7C263.36,345.64,285.21,363,285.21,363Z" transform="translate(-79.17 -102.72)"/><path class="cls-3" d="M273.13,288.12a28,28,0,0,1-2.27,2.9c-1.71,1.69-5.56,2.62-10,2.84a163.16,163.16,0,0,0-.67,19.91,20.14,20.14,0,0,1-5.68-.91,19.21,19.21,0,0,1-2.45-1.09c-.52-.27-1-.56-1.54-.85a60.85,60.85,0,0,1-10.23-6.73,6.47,6.47,0,0,1-1.9-2.36,7.39,7.39,0,0,1-.39-2.57c0-.93-.05-1.86-.07-2.8a45.07,45.07,0,0,1,.47-8.13v0c0-.13,0-.27.07-.4.07-.39.15-.78.24-1.14.58-2.5,1.6-4.27,4.61-4.79,3.9-.66,7.92,0,11.85-.42.74-.09,1.48-.22,2.23-.35a20.7,20.7,0,0,1,4.91-.51h0a7.84,7.84,0,0,1,1.91.35,11.21,11.21,0,0,1,3.1,1.67A27.5,27.5,0,0,1,273.13,288.12Z" transform="translate(-79.17 -102.72)"/><path class="cls-2" d="M273.13,296.24a28,28,0,0,1-2.27,2.9c-1.71,1.69-5.56,2.62-10,2.84a48.85,48.85,0,0,1-5.65-.1c-7-.54-14-2.64-16-6.17-.12-.22-.28-.49-.47-.82l-.2-.34c-6.07-10.29-37.64-61.71-36.77-105.64,0-1.27.08-2.52.16-3.77,3-46.71,8.14-66,32.14-74.57,0,0,90-18.43,100.29,30.43C343.76,186,286.08,278.25,273.13,296.24Z" transform="translate(-79.17 -102.72)"/><path class="cls-1" d="M264.64,108.7s34.77-9.81,57.59,5,14.2,75.37,8.41,75.59-25.71,4.5-42.21-16.93-23.57-48.21-23.79-55.29A66.13,66.13,0,0,1,264.64,108.7Z" transform="translate(-79.17 -102.72)"/><path class="cls-4" d="M302.54,400.89c.81.38,1.6.88,2.39,1.35a6.79,6.79,0,0,1,4,5.57,63.37,63.37,0,0,1,1.49,7.65c.77,7.81.57,15.68.54,23.48-.06,11.4-.11,22.83,1.19,34.18.51,4.4,1.21,8.89,0,13.18a13.21,13.21,0,0,1-10.25,9.34c-2.19.37-4.92-.07-5.79-1.74a4.27,4.27,0,0,1-.34-2.06q0-38.89.07-77.8c0-3.27-.83-6.57-.11-9.82a4.72,4.72,0,0,1,2.51-3.57A5,5,0,0,1,302.54,400.89Z" transform="translate(-79.17 -102.72)"/><path class="cls-5" d="M307.74,376c-.35,1.74-2.09,17.71-5.13,44.27s-4.5,163.93.64,181.93c2.73,9.55-35.28,9-71.56,6.31-22.79-1.67-44.9-4.15-55.79-5.45h0c-4.43-.53-7-.86-7-.86l-.13-5s-4.95-219.06-3.71-220.06a3.18,3.18,0,0,1,2.41-.78l4.08-2.68a28.39,28.39,0,0,1,7.92-3.86h0a197.51,197.51,0,0,0,52.42-26s23,18.95,41.8,7.07C299.49,370.05,306.24,375,307.74,376Z" transform="translate(-79.17 -102.72)"/><path class="cls-6" d="M190.63,402.47c1.92,2.19,2.86,5.32,3.61,8.36,7,28.32,3,58.59,1.81,88.1s1.55,61.88,18.66,83.17c6,7.5,14.3,15.33,13,25.63-4.46,2.53-9.86,1.62-14.28-1s-8.05-6.78-11.59-10.91C192,584.32,182.12,572,177.81,556.33c-2.22-8.05-2.84-16.59-3.35-25.05q-1.85-30.64-2.06-61.41C172.34,461.62,175.81,385.46,190.63,402.47Z" transform="translate(-79.17 -102.72)"/><g id="mesa"><path class="cls-7" d="M84,597.64l537.43-41.56s109.28,141.21-37.29,168.21S128,778.29,97.5,745.5,83.75,597,84,597.64Z" transform="translate(-79.17 -102.72)"/></g><path class="cls-2" d="M455.14,554.42l20.36,6.43h50.14l-10.07,21.21s-37.5-.64-72.21-18S455.14,554.42,455.14,554.42Z" transform="translate(-79.17 -102.72)"/><path class="cls-5" d="M290.92,367.3s18,8.57,20.57,11.78,9,120,18,127,118.29,43.71,118.29,43.71l19.71,7.39v17.58s-149.57-42-153.86-45-15-23.58-14.14-30.43-10.28-101.15-10.28-101.15Z" transform="translate(-79.17 -102.72)"/><path class="cls-8" d="M276,617.07s1.34-9.24,0-12.81c26.62-5.39,75.46,4.66,82.93,13.86,8.46-4.73,54-12.75,66.84-8.58,5.42,7.07-3.82,19.1-3.82,19.1L358.11,641.2l-74.34-15.79Z" transform="translate(-79.17 -102.72)"/><path class="cls-9" d="M270.53,613.78s11.8,47.93,1.56,73c16.77-14.36,72.57.73,72.57.73s33.77-.95,51.77,11.05c4.48-29.06,34.06-76.86,34.06-76.86s-60.64.74-72.64,8.8C341.57,614.14,289.49,610.85,270.53,613.78Z" transform="translate(-79.17 -102.72)"/><path class="cls-10" d="M286.78,384.21" transform="translate(-79.17 -102.72)"/><path class="cls-2" d="M250.86,641.44s60.75-9.64,71.68-2.57,27.64,8.36,23.78,17.36-7.71,21.85-14.14,24.43-29.45,3.53-38.68.21-42.32-30.11-42.32-30.11Z" transform="translate(-79.17 -102.72)"/><path class="cls-5" d="M308.1,376.19a2.66,2.66,0,0,1-.36-.23.31.31,0,0,1,0-.09A3.79,3.79,0,0,1,308.1,376.19Z" transform="translate(-79.17 -102.72)"/><path class="cls-5" d="M275.89,669.65s-31.73-21-61.39-42c-13-9.23-25.68-18.47-35.05-25.94h0c-2.67-2.12-5.07-4.1-7.13-5.89-4.92-4.26-8-7.49-8.28-9.13-1.47-7.84-.71-122.2-.26-177.71.14-17.32.25-28.91.26-29.75,0-1.83,1.37-3.36,2.69-4.4s2.35-1.84,2.35-1.84a21.18,21.18,0,0,0,2.19-1.29c2.49-1.62,6.91-3.86,11.75-3.26h0c3.72.47,7.7,2.63,11.23,8,.64,177.42-7.72,180.64,5.78,195.42,6.32,6.92,20.79,21.44,35.21,35.26,16.39,15.72,32.69,30.53,36.79,32.24C279.75,642.65,275.89,669.65,275.89,669.65Z" transform="translate(-79.17 -102.72)"/><path class="cls-10" d="M273.3,198.05s7.74,20.63,26.38,9.06" transform="translate(-79.17 -102.72)"/><path class="cls-10" d="M265,220.29s.65,24.75,1.93,29.89S252.43,254,252.43,254" transform="translate(-79.17 -102.72)"/><path class="cls-10" d="M242.9,267.21S240,270.75,267,270.75" transform="translate(-79.17 -102.72)"/><path class="cls-11" d="M339.43,133.5" transform="translate(-79.17 -102.72)"/><path class="cls-1" d="M222.66,113.15c4.5-3.59,20-13.4,37-9.54s19.73,3.21,8.48,40.82-17.68,59.78-45.32,84.86-46.29,21.21-46.29,21.21,23.47-11.25,21.22-32.79-13.18-49.17,4.82-81C216.43,115.82,218.16,116.75,222.66,113.15Z" transform="translate(-79.17 -102.72)"/><path class="cls-12" d="M246.42,457.88a6.91,6.91,0,0,1-2.49.93,38.71,38.71,0,0,1-13.36.55,16.9,16.9,0,0,1,4.48-1.11c1.95-.11,4,.45,5.79-.56s3.26-6.73,5.17-6.6C248.46,451.27,248.13,456.7,246.42,457.88Z" transform="translate(-79.17 -102.72)"/><path class="cls-12" d="M279.43,453a9.76,9.76,0,0,1,5.69-4.16c4.85-1.58,9.88-1.37,14.85-1.16a4.53,4.53,0,0,1,3.41,1.16c1.67,1.77,1.54,5.32,1.25,8.25a5.7,5.7,0,0,1-.37,1.79,3.15,3.15,0,0,1-.95,1.11,13.19,13.19,0,0,1-4.2,2.37,22.1,22.1,0,0,1-7.32.77C288.41,463.15,272.53,464.55,279.43,453Z" transform="translate(-79.17 -102.72)"/><path class="cls-5" d="M301.76,416.78s2.3,28.29,6.93,33.43-6.83,10.2-11.87,10.62-18.67-1.3-20.59-3.87" transform="translate(-79.17 -102.72)"/><path class="cls-13" d="M237.8,186.94c-2,6.51-5.78,12.3-9.53,18-10.9,16.54-22.43,33.69-39.64,43.49,14-15.08,24.89-32.69,35.71-50.18,3.62-5.86,8.07-22.49,13.63-25.38C240.28,176.54,239.06,182.83,237.8,186.94Z" transform="translate(-79.17 -102.72)"/><path class="cls-13" d="M182.62,267.56c-5.5,7.41-8.9,15.83-12.23,24.12C160.7,315.81,150.82,341,153,365.09c5.88-25.67,16.7-50.73,27.46-75.6,3.61-8.34,18.11-26.68,17.13-34.22C191.91,256.35,186.09,262.88,182.62,267.56Z" transform="translate(-79.17 -102.72)"/><path class="cls-13" d="M194.39,290.44c-4.14,5.39-6.79,11.45-9.39,17.41-7.57,17.36-15.3,35.49-14.35,52.51,4.86-18.36,13.26-36.4,21.62-54.31,2.8-6,13.68-19.37,13.16-24.69C201.35,282.26,197,287,194.39,290.44Z" transform="translate(-79.17 -102.72)"/><path class="cls-14" d="M294.36,164a37.87,37.87,0,0,0,6.9,7.71,7.13,7.13,0,0,0,4,2,65.8,65.8,0,0,1-10.55-14.23c-2.26-4.35-4.18-18.11-7.78-20C284.93,146.81,290.64,158.57,294.36,164Z" transform="translate(-79.17 -102.72)"/><path class="cls-14" d="M210.67,214.42A54.47,54.47,0,0,1,200,225c-1.83,1.36-3.86,2.64-6.1,2.74,6.08-5.82,11.94-12,16.26-19.43,3.48-5.94,6.45-24.72,12-27.3C225.21,190.89,216.41,207,210.67,214.42Z" transform="translate(-79.17 -102.72)"/><path class="cls-15" d="M357.85,630.51s-11.92,46-13.19,57" transform="translate(-79.17 -102.72)"/><path class="cls-15" d="M358.93,618a31.2,31.2,0,0,1-.07,3.62" transform="translate(-79.17 -102.72)"/><path class="cls-16" d="M299.2,428a55.06,55.06,0,0,0,3.24,19.15c.57,1.58,1.22,3.14,1.93,4.66s1.67,3.14,1.46,4.84c-.41,3.17-4.47,3.9-7,4.36-.46.09-.32.56.13.48,2.35-.43,5.29-1,6.84-3,2-2.66-.36-6-1.44-8.53a54.56,54.56,0,0,1-4.4-22c0-.37-.73-.25-.74.06Z" transform="translate(-79.17 -102.72)"/><path class="cls-4" d="M300.17,469.11l-.54,6.27c0,.32.7.2.73-.08l.54-6.26c0-.33-.71-.2-.73.07Z" transform="translate(-79.17 -102.72)"/><path class="cls-4" d="M299.19,480.21l-.13,21.85c0,.3.72.15.72-.09l.13-21.85c0-.3-.72-.15-.72.09Z" transform="translate(-79.17 -102.72)"/><path class="cls-4" d="M299.91,474.28a40,40,0,0,0-.68,11.29c0,.24.75.09.72-.2a39.59,39.59,0,0,1,.69-11.18c.06-.28-.67-.16-.73.09Z" transform="translate(-79.17 -102.72)"/><path class="cls-4" d="M300.45,461.67l-.59,8.24c0,.09.71,0,.73-.19l.59-8.25c0-.09-.71,0-.73.2Z" transform="translate(-79.17 -102.72)"/><path class="cls-12" d="M302.41,485.32a34.06,34.06,0,0,1-.3,5.53c-.44,2.65-1.52,5.28-1.16,7.94a1.8,1.8,0,0,1,0,.95.82.82,0,0,1-.89.47c-.47-.11-.56-.61-.57-1,0-1.37,0-2.74,0-4.12.14-2.87.59-5.73.46-8.6-.12-2.67-.75-5.35-.4-8,.14-1.06.44-2.1.6-3.15.12-.81.16-1.63.2-2.44l.37-7.4c.05-.9-.31-2.8.21-3.58.64-1,1.28.11,1.4.81.41,2.29,0,4.86,0,7.18v15.43Z" transform="translate(-79.17 -102.72)"/><path class="cls-4" d="M242.11,435.43A7.85,7.85,0,0,0,244.3,441" transform="translate(-79.17 -102.72)"/><path class="cls-4" d="M241.74,435.52a8,8,0,0,0,2.22,5.6c.16.16.84-.1.68-.27a7.82,7.82,0,0,1-2.17-5.52c0-.18-.72-.06-.73.19Z" transform="translate(-79.17 -102.72)"/><path class="cls-4" d="M241.33,352.8a59.46,59.46,0,0,0,22.78,4.13,23.46,23.46,0,0,0,5.73-.55,16.59,16.59,0,0,0,4.24-2.05,10.53,10.53,0,0,0,1.55-1.2c.23-.2.49-.47.42-.77a.92.92,0,0,0-.27-.38l-.86-.87a3.82,3.82,0,0,0-1.29-1c-1.27-.48-3.11.5-4.32.94-1.44.53-2.82,1.2-4.28,1.66-4.38,1.38-9.1.75-13.41-.56-2.08-.63-3.91-1.66-6-2.41l-7.07-2.62a10,10,0,0,1-4.53-2.68c-.59-.74-1.16-1.77-2.12-1.74a2.35,2.35,0,0,0-1.29.61l-1.5,1.13c-.3.22-.62.55-.51.89a.83.83,0,0,0,.28.37,12.86,12.86,0,0,0,2.6,1.53c1.11.61,2.13,1.42,3.2,2.09A45.49,45.49,0,0,0,241.33,352.8Z" transform="translate(-79.17 -102.72)"/><path class="cls-4" d="M234.27,345c-.33.4-.5.87-.83,1.26a4.56,4.56,0,0,0-.73,1.42" transform="translate(-79.17 -102.72)"/><path class="cls-17" d="M234,344.88a6.41,6.41,0,0,0-.45.7,7.49,7.49,0,0,1-.45.65,5.22,5.22,0,0,0-.69,1.4c-.16.4.57.42.69.1a4.77,4.77,0,0,1,.64-1.3c.33-.41.54-.9.87-1.31a.24.24,0,0,0-.1-.38.49.49,0,0,0-.51.14Z" transform="translate(-79.17 -102.72)"/><path class="cls-4" d="M238.77,347.46c-.88.23-1.56,2.19-1.88,3" transform="translate(-79.17 -102.72)"/><path class="cls-17" d="M238.71,347.24a2.53,2.53,0,0,0-1.4,1.4,18,18,0,0,0-.76,1.74c-.15.37.57.33.69.06.22-.54.42-1.09.69-1.61a5.14,5.14,0,0,1,.47-.76.8.8,0,0,1,.15-.17l.06-.07,0,0,.09-.07h0l.06,0c.06,0-.07,0,0,0s.34-.16.3-.32-.3-.17-.42-.13Z" transform="translate(-79.17 -102.72)"/><path class="cls-4" d="M243.05,349c-1.17.2-1.92,2.65-2.19,3.64" transform="translate(-79.17 -102.72)"/><path class="cls-17" d="M243,348.8c-.82.15-1.34,1-1.68,1.65a12.12,12.12,0,0,0-.82,2.25c-.05.17.22.21.33.2a.45.45,0,0,0,.4-.27,12.85,12.85,0,0,1,.71-2,4.79,4.79,0,0,1,.57-.95,1.81,1.81,0,0,1,.31-.31l.1-.06s0,0,0,0l.06,0h0l.12,0c.14,0,.35-.16.31-.32s-.3-.15-.43-.12Z" transform="translate(-79.17 -102.72)"/><path class="cls-4" d="M247.5,350.73a4.3,4.3,0,0,1-.65,1.71,3.36,3.36,0,0,0-.47,1.93" transform="translate(-79.17 -102.72)"/><path class="cls-17" d="M247.14,350.83a4.22,4.22,0,0,1-.7,1.75,3.67,3.67,0,0,0-.43,1.89c0,.19.75,0,.73-.19a3.47,3.47,0,0,1,.48-1.91,4.09,4.09,0,0,0,.64-1.73c0-.18-.72-.06-.72.19Z" transform="translate(-79.17 -102.72)"/><path class="cls-4" d="M252.75,352.66a19.59,19.59,0,0,0-.21,3.16" transform="translate(-79.17 -102.72)"/><path class="cls-17" d="M252.39,352.72a21.42,21.42,0,0,0-.22,3.2c0,.12.73,0,.73-.2a20.36,20.36,0,0,1,.21-3.12c0-.13-.22-.09-.29-.08s-.41.08-.43.2Z" transform="translate(-79.17 -102.72)"/><path class="cls-4" d="M258.38,353.57c-.17.49.08,1.13.05,1.66s-.26.8-.7,1.23" transform="translate(-79.17 -102.72)"/><path class="cls-17" d="M258,353.61c-.18.57.1,1.16.05,1.73a1.23,1.23,0,0,1-.18.59,3.19,3.19,0,0,1-.44.47c-.11.11-.08.23.07.27a.63.63,0,0,0,.51-.14,5.38,5.38,0,0,0,.52-.55,1.47,1.47,0,0,0,.24-.64,3.12,3.12,0,0,0,0-.91,2,2,0,0,1,0-.9c.05-.16-.23-.18-.32-.17s-.36.1-.41.25Z" transform="translate(-79.17 -102.72)"/><path class="cls-4" d="M262.88,353.41a1.21,1.21,0,0,1,1.34,1.18c.07.5.35,1.74,0,2.14" transform="translate(-79.17 -102.72)"/><path class="cls-17" d="M262.84,353.67a.89.89,0,0,1,.73.29,1.79,1.79,0,0,1,.31.87c.05.34.11.67.14,1a2.46,2.46,0,0,1,0,.47.76.76,0,0,1,0,.21s0,0,0,.07-.05.09,0,0c-.27.37.41.47.6.2a1.67,1.67,0,0,0,.19-1.1c0-.39-.11-.77-.17-1.16a1.74,1.74,0,0,0-.46-1,1.68,1.68,0,0,0-1.22-.39c-.16,0-.38.12-.4.29s.19.23.33.23Z" transform="translate(-79.17 -102.72)"/><path class="cls-4" d="M267.7,352c0,.5,1.09,1.47,1.36,1.93a4.06,4.06,0,0,1,.78,2.31" transform="translate(-79.17 -102.72)"/><path class="cls-17" d="M267.33,352.06a1.57,1.57,0,0,0,.41.77c.23.3.49.58.73.87a5.1,5.1,0,0,1,.63,1,3,3,0,0,1,.38,1.52c0,.28.7.14.72-.09a3,3,0,0,0-.33-1.53,5.19,5.19,0,0,0-.64-1.09c-.23-.3-.48-.56-.72-.85a1.6,1.6,0,0,1-.45-.81c0-.22-.74-.08-.73.19Z" transform="translate(-79.17 -102.72)"/><path class="cls-4" d="M272.63,350.3a6.21,6.21,0,0,1,1.55,3.65" transform="translate(-79.17 -102.72)"/><path class="cls-17" d="M272.29,350.45a6,6,0,0,1,1.52,3.53c0,.17.18.21.33.2s.41-.1.4-.27a6.23,6.23,0,0,0-1.58-3.76c-.18-.22-.88.05-.67.3Z" transform="translate(-79.17 -102.72)"/><path class="cls-12" d="M191.6,375.73a21,21,0,0,1,3.21,10.61c0,.17,1.45,0,1.45-.39a21,21,0,0,0-3.21-10.61c-.19-.32-1.55.23-1.45.39Z" transform="translate(-79.17 -102.72)"/><path class="cls-12" d="M304.83,379a6.54,6.54,0,0,0-3.27,2.91c-.16.31.14.56.43.58a1,1,0,0,0,.95-.43,3.62,3.62,0,0,1,.24-.43s.08-.12,0-.05,0,0,0,0a2.43,2.43,0,0,1,.14-.2c.1-.12.2-.23.31-.34l.17-.17.08-.08c-.13.08,0,0,0,0a6.88,6.88,0,0,1,.75-.55c.05,0,.16-.06,0,0a.31.31,0,0,0,.1-.05L305,380l.44-.21c.24-.1.58-.45.35-.72a.86.86,0,0,0-1-.1Z" transform="translate(-79.17 -102.72)"/><path class="cls-12" d="M321.82,511.49a27.37,27.37,0,0,0,2.42-1.37.61.61,0,0,0,.27-.32.25.25,0,0,0-.15-.26,1.18,1.18,0,0,0-1,.13q-.52.34-1.08.66c-.18.11-.37.21-.56.31l-.26.14c-.07,0-.05,0,.05,0l-.08,0-.15.07a.93.93,0,0,0-.39.29.24.24,0,0,0,0,.3,1,1,0,0,0,1,0Z" transform="translate(-79.17 -102.72)"/><path class="cls-12" d="M321.27,513.27c.65,0,1.5-1,.53-1-.64,0-1.5,1-.53,1Z" transform="translate(-79.17 -102.72)"/><path class="cls-12" d="M166.53,578.8c-.38,1.75.44,3.49.64,5.22,0,.33,1.5,0,1.45-.39-.11-.88-.34-1.72-.52-2.58a6,6,0,0,1-.13-2.49c.08-.39-1.35-.16-1.44.24Z" transform="translate(-79.17 -102.72)"/><path class="cls-12" d="M168.45,587.55a15.09,15.09,0,0,0,3.92,4.92.9.9,0,0,0,1,0c.18-.07.64-.41.38-.64a14.62,14.62,0,0,1-3.81-4.72c-.13-.3-.56-.29-.83-.21s-.75.3-.62.6Z" transform="translate(-79.17 -102.72)"/><path class="cls-12" d="M269.39,644.68a2.93,2.93,0,0,0-.33,2c0,.11.2.14.27.15a1.35,1.35,0,0,0,.53-.06,1.45,1.45,0,0,0,.49-.22c.08-.06.18-.14.16-.25a3.15,3.15,0,0,1,0-.75v.08a2.6,2.6,0,0,1,.37-1.18c.05-.09-.07-.17-.14-.2a1,1,0,0,0-.46,0,1.21,1.21,0,0,0-.84.43Z" transform="translate(-79.17 -102.72)"/><path class="cls-12" d="M270.67,652.71a3.82,3.82,0,0,0-.32,1.7c0,.11.2.16.27.17a1.4,1.4,0,0,0,.54,0,1.47,1.47,0,0,0,.49-.23.38.38,0,0,0,.15-.29,1.85,1.85,0,0,1,0-.23v.09a3.76,3.76,0,0,1,.32-1.37c.05-.11-.06-.2-.14-.23a.94.94,0,0,0-.47,0,1.08,1.08,0,0,0-.83.47Z" transform="translate(-79.17 -102.72)"/></g><g id="taza"><ellipse class="cls-18" cx="436.4" cy="493.63" rx="56.57" ry="16.5"/><path class="cls-19" d="M542.25,541.54a6.88,6.88,0,0,1,7.41-3.14c3.61.7,6.31,3.62,8.05,6.69,2.09,3.69,3.24,8.25,2.15,12.43-.83,3.19-3.15,6.27-6.4,7.26a7,7,0,0,1-8.53-3.79,2.52,2.52,0,0,0-3.42-.9,2.57,2.57,0,0,0-.9,3.42c1.91,4.42,7,6.94,11.71,6.54,5.13-.44,9.45-4.11,11.48-8.74,2.4-5.51,1.57-11.67-.89-17-2.14-4.67-5.94-8.93-11-10.48s-11.4.33-14,5.2c-1.52,2.83,2.8,5.36,4.32,2.52Z" transform="translate(-79.17 -102.72)"/><path class="cls-20" d="M485.14,597.48c-4.26-5.76-14.54-86.3-14.54-86.3h81.65s-.89,72.32-4.91,83.57S489.41,603.25,485.14,597.48Z" transform="translate(-79.17 -102.72)"/><path class="cls-18" d="M552.25,512c0,3.29-18.28,5.95-40.83,5.95-19.65,0-36.06-2-39.95-4.72-.57-.4-.87-.81-.87-1.23,0-3.28,18.28-5.94,40.82-5.94S552.25,508.7,552.25,512Z" transform="translate(-79.17 -102.72)"/><path class="cls-21" d="M503.25,483a6.33,6.33,0,0,0-.75,3.47,13.56,13.56,0,0,0,.44,2.9c.77,3.31,1.92,6.16.85,9.72l.35-.79-1.07,1.46c-.3.42-.29,1.48.28.81a7.13,7.13,0,0,0,1.77-5.34,32.57,32.57,0,0,0-1.08-5.53,15.9,15.9,0,0,1-.67-3.55,5.85,5.85,0,0,1,.73-3.3C504.28,482.41,503.41,482.62,503.25,483Z" transform="translate(-79.17 -102.72)"/><path class="cls-21" d="M502.5,482.62a9.52,9.52,0,0,0-.48,5.53c.75,3.92,3.21,8,0,11.74-.28.31.16.39.33.39.38,0,1-.8,1.26-1.06,1-1.22,1.22-1.22,1.49-3a10.12,10.12,0,0,0-.08-3c-.21-1.43-.61-2.82-.83-4.25l-.55-3.49a5.91,5.91,0,0,1,.83-3.25C504.71,481.66,502.67,482.17,502.5,482.62Z" transform="translate(-79.17 -102.72)"/><path class="cls-21" d="M502.69,481.55a9.85,9.85,0,0,0-.22,6.48,28.2,28.2,0,0,1,1.32,6.05l-.06,1.82a3.56,3.56,0,0,1-1.5,2.75c-.28.3.37.67.67.31a3.88,3.88,0,0,0,1.4-2.75,9,9,0,0,0,0-2.88,14.17,14.17,0,0,0-.54-2.89,9.22,9.22,0,0,1,0-8.59C503.88,481.41,502.86,481.09,502.69,481.55Z" transform="translate(-79.17 -102.72)"/><path class="cls-21" d="M503.54,482.24a8.31,8.31,0,0,0-.7,2.52,15,15,0,0,0,.54,4.66c.73,3.21,2.12,6.65-.2,9.57-.5.62,0,1.08.5.43a7.93,7.93,0,0,0,1.26-1.74,8.71,8.71,0,0,0,.35-4.5c-.2-1.46-.55-2.93-.83-4.38-.49-2.48-.79-4,.28-6.64C505,481.61,503.69,481.85,503.54,482.24Z" transform="translate(-79.17 -102.72)"/><path class="cls-21" d="M503.28,481.56a9.52,9.52,0,0,0-.59,5.69c.7,3.91,3.12,7.9.06,11.52-.09.11,0,.73.05.63a5.8,5.8,0,0,0,1.8-4.67,12.88,12.88,0,0,0-.27-2c-.72-3.83-2.2-7.16-.7-11.06C503.78,481.33,503.43,481.17,503.28,481.56Z" transform="translate(-79.17 -102.72)"/><path class="cls-21" d="M501.55,482.16a8.21,8.21,0,0,0-.66,2.73,14.53,14.53,0,0,0,.86,4.73c1.08,3.41,2.39,6.81-.39,9.85-.24.26,0,.4.23.46s1.14-.47,1.33-.68a4.14,4.14,0,0,0,1.34-2.14,10.41,10.41,0,0,0,0-4.71c-.7-3.48-1.88-6.6-.45-10.11C504.1,481.58,501.69,481.78,501.55,482.16Z" transform="translate(-79.17 -102.72)"/><path class="cls-21" d="M503.71,482a12.54,12.54,0,0,0-.12,7.43,25.63,25.63,0,0,1,1.12,5.68l-.08,1.77a3.89,3.89,0,0,1-1.57,2.73s.49.43.56.35a4.32,4.32,0,0,0,1.66-3,7.77,7.77,0,0,0,0-2.72c-.52-4.07-3-7.06-1.36-11.67C503.94,482.4,503.71,481.94,503.71,482Z" transform="translate(-79.17 -102.72)"/><path class="cls-21" d="M509,487.57c-1.46-.48-2-1.66-1.66-3.52a7.29,7.29,0,0,1,1.75-3.37c1.27-1.31,2.93-2.16,4.23-3.43a8.46,8.46,0,0,0,2.41-4.1,5.24,5.24,0,0,0-.39-3.38c-.13-.43-.64,0-.55.35.76,3.41-.9,5.79-3.29,7.74a15.12,15.12,0,0,0-3.81,3.63,6.89,6.89,0,0,0-1,2.64,3.47,3.47,0,0,0,1.85,3.92C508.65,488.11,509,487.6,509,487.57Z" transform="translate(-79.17 -102.72)"/><path class="cls-21" d="M508.67,487.47l-1.18-.57.63.47c-3.84-4.54,2.42-8.21,4.9-11.12a8.44,8.44,0,0,0,1.64-2.77,5.46,5.46,0,0,0,0-3.78c-.12-.43-.84-.45-.74-.06a6.65,6.65,0,0,1-.23,4.34,12.91,12.91,0,0,1-3.66,4.27c-1.36,1.19-3.09,2.71-3.62,4.52-.73,2.54.07,4.5,2.37,5.57C509.59,488.72,509.17,487.71,508.67,487.47Z" transform="translate(-79.17 -102.72)"/><path class="cls-21" d="M508,485.62l-1.39-1.22.63,1.34c-1.49-4.55,2.69-7,5.35-9.86a10.71,10.71,0,0,0,2-2.77,6.15,6.15,0,0,0,.24-4.73c-.16-.61-.91.1-.78.53a2.92,2.92,0,0,1,.11,2.74,4.87,4.87,0,0,1-1.91,3.56c-.86.86-1.82,1.59-2.75,2.37-1.33,1.11-2.91,2.46-3.43,4.2a5.18,5.18,0,0,0,.22,3.45,4.38,4.38,0,0,0,2.5,2.61c.49.24.13-.74.13-.75A2.91,2.91,0,0,0,508,485.62Z" transform="translate(-79.17 -102.72)"/><path class="cls-21" d="M509.18,487.39l-1-.47q0-6.32,4.26-9.73A9.93,9.93,0,0,0,515,474a5.93,5.93,0,0,0,.17-4.81c-.13-.42-1.56.41-1.48.73a4.25,4.25,0,0,1-.32,4.18,5.87,5.87,0,0,1-1.59,2.55c-.89,1-1.88,1.82-2.8,2.75a8.52,8.52,0,0,0-2.17,3.31,5.86,5.86,0,0,0-.2,2.88,3.75,3.75,0,0,0,2.49,3C509.86,488.89,509.55,487.56,509.18,487.39Z" transform="translate(-79.17 -102.72)"/><path class="cls-21" d="M509,485.86q-2.21-4.22.48-6.53a21,21,0,0,1,2-1.9,24.78,24.78,0,0,0,3-3.08,7.53,7.53,0,0,0,1.48-3,6.7,6.7,0,0,0-.3-3.34c-.17-.64-1.4.8-1.27,1.23l-.18,4.07-2.4,2.84c-1.13,1.09-2.43,1.84-3.46,3a6.5,6.5,0,0,0-1.64,3.35,7.93,7.93,0,0,0,0,2.23,3.48,3.48,0,0,0,2.35,2.94C509.65,488,509.36,486.06,509,485.86Z" transform="translate(-79.17 -102.72)"/><path class="cls-21" d="M507.88,486.9l-1-.51.8.68c-3.21-4,.55-7.44,3.55-9.94a9.62,9.62,0,0,0,3-3.51,6.47,6.47,0,0,0,.28-4.68c0-.11-.67-.25-.62-.11a5.67,5.67,0,0,1,.48,2.78c-.16,1.8-1.85,3.6-3.12,4.83-1.77,1.71-4.44,3.26-5.39,5.65a5.36,5.36,0,0,0-.16,3.72,4.32,4.32,0,0,0,2.41,2.09c.25.13.53.25.62-.12S508.08,487,507.88,486.9Z" transform="translate(-79.17 -102.72)"/><path class="cls-21" d="M509.57,486.85a2.07,2.07,0,0,1-1.49-2.9c-.28-2.29.74-4.09,3.08-5.4,1-.87,2.23-1.61,3.16-2.54a8.08,8.08,0,0,0,2.57-4.14,5.71,5.71,0,0,0-.45-3.24c-.15-.43-2,.46-1.83,1a5.87,5.87,0,0,1-1,5.38,14.7,14.7,0,0,1-2.78,2.9,11.16,11.16,0,0,0-3.31,4,5.3,5.3,0,0,0-.45,2.91,3,3,0,0,0,2.17,2.51C509.63,487.55,510,487,509.57,486.85Z" transform="translate(-79.17 -102.72)"/><path class="cls-21" d="M512.2,499.6l.26.64-.25-1.81c-.34,1.88-2.88,2.88-3.76,4.55-.1.21-.2.39-.28.6-1.15,2.84,1.05,5.62,2.65,7.73.54.71.79-1,.49-1.36a6.45,6.45,0,0,1-2.27-6.83l-.29.6c.86-1.22,2.85-1.67,3.81-2.79a2,2,0,0,0,.42-.76,4.14,4.14,0,0,0-.65-2.56c-.21-.42-.38-.11-.51.1S512.06,499.25,512.2,499.6Z" transform="translate(-79.17 -102.72)"/><path class="cls-21" d="M511.37,498.36l.06,1.19.45-1c-2,2.63-5.2,3.06-4.55,7,.33,2,1.6,3.54,2.84,5.1.47.58,1.37-1,1.15-1.33-2.12-2.79-3.54-4.94-1.54-8.06l-.82.7c1.22-.73,2.78-1.26,3.28-2.71a2.11,2.11,0,0,0-.19-2.19C511.77,496.52,511.25,498.08,511.37,498.36Z" transform="translate(-79.17 -102.72)"/><path class="cls-21" d="M511.42,497.62c.46.74.21,1.34-.74,1.81l-2.07,1.08a2.94,2.94,0,0,0-1.11,2.23c-.49,2.82,1.35,5.16,2.92,7.31.19.26.17-.43.09-.55l-1-1.42q-1.51-5.71,2-8.5c.54-.71.91-.87.55-1.81C512,497.62,511.43,497.63,511.42,497.62Z" transform="translate(-79.17 -102.72)"/><path class="cls-21" d="M511.87,497.88l.41.89-.2-1.2c-.31,2.22-3,2.89-3.77,5-1.06,2.81,1,5.57,2.6,7.65.38.5.8-.84.56-1.17-1.65-2.28-3.49-4.65-1.37-8l-.54.55c1-.66,2.65-1.27,3.1-2.52a2.49,2.49,0,0,0-.5-2.32c-.11-.19-.39-.1-.46.06A1.57,1.57,0,0,0,511.87,497.88Z" transform="translate(-79.17 -102.72)"/><path class="cls-21" d="M512.05,497.79a1.61,1.61,0,0,1-.93,1.84,8.94,8.94,0,0,0-2.08.91,4.4,4.4,0,0,0-.94,1.7c-1,3.09,1.15,5.59,3,7.8a3.25,3.25,0,0,0-.19-.54q-3.4-3.54-.55-8.94a5.5,5.5,0,0,0,1.38-.88c.89-.73,1.19-1.2.86-2.22C512.61,497.41,512,497.67,512.05,497.79Z" transform="translate(-79.17 -102.72)"/><path class="cls-21" d="M510.94,498.09c.71,1.56-2.32,2.51-3.12,3.19a3.93,3.93,0,0,0-1.27,3c0,2.37,1.78,4.33,3.19,6,.32.37,1.16-.4.87-.79-1.57-2.17-4.47-5.85-.91-8.59.66-.51,1.23-.58,1.75-1.21a1.37,1.37,0,0,0,.2-1.81C511.45,497.55,510.75,497.68,510.94,498.09Z" transform="translate(-79.17 -102.72)"/><path class="cls-21" d="M512.41,498c.72,1.72-.63,2.28-1.82,2.9s-2,1.13-2.23,2.61c-.41,2.81,1.31,4.87,3,6.94.08.09.72,0,.61-.15-1.22-1.45-3.26-3.6-3.14-5.63a4.61,4.61,0,0,1,2.93-4.05c.65-.32.95-.37,1.37-1.08s.29-1,0-1.7C512.92,497.33,512.23,497.52,512.41,498Z" transform="translate(-79.17 -102.72)"/><g class="cls-22"><g class="cls-23"><path class="cls-24" d="M174,592.57a.74.74,0,0,0-.38-.2c-.3-.1-.24-.54-.53-.63s-.41-.62-.74-.83a3.88,3.88,0,0,1-1.63-1.5,19.17,19.17,0,0,1-1.56-3.78,9.56,9.56,0,0,0-.36-1.22,6.75,6.75,0,0,0-.49-1c-.29-.48-.52-1.57-1-1.89a5.49,5.49,0,0,1,.58,1.88c-.7-1.23-1.13-2.62-1.79-3.94a25.89,25.89,0,0,1,1.27,3.75,21.31,21.31,0,0,1,.73,4.11c-.52-1.45-1.12-3.12-1.53-4.74a15.35,15.35,0,0,0-1.77-4.56,3.69,3.69,0,0,0-.5-.61,11.19,11.19,0,0,1,1.9,4.55c.19.82.37,1.66.59,2.49s.49,1.64.73,2.39a13.65,13.65,0,0,0,1.89,4,9.86,9.86,0,0,0,.69,1,8.44,8.44,0,0,0,1.86,1.92,4.24,4.24,0,0,0,1.36.74,1.19,1.19,0,0,0,1.38-.31c-.22-.12-.54-.1-.72-.28.12,0,.26-.08.38-.1-.1,0-.18-.1-.28-.1a.31.31,0,0,0,.24-.1c-.09-.07-.28,0-.4,0s-.4.08-.43,0a2.47,2.47,0,0,0,.76-.22.75.75,0,0,1-.15-.09c.11,0,.24,0,.32-.09A2.58,2.58,0,0,1,174,593c-.11,0-.18-.14-.31-.16a.82.82,0,0,0,.51,0c0-.06-.1-.06-.16-.08l0,0s0-.05-.07-.06a.16.16,0,0,1,0-.07l0,.05" transform="translate(-79.17 -102.72)"/><path class="cls-24" d="M173.25,594.2a1.41,1.41,0,0,1-.47-.35" transform="translate(-79.17 -102.72)"/><path class="cls-25" d="M167.66,586.51s-.2-.46-.54-1.2-.77-1.75-1.17-2.85c-.83-2.19-1.46-4.74-2.82-5.88" transform="translate(-79.17 -102.72)"/><path class="cls-25" d="M166.87,582.86s-.2-.71-.58-1.67a13.21,13.21,0,0,0-1.82-3.32" transform="translate(-79.17 -102.72)"/></g></g></g></svg>