<svg xmlns="http://www.w3.org/2000/svg" viewBox="0 0 635.58 800"><defs><style>.cls-1{fill:#fc6;}.cls-2,.cls-25,.cls-4{fill:none;}.cls-2{stroke:#fff;stroke-width:7px;}.cls-10,.cls-18,.cls-19,.cls-2,.cls-20,.cls-22,.cls-23,.cls-24,.cls-25,.cls-4,.cls-5,.cls-6,.cls-7,.cls-8,.cls-9{stroke-miterlimit:10;}.cls-3{fill:#96f;}.cls-4{stroke:#373735;}.cls-5{fill:#877350;}.cls-10,.cls-18,.cls-19,.cls-20,.cls-22,.cls-23,.cls-24,.cls-5,.cls-6,.cls-7,.cls-8,.cls-9{stroke:#1d1d1b;}.cls-10,.cls-19,.cls-22,.cls-23,.cls-24,.cls-5,.cls-6,.cls-7,.cls-8,.cls-9{stroke-width:0.25px;}.cls-6{fill:#ddbd7c;}.cls-7{opacity:0.81;}.cls-8{opacity:0.54;}.cls-9{opacity:0.66;}.cls-10,.cls-11,.cls-17,.cls-18{fill:#fff;}.cls-10{opacity:0.49;}.cls-12{fill:#1d1d1b;}.cls-13,.cls-17{opacity:0.05;}.cls-14{opacity:0.71;}.cls-15{opacity:0.35;}.cls-16{opacity:0.07;}.cls-19{opacity:0.11;}.cls-21{opacity:0.09;}.cls-22{fill:#283660;}.cls-23{fill:#8fa0e2;}.cls-24{fill:#ceaf7a;}.cls-25{stroke:#b9d0ea;stroke-width:3px;}.cls-26{fill:#b9d0ea;}</style></defs><g id="fondo"><rect class="cls-1" width="600" height="800"/><line class="cls-2" x1="33.5" y1="110.36" x2="149.68" y2="193.81"/><line class="cls-2" x1="21.93" y1="181.71" x2="124.14" y2="228"/><line class="cls-2" x1="56.64" y1="228" x2="91.59" y2="248.1"/><circle class="cls-3" cx="568.3" cy="212.57" r="67.15"/><path class="cls-1" d="M927.39,212.57"/><path class="cls-4" d="M927.39,212.57"/></g><g id="cuerpo"><path class="cls-5" d="M211.62,247.91s-4.15-48,2.37-74,8.29-34.35,8.29-34.35,21.92,64.56,17.77,88.25S211.62,247.91,211.62,247.91Z"/><path class="cls-6" d="M447.59,603,330.08,658.82l-150.6-5.32s-8-32-6.66-92c0-.44,0-.89,0-1.34,1.73-59.78,30.34-137.25,30.34-137.25s-1.9-10.64-3.28-26.19c-1.81-20.09-2.79-48.38,2.23-72.43C211,281.67,182,249.09,231.46,221.7S370.07,231,368.73,260.34c-1,22.84,20.27,63.79,32.49,99,3.47,10,6.22,19.58,7.49,28.14,5.78,38.6,1.33,87.4,10.65,104.73,5,9.27,12.73,40.37,18.84,67.25C443.51,582.82,447.59,603,447.59,603Z"/><path class="cls-5" d="M336.6,245.54s0-32.58,8.29-47.38,11.84-50.35,11.84-50.35L368.58,257.5S361.47,264.49,336.6,245.54Z"/><path class="cls-7" d="M246.27,364.59c-.05-.88,24.58-8,36.72-3.55s17.77,5.92,14.81,10.37-8.29,5-10.07,10.36-26.06-.3-35.54,1.78C246.27,371.41,246.56,370.52,246.27,364.59Z"/><path class="cls-8" d="M438.2,559.49a205.83,205.83,0,0,1-21.06-5.14c-5.31-1.61-11-3.83-13.59-8.74-1.56-3-1.65-6.52-1.64-9.89.15-30.05,6.16-61.3-4.52-89.38-3.83-10.07-9.81-19.74-10.05-30.52-.2-9.38,4-18.22,7.49-26.93,1.73-4.34,3.91-17.8,6.39-29.52,3.47,10,6.22,19.58,7.49,28.14,5.78,38.6,1.33,87.4,10.65,104.73C424.35,501.51,432.09,532.61,438.2,559.49Z"/><path class="cls-9" d="M209.33,434c-2.77,11.67-9.6,22.11-11.73,33.9-1.22,6.8-.83,13.78-1.44,20.65a139.29,139.29,0,0,1-3.11,17.86q-3.66,16.88-7.33,33.76c-.94,4.28-1.93,8.68-4.3,12.37a23.63,23.63,0,0,1-8.56,7.68c1.73-59.78,30.34-137.25,30.34-137.25s-1.9-10.64-3.28-26.19C210.43,396.75,211.77,423.74,209.33,434Z"/><path class="cls-10" d="M274.92,444c5.71-3.15,12.57-3.07,19.09-2.91,8.49.21,17.73.69,24.15,6.26,6.81,5.92,8.36,15.87,8.08,24.89-.42,13.25-3.79,26.19-7.15,39l-14.57,55.6c-.9,3.47-1.85,7-3.9,9.95-6.5,9.3-20.27,8.49-31.47,6.69-8.57-12.71-10.84-28.62-11.09-43.94s1.27-30.73-.7-45.93C255.1,476.21,257.1,453.81,274.92,444Z"/><path class="cls-11" d="M261.67,324.32h7.55"/><path class="cls-12" d="M261.11,325.15h7.55a2.31,2.31,0,0,0,1.91-.8c.37-.57-.31-.86-.79-.86h-7.55a2.31,2.31,0,0,0-1.91.79c-.37.57.31.87.79.87Z"/><path class="cls-13" d="M292.8,349.61a6.34,6.34,0,0,0,2.64-.26,6.22,6.22,0,0,0,2.37-2.08l7-8.63a10.45,10.45,0,0,0,2.21-3.64,3.54,3.54,0,0,0-1.13-3.86,5.28,5.28,0,0,0-2.92-.6l-13-.09c-3.93,0-8.22,1.14-12,.82-3.61-.3-6.55-2-10.47-1.61a9.35,9.35,0,0,0-3.83,1,11.24,11.24,0,0,0-3,2.81c-2.05,2.47-8.62,7.87-9.27,10.86-.72,3.3,1.67,3.39,5.29,3.76A358.94,358.94,0,0,0,292.8,349.61Z"/><path class="cls-14" d="M359.18,360.8a22.76,22.76,0,0,1,.07,12.09l6.83,2.12c0-3.49,1.23-6.84,2.14-10.21s1.44-7.06,0-10.26-5.33-5.49-8.48-4a21.55,21.55,0,0,0,1.72,14.51"/><path class="cls-15" d="M219.94,485.13l-.09,8.33c0,1.41,1.63,3.31,2.21,2l3.22-8.3a2.9,2.9,0,0,0-1.26-4.35l-3.74-2.54-1.6,6.53"/><g class="cls-16"><path d="M251.3,413.76c7,5.26,20.58,6.55,28.84,4.42-5.68,1-13.29,1.67-18.72-.51-4.33-1.73-8.92-4.24-13.52-5.07a19.72,19.72,0,0,0,9,5.9c4.39,1.56,8.77.41,13.21,1.55a22.61,22.61,0,0,1-5.34.22c6.67,0,13.89,2.6,19.67-1-4-.78-10.4-.2-14.66.15,3.2.94,10.08.85,13.33,0-.69,0-1.46-.12-2.16-.12.78-.8,2.24-.55,3.5-.6a24.44,24.44,0,0,0-3.74-1.14c1.69,0,3.44-.12,4.92.75-1.43,1.19-3.7,2.45-5.69,2.23,1.81,0,4.4.57,5.68-.91-6.21-2.22-15.49.16-22.1-.8-6.35-.93-11.21-5.29-17.31-6.77,3.44,2.12,9.83,6.5,14.15,4.63-1.6-1.07-3.51-2.27-5.28-3.22,1.38-.06,4.94.74,6.05.23s2.31-3.28,3.09-4.24c2.28-2.83,4.16-5.88,6.32-8.64.2,4.23.2,6.29,2.41,9.87a27.08,27.08,0,0,0,6.1,6.84c-5,1.27-7.66-6.65-8.54-10.27-1.68,3.89.34,7.25,2,10.48-.89-2-2.24-3.6-2.9-5.63-.54-1.68-.24-4-1.65-5.15-2.67,2-5.27,4.67-6.13,7.93,1.47-1.24,2.42-2.81,4.19-4.06-1,1.83-4.65,4.94-4.35,7,2.15.23,2.74-3.05,4.15-4.23.5,1.61.18,3.44.86,5,.84-2,.74-4.37,1.78-6.25a4.06,4.06,0,0,1,.59,2.76c0-.4.22-3.6-.37-4.79-.31,1.47-.93,5.73,0,7.08,2,2.81,3.53.6,3.32-1.69-.18-1.89-1.35-3.79-1.51-5.79a24.51,24.51,0,0,0-.21-3.65,6.6,6.6,0,0,0-1,4.42c0-5.57,1.75-10.94,1.77-16.34a45.5,45.5,0,0,1-1.48,9.58c-.42,2-2.62,7.36-1.35,9.05.58.78,4.39,2,5.43,2.5a25,25,0,0,0,3.77,1.28c3.51,1,6.93,1.05,10.53,1.56-1,1.22-4.07,1.47-5.76,1.43,1.94.48,4.55.7,6-1-1.69-.39-3.66,1.26-5.45,1.65-2.28.5-4.87.22-7.21.22-2.6,0-5.24.14-7.83,0a25,25,0,0,1-10.82-3.41c-1.84-1-3.21-2.62-4.88-3.85-2.09-1.55-3.53-1.34-6-1.91,3.41,4,12.73,6,17.63,7.38a47,47,0,0,0,11.93,2.08c4.79.13,9.79,1.05,13.26-2.46-6.65-1.56-14,.56-20.67-1.09"/><path d="M249.94,414.25c4.2,3.09,9.56,4.49,14.66,5.12a42.76,42.76,0,0,0,15.66-.76c.26-.06,1.34-.36,1.32-.76s-.94-.24-1.17-.2c-5.05.89-10.45,1.43-15.48.2a50.67,50.67,0,0,1-7.75-3.09,37.92,37.92,0,0,0-8.09-2.71c-.39-.08-3.09.4-2.56,1a20.21,20.21,0,0,0,9.38,6c4.2,1.39,8.71.46,13,1.47l1.46-1.08a20.81,20.81,0,0,1-4.67.17l-1.88,1.17c7.4.05,14.88,2.53,21.72-1.53.24-.14.55-.5.08-.59-5-.92-10.22-.27-15.22.13-.26,0-2.82.86-1.82,1.13a26,26,0,0,0,7.26.7,32.16,32.16,0,0,0,7.38-.81c.39-.1,2.11-1,.82-1-.72,0-1.44-.09-2.16-.11l.37.47c-.3.26.12.1.37.1h.88a4.33,4.33,0,0,0,1.77-.41c.11-.05.92-.5.53-.67a29.34,29.34,0,0,0-3.9-1.21l-2.14,1.14a9,9,0,0,1,4.49.66l.06-.38a5.21,5.21,0,0,1-3.44,1.53L279,421.15c2.66,0,5.85.5,7.93-1.6.21-.22.15-.35-.12-.44-6.4-2.2-13.44-.34-20-.63-7.15-.32-12.63-5.24-19.38-7a3.33,3.33,0,0,0-1.86.31c-.14.06-1.09.5-.7.74,4.71,2.91,10.28,6.75,16,4.46.13-.05,1.3-.52.87-.81-1.72-1.14-3.47-2.24-5.28-3.22l-2.31,1.08c3.26-.07,7.13,1.53,9.46-1.64.53-.72.95-1.52,1.42-2.28.57-.93,1.28-1.75,1.92-2.62,1.71-2.3,3.28-4.7,5-7l-2.88.64c.16,3.25.35,6.27,2,9.16a29.38,29.38,0,0,0,6.61,7.66l1.63-1c-2.24.5-4.07-2.11-5-3.78a26.1,26.1,0,0,1-2.36-6.35c-.17-.67-2.68.15-2.88.64-1.53,3.84.24,7.23,2,10.61.36.68,3.12-.3,2.9-.77-1-2-2.49-3.88-3-6.1-.41-1.68-.24-3.52-1.6-4.79-.55-.52-2.2.24-2.68.6-2.73,2.1-5.28,4.68-6.24,8.08-.23.78,2.47-.13,2.73-.37,1.47-1.3,2.61-2.89,4.19-4.07l-2.74.37a31.28,31.28,0,0,1-2.76,3.55c-.78,1-1.72,2.2-1.61,3.55,0,.17.43.19.5.19a5.29,5.29,0,0,0,4.06-1.52c.94-1,1.33-2.46,2.35-3.41l-2.76.51c.44,1.65.25,3.39.86,5,.25.67,2.67-.13,2.87-.64.81-2,.79-4.29,1.79-6.26l-2.88.64a4.47,4.47,0,0,1,.59,2.77l2.9-.78c0-1.55.26-3.33-.38-4.79-.26-.6-2.76.08-2.87.65-.57,2.81-1.52,9.7,3.42,8.6,2.18-.48,3.1-2.1,2.76-4.27-.22-1.42-.88-2.72-1.23-4.11-.4-1.62-.12-3.28-.43-4.92-.13-.71-2.63.24-2.87.65a7.26,7.26,0,0,0-1,4.55c.05.53,2.89,0,2.9-.78,0-5.5,1.7-10.83,1.77-16.33,0-.44-2.88,0-2.89.77a42.81,42.81,0,0,1-2.06,11.54,30.84,30.84,0,0,0-1.05,4.21c-.15,1-.33,2.25.39,3a8.9,8.9,0,0,0,3.2,1.59c1.2.47,2.39,1,3.61,1.44,4.26,1.5,8.63,1.72,13.06,2.33l-.12-.44c-.78.87-2.43.74-3.51.73a3.77,3.77,0,0,0-1.91.48c-.23.13-.79.53-.22.66,2.77.65,6.41.58,8.45-1.71.17-.19.2-.39-.12-.44a8.5,8.5,0,0,0-4.71.9,11.49,11.49,0,0,1-2.09.86,15.47,15.47,0,0,1-3.4.14c-4.19-.11-8.55.4-12.69-.32A22.39,22.39,0,0,1,255.94,415a17.1,17.1,0,0,0-4.16-3.07,26.21,26.21,0,0,0-4.56-1c-.39-.08-3.1.45-2.56,1.05a17.08,17.08,0,0,0,6.79,4.1,84.93,84.93,0,0,0,8.3,2.6,91.44,91.44,0,0,0,9.77,2.37,64.43,64.43,0,0,0,10.75.68c3.56,0,7.25-.81,9.89-3.35.2-.2.16-.38-.12-.45-6.82-1.51-13.86.5-20.66-1.09a3.35,3.35,0,0,0-2,.38c-.24.12-1,.59-.36.74,6.82,1.59,13.86-.43,20.66,1.09l-.11-.45c-2.87,2.77-7,1.91-10.62,1.78a53.63,53.63,0,0,1-12.69-2.24c-3-.84-6-1.59-8.92-2.62s-5.88-2.24-7.92-4.52l-2.56,1c1.62.35,3.36.41,4.85,1.2a29.34,29.34,0,0,1,4.16,3.31,23.41,23.41,0,0,0,10.31,4.38c4,.7,8.19.22,12.27.34a28.08,28.08,0,0,0,5.65-.23,11.42,11.42,0,0,0,2.56-.76c.67-.28,1.69-1.05,2.41-.94l-.12-.44c-.92,1-2.21.66-3.45.37l-2.13,1.14c2.49,0,6.22-.14,8-2.13.16-.18.19-.4-.12-.44-4.28-.59-8.52-.82-12.65-2.19-1.33-.45-2.65-1.05-4-1.56-.86-.34-2.33-.73-2.92-1.51s-.3-2.47-.11-3.43c.29-1.39.74-2.75,1.14-4.12a42,42,0,0,0,1.85-11l-2.89.77c-.07,5.5-1.73,10.84-1.78,16.34l2.9-.78a6.86,6.86,0,0,1,.95-4.29l-2.87.65c.22,1.22.09,2.42.2,3.64a13,13,0,0,0,.75,2.94,11,11,0,0,1,.78,3.18,3.8,3.8,0,0,1-.21,1.38c-.24.64-.87.82.35.52s.45-.21-.1-.74a2.91,2.91,0,0,1-.75-1.12,5.94,5.94,0,0,1-.25-2,20.9,20.9,0,0,1,.45-4.39l-2.87.65c.63,1.46.4,3.23.37,4.79,0,.45,2.83,0,2.9-.78a4.43,4.43,0,0,0-.59-2.76c-.38-.66-2.61.11-2.88.64-1,2-1,4.23-1.78,6.26l2.87-.64c-.61-1.62-.41-3.36-.86-5-.19-.72-2.46.23-2.75.5a7.9,7.9,0,0,0-1.41,1.94c-.21.37-.42.74-.65,1.08-.12.17-.26.32-.37.48-.42.61-.74,0,.53,0l.5.2c-.1-1.32,1-2.59,1.79-3.55a26.93,26.93,0,0,0,2.55-3.28c.24-.42-.88-.31-1-.29a3.64,3.64,0,0,0-1.76.66c-1.58,1.17-2.72,2.77-4.19,4.07l2.74-.37c.94-3.31,3.36-5.76,6-7.79l-2.67.6c1.33,1.24,1.05,3.28,1.52,4.89.6,2.09,2,3.85,2.94,5.79l2.9-.77c-1.73-3.28-3.56-6.62-2.07-10.35l-2.88.64c1.14,4.65,3.67,11.75,9.72,10.41.19,0,2.16-.57,1.64-1a28.08,28.08,0,0,1-6.64-7.8c-1.49-2.79-1.64-5.72-1.79-8.81,0-.73-2.63.32-2.88.64-1.32,1.71-2.53,3.49-3.78,5.25-1.09,1.54-2.35,3-3.32,4.59-.38.64-.75,1.3-1.18,1.9a6.76,6.76,0,0,1-.67.78c.87-.22,1.05-.33.55-.3l-.45,0c-1.41-.08-2.82-.41-4.24-.38a4.16,4.16,0,0,0-1.77.4c-.13.06-.9.48-.54.67,1.82,1,3.57,2.08,5.29,3.22l.87-.81c-2,.79-4.78-.59-6.52-1.44a66.21,66.21,0,0,1-5.77-3.36l-2.56,1c6.69,1.69,12.08,6.46,19.14,7,6.67.47,13.8-1.61,20.27.61l-.12-.44c-.69.69-2.5.21-3.43.2a3.49,3.49,0,0,0-2,.55c-.4.32-.45.58.16.62a11.85,11.85,0,0,0,7.94-2.93c.09-.07.22-.28,0-.37a10.66,10.66,0,0,0-5.33-.84,4,4,0,0,0-1.92.47c-.24.15-.78.51-.22.67a25.61,25.61,0,0,1,3.56,1.07l2.31-1.07c-2,0-4.13-.09-5.75,1.3-.36.31.1.46.37.47.72,0,1.44.11,2.16.11l.82-1a24.94,24.94,0,0,1-6,.53,23.12,23.12,0,0,1-6-.65L269.12,420c4.62-.38,9.5-1,14.1-.17l.09-.59c-2.65,1.57-5.74,1.44-8.7,1.19s-5.93-.74-8.93-.76a3.4,3.4,0,0,0-2,.55c-.38.3-.47.61.16.62a26.85,26.85,0,0,0,6-.29c.23-.05,2.42-.85,1.46-1.08-4.12-1-8.46-.13-12.53-1.33a19.5,19.5,0,0,1-9.47-6.05l-2.56,1.05a42.48,42.48,0,0,1,9.21,3.22,36,36,0,0,0,7.75,2.83c5.33,1,10.91.42,16.2-.51l.15-1a36.66,36.66,0,0,1-14.12.37c-4.64-.69-9.4-2-13.23-4.85-.64-.47-3.13.69-2.73,1Z"/></g><path class="cls-17" d="M233.81,398.41a2.23,2.23,0,0,0,.24,1.23,2.18,2.18,0,0,0,1.07.7q7.17,2.81,14.48,5.21a7.57,7.57,0,0,0,4.33.51c2.4-.67,3.49-3.34,4.86-5.42a16.94,16.94,0,0,0,2.09-3.38c.92-2.54-.3-5.47-2.3-7.28a17.6,17.6,0,0,0-7.26-3.43c-3.45-1-12.93-4.45-16.14-2.13C232.26,386.53,233.82,395.45,233.81,398.41Z"/><path class="cls-17" d="M301.82,408.17c2.51.12,5.15.22,7.42-.86a10.06,10.06,0,0,0,4.81-5.59,24.45,24.45,0,0,0,1.3-7.41,4.83,4.83,0,0,0-.2-2,4,4,0,0,0-1.79-1.77c-3-1.71-6.6-1.8-10-1.84l-15.06-.2a11.39,11.39,0,0,0-5.26.77c-4.62,2.28-5.58,10.7-3.08,14.75C283.55,409.87,295.72,407.88,301.82,408.17Z"/></g><g id="rostro"><path class="cls-18" d="M292.76,275.23c.53-1.3,37.76-1.11,39.76,1.78s0,27.09-8.44,26-29.09,1.34-32.87-9.55C291.21,279.45,291.88,277.45,292.76,275.23Z"/><path class="cls-18" d="M224.27,270.48c.52-1.31,37.76-1.11,39.76,1.77s0,27.1-8.44,26-29.1,1.33-32.88-9.55C222.71,274.7,223.38,272.7,224.27,270.48Z"/><path class="cls-12" d="M239.17,327.81a17.83,17.83,0,0,0-4.12,6.18c-1.24,2.68-2.22,5.48-3.24,8.26-2.29,6.27-6.4,12.55-5.75,19.48,0,.23.75.08.73-.19-.64-6.79,3.38-13,5.64-19.09.95-2.6,1.87-5.22,3-7.75s2.31-5,4.34-6.77c.31-.27-.41-.27-.58-.12Z"/><path class="cls-12" d="M226.06,366.4c0,6.08-.58,12.15-.6,18.24,0,5,0,10.61,2.19,15.19,3.41,7.17,11.66,9.56,18.78,11.27,4.34,1,8.79,1.86,13,3.5.32.13.84-.33.41-.5-7.1-2.8-14.9-3.29-22-6.26A18.31,18.31,0,0,1,229.1,401c-2.63-4.25-2.81-9.76-2.89-14.6-.11-6.68.57-13.33.58-20,0-.39-.73-.29-.73,0Z"/><path class="cls-12" d="M244.45,411.53c9.91,12.67,26.88,10.14,41.06,10.12.27,0,.78-.39.29-.39-14.07,0-30.85,2.56-40.67-10-.15-.19-.85.06-.68.28Z"/><path class="cls-19" d="M324,334.18c-1.19,3.9-11.26,12.25-9.18,21.16s6.51,35.63,6.51,40.08,11.55-25.05,12.14-42.31-1.18-26.72-3.55-25.05S324,334.18,324,334.18Z"/><path class="cls-12" d="M259.65,414.17c1.31,0,2.13-1.07,2.73-2.11,1-1.7,1.82-3.42,2.95-5a48.72,48.72,0,0,0,4.17-6.3c.83-1.71,2-3.63,2-5.59,0-.33-.72-.19-.73.08,0,1.81-1,3.46-1.72,5.05a30.29,30.29,0,0,1-3.36,5.31,34.53,34.53,0,0,0-3.11,4.77c-.48,1-1.32,3.41-2.63,3.38-.3,0-.76.43-.27.45Z"/><path class="cls-12" d="M270.74,395c0,1.38-.09,2.77,0,4.14a14,14,0,0,0,1,3.82c.44,1.25.72,2.55,1.13,3.81.5,1.51,1.14,3,1.77,4.43.8,1.87,1.68,3.46,3.55,4.43a19.21,19.21,0,0,0,6.78,1.55c6,.63,12,.25,18,.18a19.17,19.17,0,0,0,13.62-5.79,7.5,7.5,0,0,0,2-3.17c.46-1.61.82-3.19,1.43-4.76.9-2.34,1.74-5.49,4.27-6.55.45-.19.05-.61-.33-.45a6.63,6.63,0,0,0-3.3,3.62,38,38,0,0,0-2.38,6.33,9.6,9.6,0,0,1-1.41,3.74,14,14,0,0,1-2.9,2.75,17.87,17.87,0,0,1-7.48,3.43,55,55,0,0,1-8.61.37c-3,.06-5.93.14-8.89,0a43.92,43.92,0,0,1-7.76-.88,7.18,7.18,0,0,1-5.1-3.38,42.56,42.56,0,0,1-3.24-8.61,27.56,27.56,0,0,1-1.32-4.41c-.19-1.54,0-3.11,0-4.66,0-.4-.75-.29-.74,0Z"/><ellipse class="cls-20" cx="248.03" cy="283.13" rx="8.57" ry="5.61"/><ellipse class="cls-20" cx="314.56" cy="288.74" rx="8.57" ry="5.61"/><path class="cls-21" d="M248.67,268.64l14.41.08c1.28,0,2.75-.07,3.56-1.07s.39-3-.74-3.92a8.4,8.4,0,0,0-4.12-1.47A149.72,149.72,0,0,0,225,261c-1.38.13-3.05.48-3.49,1.81-.56,1.71-.69,3.93-1.13,5.5C229.55,269.41,239.37,268.6,248.67,268.64Z"/><path class="cls-21" d="M299.34,272.41c11.25,1.52,22.91.11,34.22,1.66,2.34.32,4.73,1.29,7,0s1.69-4.89-.32-6.44S335.5,266,333,266c-9.21,0-18.38-1.2-27.59-1.31a72,72,0,0,0-13.44.86c-1.64.29-3.71.24-3.62,2.21.09,2.18,3.64,3.19,5.25,3.58A57.1,57.1,0,0,0,299.34,272.41Z"/></g><g id="compu"><path class="cls-22" d="M84.87,601.52s-72,125.27-70.64,143.93,562.84,16,562.84,16,62.19-137.27,58.2-150.59S84.87,601.52,84.87,601.52Z"/><polygon class="cls-23" points="334.93 602.43 476.68 601.52 402.05 700.14 259.6 688.14 334.93 602.43"/><path class="cls-23" d="M150.17,526.89l-.49,166.21s240.37,11,252.37,7,16-173.25,16-173.25Z"/><path class="cls-24" d="M425.14,599.21s21.63-25.89,34.66-9.24,0,36.42,0,43.53-38.14,38.94-41.76,9.77S426.91,622.66,425.14,599.21Z"/><rect class="cls-25" x="172.86" y="552.28" width="35.54" height="56.16"/><rect class="cls-25" x="190.63" y="573.56" width="35.54" height="56.16"/><path class="cls-26" d="M338.67,623.21c10,3.64,19.7,8.18,30.07,10.86A48.4,48.4,0,0,0,384.05,636c5-.34,10.29-2,12.85-6.7a6.52,6.52,0,0,0-.34-7.3c-1.53-2-3.93-2.67-6.33-2.82-4.92-.3-10.09,1.08-14.64,2.86-10.55,4.11-18.08,13.85-21.91,24.26a55.31,55.31,0,0,0-3.34,13.93c-.3,3.39-.4,8.82,3.74,10a2.8,2.8,0,0,0,2-.31c.28-.17,1-.8.29-1-3.17-.88-3.37-5-3.27-7.71a47.41,47.41,0,0,1,2.3-12c2.73-9,7.85-17.81,15.65-23.24a32.48,32.48,0,0,1,13.19-5.07,14,14,0,0,1,6.86.16,5.74,5.74,0,0,1,3.83,5.63,8.56,8.56,0,0,1-3.89,6.17,11.81,11.81,0,0,1-5.65,1.65c-4.69.4-9.5-.52-14-1.67-10.49-2.67-20.27-7.27-30.4-11a2.62,2.62,0,0,0-2,.31c-.32.18-1,.74-.3,1Z"/></g></svg>