<svg xmlns="http://www.w3.org/2000/svg" viewBox="0 0 609.34 420.79"><defs><style>.cls-1{fill:#aaa496;stroke:#1d1d1b;}.cls-1,.cls-2,.cls-3,.cls-4,.cls-45,.cls-46,.cls-5{stroke-miterlimit:10;}.cls-2,.cls-3,.cls-4,.cls-5{stroke:#23221e;}.cls-14,.cls-17,.cls-2{opacity:0.05;}.cls-3{fill:#87826e;}.cls-4{fill:#c4c993;}.cls-5{opacity:0.1;}.cls-6{fill:#444443;}.cls-7{fill:#e2e2e0;}.cls-8{fill:#f9f9f9;}.cls-9{opacity:0.2;}.cls-10{fill:#dbd99c;}.cls-11{fill:#c66d46;}.cls-12{fill:#ff8445;}.cls-13{fill:#fcefb9;}.cls-15{fill:#505560;}.cls-16,.cls-19{fill:#383c47;}.cls-18{fill:#3f3a26;}.cls-19,.cls-38{opacity:0.26;}.cls-20{fill:#504c38;}.cls-21{fill:#b7ac7d;}.cls-22,.cls-23,.cls-38,.cls-39{fill:#fff;}.cls-22{opacity:0.18;}.cls-23{opacity:0.22;}.cls-24{fill:#e8dcac;opacity:0.43;}.cls-25{fill:#494843;}.cls-26{fill:#8396a5;}.cls-27{fill:#acbac6;}.cls-28{fill:#d0cd00;}.cls-29,.cls-39{opacity:0.08;}.cls-30,.cls-34{opacity:0.07;}.cls-31{fill:#75b259;}.cls-32{opacity:0.03;}.cls-33{fill:#756b42;}.cls-35{fill:#ccc;}.cls-36{fill:#bfa695;}.cls-37{fill:#29a200;}.cls-40{fill:#d6d6d6;}.cls-41{fill:#e8e8e8;}.cls-42{fill:#c1c1c1;}.cls-43{opacity:0.06;}.cls-44{fill:#d1d1cf;}.cls-45{fill:#dde4fd;}.cls-45,.cls-46{stroke:#d9e1fd;}.cls-46{fill:#c6d2fb;}.cls-47{fill:#a0b4f9;}</style></defs><g id="bahia"><path class="cls-1" d="M751.14,574.18,650.36,579S617,581.27,574,581.75c-25.24.29-53.79,0-80.83-1.81-39.23-2.56-75.28-8.15-93.45-19.26-6.34-3.88-12-7-17.12-9.53-37-18.29-46.9-6.42-90.94-31-4-2.22-7.6-4-10.91-5.52-38.49-17.33-35.27,9.33-56.59-35.93a160.82,160.82,0,0,0-26.86-40.67c-15.69-17.08-29.07-23-29.07-23s557-28.25,555.41-21.66,23,133.78,23,133.78Z" transform="translate(-145.37 -213.34)"/><path class="cls-2" d="M746.65,527.19c-6-.73-11.8-4.11-17.24-7.15a230.32,230.32,0,0,0-74.2-26.14c-9.53-1.61-19.19-2.62-28.48-5.3-35.74-10.33-62.92-44.42-100-47.4-24.19-1.95-47.22,10-71.28,13.2-19.63,2.6-39.5-.69-59.1-3.54Q340,442.67,283.2,439.19q-29-1.77-58-2.31c-6.17-.12-20.88-2.12-27.9,1.18-15.69-17.08-29.07-23-29.07-23l551.25-18Z" transform="translate(-145.37 -213.34)"/><path class="cls-3" d="M743.3,509.67s-18.69-31.92-66.91-32.24q-7.35,0-14-.29c-39.08-1.48-60.25-8.79-77.1-32.16-18.77-26-97.92-16.41-117.2-9.77s-73.93-.44-116.68-9.69S154.71,431.46,147,419.24c-3.42-5.42,1.31-12,9.14-18.55,9.84-8.3,24.59-16.65,34.25-22.94,17.36-11.28,528.47-9.65,537.51,19.06s1,3.4,1.25,6.33S743.3,509.67,743.3,509.67Z" transform="translate(-145.37 -213.34)"/><path class="cls-4" d="M662.41,477.14c-39.08-1.48-60.25-8.79-77.1-32.16-18.77-26-97.92-16.41-117.2-9.77s-73.93-.44-116.68-9.69S154.71,431.46,147,419.24c-3.42-5.42,1.31-12,9.14-18.55,7.29,2.19,14.19,6.23,22.34,6.31,17.2.17,34.4-2.45,51.38-4.85l56.35-7.95c20.25-2.86,40.58-5.73,61-5.9,15.05-.12,30.21,1.24,44.67,5.41,9.07,2.62,17.84,6.33,27.09,8.21,12.06,2.46,24.5,1.72,36.81,1.78,23.31.11,46.5,3.11,69.61,6.1,18.7,2.43,37.78,5,54.73,13.22a46.88,46.88,0,0,1,12.93,8.77c4,4,6.81,9,10.62,13.14,11.1,12.05,28.54,15.36,44.72,17.92,4.88.77,10.34,1.89,13.06,6A9.38,9.38,0,0,1,662.41,477.14Z" transform="translate(-145.37 -213.34)"/><path class="cls-5" d="M382.58,551.15c-37-18.29-46.9-6.42-90.94-31-4-2.22-7.6-4-10.91-5.52,4.39-10.69,15.07-19.87,21.92-28.55l14.48-18.35c1-1.29,2.36-2.72,4-2.48a4.77,4.77,0,0,1,2.46,1.59l22.6,22.59c2,2,4,4,4.94,6.64.75,2.07.77,4.33,1.25,6.47,2.95,13.1,21.41,18,24.42,31.05.51,2.19.54,4.52,1.55,6.52,1.38,2.74,4.48,4.62,4.91,7.65A5.12,5.12,0,0,1,382.58,551.15Z" transform="translate(-145.37 -213.34)"/><path class="cls-5" d="M574,561.54c-25.24.29-53.79,0-80.83-1.81,4.55-10.4,14.92-19.38,21.63-27.88l14.48-18.35c1-1.29,2.36-2.72,4-2.48a4.77,4.77,0,0,1,2.46,1.59l22.6,22.59c2,2,4,4,4.94,6.64.75,2.07.77,4.33,1.25,6.47C565.73,553.75,569.63,557.77,574,561.54Z" transform="translate(-145.37 -213.34)"/><g id="pajaro"><path class="cls-6" d="M347.05,412.05s-4.7,7-4.49,7.93,9.64,3.75,10.5,2.46,2-7.07,2-7.07Z" transform="translate(-145.37 -213.34)"/><path class="cls-7" d="M356.9,417.41s-.6,5.61-.2,6.13,2.41,2.41,1.73,2.41-2-2-2.21-1.69.52,2.74,0,2.62-1.64-3.42-1.56-2.7a22.27,22.27,0,0,1-.13,2.7s-1-2.13-.56-3.18,1.57-1.08,1.73-5S356.9,417.41,356.9,417.41Z" transform="translate(-145.37 -213.34)"/><path class="cls-7" d="M351,417.41s-.6,5.61-.2,6.13,2.41,2.41,1.72,2.41-2-2-2.21-1.69.53,2.74,0,2.62-1.64-3.42-1.56-2.7a20.82,20.82,0,0,1-.12,2.7s-1-2.13-.57-3.18,1.57-1.08,1.73-5S351,417.41,351,417.41Z" transform="translate(-145.37 -213.34)"/><path class="cls-8" d="M373.7,403.05c0,1.29-.32,6.75-7.55,4.82-1.45,10.61-11.41,15.18-15.91,11.61s-6.43-5.36-3.86-12.34,12.22-6.34,12.22-6.34a14,14,0,0,1,1.1-2.71,11.87,11.87,0,0,1,.78-1.28h0c1.36-1.94,3.54-3.67,6.79-2.75a8.1,8.1,0,0,1,5.77,5.09,9.57,9.57,0,0,1,.54,2.1v0A12.73,12.73,0,0,1,373.7,403.05Z" transform="translate(-145.37 -213.34)"/><path class="cls-9" d="M363.49,405.75a4.48,4.48,0,0,1,.4.36,3.68,3.68,0,0,0,1.8,1,6.77,6.77,0,0,1-3.17-.37,5.22,5.22,0,0,1-3.27-2c-.35-.63-.84-2.34-.48-3s1-.44,1.38.07.42,1.37.91,2A16.35,16.35,0,0,0,363.49,405.75Z" transform="translate(-145.37 -213.34)"/><path class="cls-10" d="M367.28,404.34c.56,0,1.11.07,1.68.08" transform="translate(-145.37 -213.34)"/><path d="M367.28,404.59c.56,0,1.12.07,1.68.08a.25.25,0,0,0,.25-.25.25.25,0,0,0-.25-.25c-.56,0-1.12,0-1.68-.08a.24.24,0,0,0-.25.25.26.26,0,0,0,.25.25Z" transform="translate(-145.37 -213.34)"/><path class="cls-10" d="M367.68,404.58c0,.48.43.62.64.16" transform="translate(-145.37 -213.34)"/><path d="M367.43,404.58a.73.73,0,0,0,.28.61.5.5,0,0,0,.57,0,.82.82,0,0,0,.26-.32.25.25,0,0,0,0-.19.24.24,0,0,0-.11-.15.27.27,0,0,0-.2,0,.27.27,0,0,0-.15.11.39.39,0,0,1-.08.14l0-.05a.3.3,0,0,1-.08.08l0,0-.07,0,.06,0-.07,0H368l-.06,0,.06,0-.06,0,.05,0-.06-.06,0,0a.26.26,0,0,1-.05-.09l0,.06a.83.83,0,0,1,0-.15v0a.25.25,0,0,0-.25-.25.25.25,0,0,0-.25.25Z" transform="translate(-145.37 -213.34)"/><path class="cls-10" d="M371.7,404.18a4,4,0,0,0,1-.08" transform="translate(-145.37 -213.34)"/><path d="M371.7,404.43a4.17,4.17,0,0,0,1.11-.09A.25.25,0,0,0,373,404a.26.26,0,0,0-.31-.18l-.24,0h-.08c-.05,0,0,0,0,0h-.13a2.9,2.9,0,0,1-.51,0,.24.24,0,0,0-.25.25.26.26,0,0,0,.25.25Z" transform="translate(-145.37 -213.34)"/><path class="cls-10" d="M372.34,404.18a.53.53,0,0,0,0,.33.15.15,0,0,0,.21,0" transform="translate(-145.37 -213.34)"/><path d="M372.1,404.11a.58.58,0,0,0,0,.23,1.7,1.7,0,0,0,0,.22v0a.24.24,0,0,0,.06.11l.06,0,0,0a.39.39,0,0,0,.48-.08.26.26,0,0,0,.07-.17.3.3,0,0,0,0-.1.22.22,0,0,0-.05-.08.27.27,0,0,0-.36,0l0,0,.05,0,0,0,.06,0h0l.06,0-.05,0,.12.15a.83.83,0,0,1,0-.15v-.06a.17.17,0,0,0,0-.1.16.16,0,0,0,0-.09.13.13,0,0,0-.06-.07.19.19,0,0,0-.09-.05.26.26,0,0,0-.19,0,.24.24,0,0,0-.11.15Z" transform="translate(-145.37 -213.34)"/><path class="cls-6" d="M354.63,401.3c.81,1,4.54,5.11,2.22,6.88s-10,7-12.32,6.94-6-1.57-6.12-1.91S353.82,400.29,354.63,401.3Z" transform="translate(-145.37 -213.34)"/></g><path class="cls-6" d="M371.52,401.93c-.4.32-.81,4.06-1.37,3.8s-1-2.15-1.65-3.23-7.82-5.69-8-5.69h0c1.36-1.94,3.54-3.67,6.79-2.75a8.1,8.1,0,0,1,5.77,5.09A17.78,17.78,0,0,1,371.52,401.93Z" transform="translate(-145.37 -213.34)"/><path class="cls-11" d="M368.75,408.28a13.15,13.15,0,0,0,2,3.14c.85.68,2.45,1.66,2.45,1.66l-3-5.84S369,407.3,368.75,408.28Z" transform="translate(-145.37 -213.34)"/><path class="cls-12" d="M370.68,404.8s3.7,5,3.11,6.62l-.59,1.66s-4.18-4.14-4.23-5.34S370.14,404.77,370.68,404.8Z" transform="translate(-145.37 -213.34)"/></g><g id="persona"><g id="cabeza_y_cuello" data-name="cabeza y cuello"><path class="cls-13" d="M271,311.41l-28.14,1.28s-3-11.81-2.79-11.67,6.36,3.76,7.47-13.95c0-.17,0-.34,0-.52.05-.95.09-2,.12-3v-.36c0-.25,0-.5,0-.75,0-1.33,0-2.75,0-4.28,0-.15,0-.3,0-.46H258s0,2,.32,4.79l.09.83c.06.58.14,1.17.23,1.78a43.72,43.72,0,0,0,1,5,21.27,21.27,0,0,0,1,2.86,7,7,0,0,0,1.87,2.74,21.66,21.66,0,0,0,3.45,2.16C269.63,299.73,271,311.41,271,311.41Z" transform="translate(-145.37 -213.34)"/><path class="cls-14" d="M249.41,284.3a7.07,7.07,0,0,1-2.6-1.59c0-.34,0-.68,0-1a3.65,3.65,0,0,1,1-.26,27.17,27.17,0,0,1,4.42-.22,12.36,12.36,0,0,1,2.84.37,4.45,4.45,0,0,1,2.39,1.16.44.44,0,0,0,.09-.18c.08.56.15,1.12.23,1.68C256.28,285.9,252.35,285.11,249.41,284.3Z" transform="translate(-145.37 -213.34)"/><path class="cls-14" d="M260.55,292.92a2.93,2.93,0,0,1-.29-.05c-1.28-.3-2.64-1.74-3.84-2.53q-2.18-1.47-4.37-2.9c-1.58-1.06-3.23-2-4.4-4.29a11.53,11.53,0,0,1-.66-1.6c0-1.36,0-2.75.07-4.16.19.25.38.5.57.73,2.14,2.66,4.46,4.38,6.84,5a4.08,4.08,0,0,0,3.83-.67l.09.83c.06.58.14,1.17.23,1.78a43.72,43.72,0,0,0,1,5A21.27,21.27,0,0,0,260.55,292.92Z" transform="translate(-145.37 -213.34)"/><path class="cls-13" d="M265.78,272.9a14.45,14.45,0,0,1-1.35,3.59,6.65,6.65,0,0,1-.33.58,28.23,28.23,0,0,1-5.92,6.64,2,2,0,0,1-.37.52l0,0a3.65,3.65,0,0,1-2.53.94,7.3,7.3,0,0,1-1.14,0,17.61,17.61,0,0,1-3.06-.47h0c-.56-.13-1.11-.27-1.63-.41a7.07,7.07,0,0,1-2.6-1.59,31.11,31.11,0,0,1-5.27-6.56c-.36-.58-.67-1.12-.93-1.6-.08-.13-.14-.25-.2-.37l-.06-.11a3.05,3.05,0,0,1-.22-.59c-.74-2.38-.82-8-.84-13.08h0c0-1,0-2,0-2.95,0-1.88,0-3.55-.09-4.72-.3-5,9.06-10.52,9.06-10.52l7.31-2s7.6,2.93,10.23,8.48S267,267.93,265.78,272.9Z" transform="translate(-145.37 -213.34)"/><path class="cls-15" d="M241.67,257.28a8.25,8.25,0,0,1,3.09-.72,7.93,7.93,0,0,0,1.75.12c1.49-.25,2.52-2.27,4-2.2a24.51,24.51,0,0,1,4.88,1.86,6.9,6.9,0,0,1,2.11,1.48c.41.48.74,1.06,1.12,1.57A8.63,8.63,0,0,0,266,262.5c1.41,0,3-.2,4,.95a2.77,2.77,0,0,1-.05-2.4,2.1,2.1,0,0,0,.25-.67,1.93,1.93,0,0,0-.5-1.15c-1-1.55-.44-3.88-1.37-5.48a4.82,4.82,0,0,1-.58-1.07,7.51,7.51,0,0,1,0-1.89,4.42,4.42,0,0,0-1.16-2.52,57.07,57.07,0,0,0-5.89-6.49,4.48,4.48,0,0,0-1.48-1c-.9-.31-1.88,0-2.82-.13s-2.06-1-3.12-.83c-1.37.23-2.1,1.94-2.61,3.43a3.91,3.91,0,0,0-3.37-.88c-2.19.5-3.78,2.88-6,3.43a2.25,2.25,0,0,0-.89.34c-.54.43-.55,1.34-.85,2-.5,1.09-1.82,1.61-2,2.83a6.76,6.76,0,0,1-.51,2.46c-.41.88-.84,1.33-.47,2.39C237.55,258.1,240,257.86,241.67,257.28Z" transform="translate(-145.37 -213.34)"/><path class="cls-16" d="M241.62,255.47a8.57,8.57,0,0,1,3.16-.7,8.38,8.38,0,0,0,1.8.11c1.53-.24,2.59-2.19,4.14-2.13a26.67,26.67,0,0,1,5,1.8,6.93,6.93,0,0,1,2.16,1.44c.43.46.76,1,1.15,1.51,1.82,2.3,4.81,3.08,7.59,3,1.44,0,3.1-.2,4.12.92a2.58,2.58,0,0,1-.05-2.33,2.21,2.21,0,0,0,.26-.64c0-.42-.28-.77-.52-1.11-1-1.5-.45-3.76-1.4-5.3a4.27,4.27,0,0,1-.6-1,7,7,0,0,1,0-1.83,4.12,4.12,0,0,0-1.19-2.43,56.08,56.08,0,0,0-6-6.28,4.67,4.67,0,0,0-1.52-1c-.93-.31-1.93,0-2.89-.13s-2.11-1-3.2-.8c-1.4.23-2.16,1.88-2.67,3.32a4.19,4.19,0,0,0-3.46-.85c-2.25.48-3.89,2.78-6.13,3.31a2.41,2.41,0,0,0-.91.32c-.55.42-.56,1.3-.88,1.95-.51,1.06-1.86,1.55-2,2.73a6,6,0,0,1-.52,2.38c-.42.85-.86,1.29-.48,2.31C237.39,256.26,239.92,256,241.62,255.47Z" transform="translate(-145.37 -213.34)"/><g class="cls-17"><path d="M255.48,281.76v.08" transform="translate(-145.37 -213.34)"/><path class="cls-15" d="M255.36,281.76v.08a.14.14,0,0,0,0,.09s.06,0,.09,0a.14.14,0,0,0,.09,0,.18.18,0,0,0,0-.09v-.08a.14.14,0,0,0-.13-.13l-.09,0a.14.14,0,0,0,0,.09Z" transform="translate(-145.37 -213.34)"/></g><path class="cls-15" d="M250.82,277.61a33.57,33.57,0,0,1,5,1.24" transform="translate(-145.37 -213.34)"/><path class="cls-18" d="M250.69,278.09c.83.19,1.67.34,2.51.53a12.82,12.82,0,0,1,2.35.66.52.52,0,0,0,.69-.17.51.51,0,0,0-.18-.69,28.76,28.76,0,0,0-5.11-1.29c-.62-.15-.89.81-.26,1Z" transform="translate(-145.37 -213.34)"/><path class="cls-19" d="M263.16,276.39a11.24,11.24,0,0,0-2.82-.53c-.88-.15-1.75-.26-2.65-.34l-1.83-.15c-.22,0-1.75-.14-2.93-.15a1.13,1.13,0,0,0-.45-.09l-6.67-.43c-1.27-.08-3.9-.77-5.2-.15a33.09,33.09,0,0,0,6.2,8.16,7.07,7.07,0,0,0,2.6,1.59c.52.14,1.07.28,1.63.41h0a17.61,17.61,0,0,0,3.06.47,7.3,7.3,0,0,0,1.14,0,3.65,3.65,0,0,0,2.53-.94l0,0a2,2,0,0,0,.37-.52,28.23,28.23,0,0,0,5.92-6.64A2.67,2.67,0,0,0,263.16,276.39ZM257,280.47a1.88,1.88,0,0,1-1.07,1,2.48,2.48,0,0,1-1.13-.17q-.11-.31-.24-.63a1.58,1.58,0,0,0-1-1c-.78-.14-1.32.74-1.62,1.48a1.9,1.9,0,0,1-1.77-.68,3.25,3.25,0,0,1-1.09-2.05,1.77,1.77,0,0,1,1.17-1.85,3.47,3.47,0,0,1,1.36.05,2.74,2.74,0,0,0,.5,0c.58.12,1.24,0,1.85.13.16,0,.32.07.49.09a7.72,7.72,0,0,1,2,.21,2,2,0,0,1,1.18,1.05A2.85,2.85,0,0,1,257,280.47Z" transform="translate(-145.37 -213.34)"/><path class="cls-20" d="M255,265.54c.85,1.43.77,3.29,1,4.89.08.47.42,1.28,0,1.66a3,3,0,0,1-2.52.51.5.5,0,0,0-.27,1,4,4,0,0,0,3.16-.51,1.88,1.88,0,0,0,.75-2.17c-.18-1-.28-2-.42-3a7.43,7.43,0,0,0-.84-2.88.5.5,0,0,0-.86.51Z" transform="translate(-145.37 -213.34)"/><path class="cls-21" d="M252.91,271.09a.5.5,0,0,0,0-1,.5.5,0,0,0,0,1Z" transform="translate(-145.37 -213.34)"/><path class="cls-22" d="M245,258.81a8.63,8.63,0,0,1-1.78,2.4,6.64,6.64,0,0,0-1,5.76c.17.58.42,1.11.58,1.7a5.42,5.42,0,0,1-.29,3.47c-.38.82-2.2,3-2.54,1.34-.59-2.38-.65-8-.66-13.09,0-1,0-2,0-2.95a6.59,6.59,0,0,0,2.65-.29c.13,0,.26-.12.39-.16.68-.22,1.19.27,1.8.49C245,257.79,245.14,258.28,245,258.81Z" transform="translate(-145.37 -213.34)"/><path class="cls-23" d="M243.66,277.63c.11.31.22.63.34.94a6.44,6.44,0,0,0,.3.72,3.77,3.77,0,0,0,.63.89,4.45,4.45,0,0,0,1.71,1.19,1,1,0,0,0,.5.1.23.23,0,0,0,.14,0,.58.58,0,0,0,.1-.12,1.08,1.08,0,0,0,.12-.53,2.14,2.14,0,0,0-.33-.88l-.5-.87c-.1-.18-.2-.35-.31-.52a3.82,3.82,0,0,1-.31-.47,5.61,5.61,0,0,1-.34-1,1.92,1.92,0,0,0-.51-.9,1.53,1.53,0,0,0-1-.3,1.17,1.17,0,0,0-.46.07c-.25.12-.48.49-.31.76a.86.86,0,0,1,.08.36A2.41,2.41,0,0,0,243.66,277.63Z" transform="translate(-145.37 -213.34)"/><path class="cls-20" d="M247,262.88a2.52,2.52,0,0,1,1.18.55,3.68,3.68,0,0,0,1.34.56,5.55,5.55,0,0,0,3.05-.16.38.38,0,0,0-.2-.73,5,5,0,0,1-2.88.12c-.91-.2-1.52-1-2.49-1.09-.48,0-.48.72,0,.75Z" transform="translate(-145.37 -213.34)"/><path class="cls-20" d="M259,265.11c1.55.58,3.26,1.67,4.9.71a.37.37,0,0,0-.38-.64c-1.39.8-3-.3-4.32-.79a.37.37,0,1,0-.2.72Z" transform="translate(-145.37 -213.34)"/></g><g id="piernas"><path class="cls-13" d="M296,429.56s-15.89,46.58-14.8,48.51a53.52,53.52,0,0,0,4.36,5.71s-10.28,3.37-10.67,3.21-4.52-6.75-4.52-6.75l3.48-50s3.76-4.7,4.62-4.7H292Z" transform="translate(-145.37 -213.34)"/><path class="cls-13" d="M257.66,486.64l-11.12-1.29a36.11,36.11,0,0,0,4.71-8.5c1.7-4.13-8.44-28.59-13.61-40.54l-.61-1.4c-1.25-2.88-2.11-4.79-2.26-5.12a.06.06,0,0,1,0,0h0v0l2-5.07,15.84-5.71,4.72,7.91s.31,2.65.79,6.78c0,0,0,.05,0,.07,0,.38.09.77.13,1.17,1.42,11.93,4,33.91,5.2,42.62.24,1.75.41,3,.52,3.45C264.74,484.8,257.66,486.64,257.66,486.64Z" transform="translate(-145.37 -213.34)"/><path class="cls-24" d="M265.21,482.11a5.14,5.14,0,0,1-1.46-.08,4.8,4.8,0,0,1-3.51-3.52c-.48-1.33-1-2.66-1.46-4a22.76,22.76,0,0,1-1.15-3.9c-.35-2.24.08-4.51-.25-6.75-.4-2.74-1.92-5.39-2.86-8.08a40,40,0,0,1-1.65-7.38c-.32-2.12-.65-4.22-1-6.34-.22-1.45-1.43-4-.7-5.36.95-1.79,4.05-1.72,6.5-1.16l.45.12C259.94,448,263.55,472.56,265.21,482.11Z" transform="translate(-145.37 -213.34)"/><path class="cls-24" d="M270.35,479.09a3.34,3.34,0,0,0,1.17-.12c1.7-.5,2.29-2.18,2.63-3.61s.63-2.68,1-4a25.33,25.33,0,0,0,.72-3.91c.16-2.26-.3-4.5-.16-6.76.18-2.74,1.26-5.43,1.87-8.14a47.81,47.81,0,0,0,.93-7.41l.45-6.35c.1-1.46.94-4,.28-5.38-.86-1.75-3.35-1.6-5.28-1a3,3,0,0,0-.36.13C272.77,444.85,271.18,469.51,270.35,479.09Z" transform="translate(-145.37 -213.34)"/><path class="cls-25" d="M244.49,486.2a45.63,45.63,0,0,0-6.67,10.37,40.6,40.6,0,0,0-2.21,8,5,5,0,0,0,0,3,3.35,3.35,0,0,0,2.11,1.7,10.3,10.3,0,0,0,2.77.33l3.68.09a7.17,7.17,0,0,0,2.53-.24,7.09,7.09,0,0,0,2.13-1.3,47.16,47.16,0,0,0,7.63-6.89,47.79,47.79,0,0,0,3-4.27c2.06-3.13,4.12-6.27,6-9.49a8.16,8.16,0,0,0,1.31-3.17,2.92,2.92,0,0,0-1.36-2.94.52.52,0,0,0-.32-.07c-.17,0-.26.21-.35.37a8,8,0,0,1-5.09,3.75,24.61,24.61,0,0,1-6.47.57,3.53,3.53,0,0,1-2.29-.56,2.79,2.79,0,0,1-.74-1.16,8.56,8.56,0,0,1-.5-2.4,4.63,4.63,0,0,1-.06-1.11,3.52,3.52,0,0,1,.42-1.09l.26-.51a.42.42,0,0,0-.32.1,3.45,3.45,0,0,0-1.29,1.49,7.66,7.66,0,0,1-1.28,1.7C246.49,483.68,245.49,484.94,244.49,486.2Z" transform="translate(-145.37 -213.34)"/><path class="cls-25" d="M269.43,487.66a11,11,0,0,0,.17,2.22,9.36,9.36,0,0,0,.76,2,32.14,32.14,0,0,0,6.75,9.07c1.24,1.16,2.58,2.23,3.76,3.46,1.58,1.63,2.91,3.57,4.83,4.78,2.8,1.78,6.35,1.7,9.67,1.56.42,0,.92-.07,1.13-.44a1.41,1.41,0,0,0,.08-.84c-.14-1.71.49-3.4.54-5.11.08-2.76-1.33-5.3-2.7-7.69L291.74,492l-3.33-5.8-1.66-2.9-.42-.73c-.1-.17-.26-.23-.42-.35a8.77,8.77,0,0,1-1.14-1c-.37-.36-.7-.74-1.08-1.08a6,6,0,0,1-.45-.43c-.18-.19-.32-.41-.51-.58a3.91,3.91,0,0,0-.41-.3,6,6,0,0,1-.81-.79c.08.4.27.77.37,1.17a8.84,8.84,0,0,0,.27,1.13,4,4,0,0,1,.12,1.84,2.74,2.74,0,0,1-.71,1.56,3.15,3.15,0,0,1-1.28.73,6.8,6.8,0,0,1-4.57-.42,19.27,19.27,0,0,1-2.18-1.09,7.35,7.35,0,0,0-1-.61,2.63,2.63,0,0,1-.84-.33,1.81,1.81,0,0,1-.37-.41l-.53-.69a1.37,1.37,0,0,1-.42-1.16.29.29,0,0,0-.35,0,.85.85,0,0,0-.18.32,11.08,11.08,0,0,0-.31,3.5C269.42,485,269.43,486.31,269.43,487.66Z" transform="translate(-145.37 -213.34)"/><path class="cls-26" d="M236.79,413.36c1.3.45,2.9-.24,4.17.21" transform="translate(-145.37 -213.34)"/><path class="cls-27" d="M236.62,414a5.82,5.82,0,0,0,2.2.14c.35,0,.7-.06,1.06-.06a2.42,2.42,0,0,1,.92.13.63.63,0,0,0,.77-.43.64.64,0,0,0-.44-.77,5.48,5.48,0,0,0-2.17-.14c-.36,0-.71.06-1.06.06a2.39,2.39,0,0,1-1-.14.63.63,0,0,0-.33,1.21Z" transform="translate(-145.37 -213.34)"/><path class="cls-26" d="M242.79,414a9.68,9.68,0,0,0,3,.21" transform="translate(-145.37 -213.34)"/><path class="cls-27" d="M242.62,414.6a10.54,10.54,0,0,0,3.17.24.63.63,0,0,0,.62-.63.62.62,0,0,0-.62-.62c-.5,0-1,0-1.5,0l-.36,0h-.3c.05,0,0,0,0,0l-.11,0-.17,0-.38-.1a.63.63,0,0,0-.77.43.64.64,0,0,0,.44.77Z" transform="translate(-145.37 -213.34)"/><path class="cls-26" d="M234.75,412.18a35.26,35.26,0,0,0,3.54,1.28" transform="translate(-145.37 -213.34)"/><path class="cls-27" d="M234.43,412.72a37.91,37.91,0,0,0,3.69,1.35.63.63,0,0,0,.77-.44.64.64,0,0,0-.44-.77l-1.76-.59a15.68,15.68,0,0,1-1.62-.63.65.65,0,0,0-.86.22.64.64,0,0,0,.22.86Z" transform="translate(-145.37 -213.34)"/><path class="cls-28" d="M293.55,436.78l-20-4.23s0-.08.05-.24c.35-1.83,2.63-13.61,2.82-16.6.13-2-4.82-9.27-8.56-14.44-2.26-3.12-4.08-5.48-4.08-5.48l-.91,4c-1.29,5.69-3.58,16-4.55,21.44-.14.77-.25,1.44-.33,2a2.48,2.48,0,0,0,0,.27,20.32,20.32,0,0,0,1,9.51c.15.41.25.63.25.63l-1.12.07L237,434.91l-1.54.09s-.3-2.12-.72-5.21a.06.06,0,0,1,0,0v0c-.51-3.66-1.18-8.67-1.72-13.1,0-.29-.13-.87-.22-1.54a13.23,13.23,0,0,1-.18-2.72c.08-.63,2.24-16.25,3.87-28,.06-.47.13-.93.19-1.38L238,373.8c.16-1.17.27-1.94.31-2.21l47.52-1.52s.55,1.73,1.42,4.53c.56,1.79,1.24,4,2,6.5,0,.08.05.17.08.25,3.62,11.74,8.86,29.12,9.82,34.36C300.64,423.86,293.55,436.78,293.55,436.78Z" transform="translate(-145.37 -213.34)"/><path class="cls-29" d="M279.48,417.1a5.52,5.52,0,0,0-.08,2.71,5.45,5.45,0,0,0,.29,1.33,5.94,5.94,0,0,1,.45,1,2.72,2.72,0,0,1-.17,1.38c-1,3.13-2.54,6.25-5.23,8.13a5.61,5.61,0,0,1-1.13.62c.35-1.83,2.63-13.61,2.82-16.6.13-2-4.82-9.27-8.56-14.44.7-.1,1.47-.12,2.18-.16,1.77-.1,3.85.69,4.23,2.42a16.44,16.44,0,0,0,.24,2.55,7.49,7.49,0,0,0,.92,1.35,13,13,0,0,1,1.13,3,3.19,3.19,0,0,0,2.07,2.22c-.67,0-1,1-.61,1.54a2.49,2.49,0,0,0,1.7,1,4.27,4.27,0,0,1,1.87.69A1.9,1.9,0,0,0,279.48,417.1Z" transform="translate(-145.37 -213.34)"/><path class="cls-30" d="M259,433h0c-1.69-.69-3.56-1.64-4-3.4-.28-1.07,0-2.21-.19-3.29-.33-1.76-1.89-3-2.83-4.5-.15-.25-.29-.6-.09-.82a.92.92,0,0,1,.55-.2,2.32,2.32,0,0,0,1.64-2.39,4.79,4.79,0,0,0-1.32-2.8l.93-.49a14,14,0,0,0-2.62-2,10.76,10.76,0,0,0,3.44.15,3.57,3.57,0,0,0,2.73-1.89c.18-.4.26-.85.44-1.25a9.51,9.51,0,0,1,1.38-1.74,2.2,2.2,0,0,0,.57-2.05.85.85,0,0,1-.11-.48c0-.18.23-.27.4-.35a2.42,2.42,0,0,0,1.51-1.35c.29-1-.73-1.91-1.63-2.46q-1.9-1.15-3.92-2.11c1.19.57,4,.08,5.34.08a4.81,4.81,0,0,1,1.77.19c-1.29,5.69-3.58,16-4.55,21.44-.14.77-.25,1.44-.33,2a2.48,2.48,0,0,0,0,.27A20.32,20.32,0,0,0,259,433Z" transform="translate(-145.37 -213.34)"/></g><g id="torzo"><path class="cls-31" d="M287.23,374.6c-.3.77-.76,1-1.42.53-7.28-5.08-42.38,5.15-46.64,2-.47-.35-.87-1.52-1.19-3.34a89.35,89.35,0,0,1-1-10.27c-.21-3.76-.36-8.06-.45-12.6-.42-21.32.55-49.56.55-49.56l8.1-2.92S259.63,309.23,265,297l11.83,5.5s7.2,34.48,9.86,56c.52,4.2.86,7.91.94,10.77A15.73,15.73,0,0,1,287.23,374.6Z" transform="translate(-145.37 -213.34)"/><path class="cls-32" d="M241.32,338.27c3.45.48,6.79,2.28,10.18,3.42,9.67,3.27,19.64,1.24,29.47,2.16,4,.39,8.8,2.21,10.29,8.79,1.28,5.62-.52,12.28.72,17.93a28.38,28.38,0,0,1,.73,3.37,8.24,8.24,0,0,1-2.42,6.87c-1.5,1.22-3.22,1.22-4.88,1.21l-24.28-.24c-3.73,0-7.51-.06-11.14,1.48-2.53,1.07-5,2.91-7.59,3.17-4.3.43-8.54-3.5-12.8-2.35.35-8.91.85-17.79,1.36-26.67.24-4.18-.25-12.44,1.35-15.71C234.13,338,238.83,337.92,241.32,338.27Z" transform="translate(-145.37 -213.34)"/><path class="cls-13" d="M291.42,325.34l1,47.78-9.52,35.2-1.17,7.39s-5.9,5.55-10.34,2.74-8.1-6.75-4.82-8a56,56,0,0,0,7.9-4.34l7.43-33.78L279.77,324h6.3Z" transform="translate(-145.37 -213.34)"/><path class="cls-33" d="M360,215.12c-4.45,17.55-15.23,32.48-22.46,48.87-7.84,17.77-14.33,36.1-23.33,53.35-8.81,16.9-15,35-24.13,51.79-4.42,8.14-8.15,16.58-11.81,25.09s-7.36,17-12.05,25.07a49.27,49.27,0,0,1-7.8,10c-3,2.94-6.12,5.64-9.11,8.54-3.38,3.27-6.43,6.88-9.64,10.31-3.41,3.66-6.86,7.27-10.25,10.95-1.71,1.85-3.4,3.71-5.07,5.6a2.57,2.57,0,0,0,0,3.54,2.54,2.54,0,0,0,3.54,0c6.69-7.57,13.8-14.75,20.56-22.26,5.71-6.33,12.7-11.45,18-18.15,5.73-7.26,9.56-16.1,13.27-24.51s7.26-17.23,11.45-25.59c2.09-4.18,4.42-8.23,6.5-12.42s4.15-8.75,6.11-13.18c3.88-8.81,7.56-17.7,11.76-26.36,2.08-4.29,4.35-8.48,6.42-12.77s4.09-8.77,6-13.22c3.92-9.06,7.59-18.24,11.38-27.36,3.51-8.45,7.63-16.53,11.94-24.6s8.61-16.3,11.62-25q1.08-3.15,1.91-6.39c.79-3.12-4-4.45-4.82-1.33Z" transform="translate(-145.37 -213.34)"/><path class="cls-13" d="M270.64,415.61c-1.28.43-6-.65-7.93-1.38s-4.6-4.3-4.6-4.3l-28.34-31.12-.39-3.34-5.85-49.76,1.68-1.75,1.4-1.46,10.6,1.5s1.08,46.07,5,51.49,21.1,27.9,21.1,27.9a9.13,9.13,0,0,0,3.92,1.4c2,.1,8,5.46,8.4,7.39S271.93,415.18,270.64,415.61Z" transform="translate(-145.37 -213.34)"/><path class="cls-31" d="M289.72,309c.45,2.54,1.92,17.72,1.92,17.72l-13.45.72-2.49-25.68S289.27,306.47,289.72,309Z" transform="translate(-145.37 -213.34)"/><path class="cls-31" d="M224.52,308.79s-1.23,15-1,16.92,15.64,1.72,15.64,1.72l-1-26.3S227.74,303,224.52,308.79Z" transform="translate(-145.37 -213.34)"/><g class="cls-34"><path d="M238.71,412.5c2.9.08,6.56-1.79,9,.43" transform="translate(-145.37 -213.34)"/><path d="M238.71,413.12a30.78,30.78,0,0,0,4.49-.56,5,5,0,0,1,4.07.81c.6.53,1.49-.35.89-.88-2.76-2.42-6.27-.56-9.45-.62a.63.63,0,0,0,0,1.25Z" transform="translate(-145.37 -213.34)"/></g><g class="cls-34"><path d="M298.39,415.93a30.45,30.45,0,0,0-5.36-.86" transform="translate(-145.37 -213.34)"/><path d="M298.55,415.33a34.3,34.3,0,0,0-5.52-.88.63.63,0,0,0,0,1.25,32.61,32.61,0,0,1,5.19.83.65.65,0,0,0,.77-.44.62.62,0,0,0-.44-.76Z" transform="translate(-145.37 -213.34)"/></g><g class="cls-17"><path d="M212.57,354" transform="translate(-145.37 -213.34)"/><path d="M212.57,354.62a.63.63,0,0,0,0-1.25.63.63,0,0,0,0,1.25Z" transform="translate(-145.37 -213.34)"/></g><path class="cls-35" d="M361.09,217.71c0,10.78,4.13,21.35,7.49,31.43a174.36,174.36,0,0,1,8.12,34.47c1.55,13,.88,26,1.78,39,.95,13.59,2.78,27.09,4.72,40.57,3.91,27.07,7.41,54.21,11.92,81.19,2.31,13.75,5.61,27.43,6,41.42.36,13.43-.78,26.85-.13,40.29,1.36,27.87,1.3,55.79,1.27,83.69,0,3.45,0,6.89,0,10.33a.63.63,0,0,0,1.25,0c0-27.92.2-55.86-.82-83.77-.25-6.74-.69-13.46-.69-20.2s.29-13.59.4-20.38a164.49,164.49,0,0,0-.67-20.22c-.72-6.65-2.19-13.21-3.36-19.8-4.78-27-8.31-54.18-12.25-81.32-2-13.86-4.12-27.72-5.5-41.66-.66-6.75-1.16-13.52-1.39-20.31s-.06-13.34-.46-20a163.57,163.57,0,0,0-6.2-35c-3.05-10.67-7.5-21-9.46-31.95a44.77,44.77,0,0,1-.74-7.84.63.63,0,0,0-1.25,0Z" transform="translate(-145.37 -213.34)"/><path class="cls-35" d="M543.52,231.1c0,10.77,4.14,21.34,7.5,31.42A175.23,175.23,0,0,1,559.14,297c1.55,13,.87,26,1.78,39,1,13.59,2.77,27.09,4.72,40.57,3.9,27.07,7.4,54.21,11.92,81.2,2.3,13.75,5.61,27.43,6,41.41.35,13.43-.78,26.85-.13,40.29,1.35,27.88,1.29,55.79,1.26,83.7v10.32a.63.63,0,0,0,1.25,0c0-27.92.2-55.86-.82-83.77-.25-6.74-.7-13.46-.69-20.2s.29-13.58.4-20.38a162.32,162.32,0,0,0-.68-20.21c-.71-6.66-2.18-13.22-3.35-19.8-4.79-27-8.32-54.19-12.26-81.33-2-13.86-4.11-27.71-5.49-41.65-.67-6.76-1.16-13.53-1.4-20.32s-.06-13.34-.46-20a163.06,163.06,0,0,0-6.2-35c-3-10.67-7.49-21-9.45-31.95a43.81,43.81,0,0,1-.75-7.83.63.63,0,0,0-1.25,0Z" transform="translate(-145.37 -213.34)"/><path class="cls-31" d="M232.42,296.46" transform="translate(-145.37 -213.34)"/><path class="cls-36" d="M238,320.57c0,1.29,0,2.57,0,3.86s-.47,2.33-.32,3.53" transform="translate(-145.37 -213.34)"/><path class="cls-37" d="M237.84,320.57c0,1.29,0,2.57,0,3.86a26.31,26.31,0,0,0-.32,3.53c0,.16.26.16.25,0a28.06,28.06,0,0,1,.32-3.53c0-1.29,0-2.57,0-3.86a.13.13,0,0,0-.25,0Z" transform="translate(-145.37 -213.34)"/><path class="cls-36" d="M279.59,322.66c0,1.55.63,3.18.16,4.66" transform="translate(-145.37 -213.34)"/><path class="cls-37" d="M279.46,322.66c0,1.54.63,3.11.17,4.63-.05.15.19.22.24.06.47-1.54-.13-3.13-.16-4.69a.13.13,0,0,0-.25,0Z" transform="translate(-145.37 -213.34)"/><path class="cls-37" d="M247.12,360c4.7-2,10.13-1.17,15-.08a.12.12,0,0,0,.06-.24c-4.9-1.11-10.37-1.95-15.15.1-.14.07,0,.28.13.22Z" transform="translate(-145.37 -213.34)"/><path class="cls-37" d="M251.31,336.51c1.82,1.41,4.26,1.61,6.49,1.62a.13.13,0,0,0,0-.25c-2.19,0-4.58-.2-6.37-1.59-.13-.1-.25.12-.12.22Z" transform="translate(-145.37 -213.34)"/><path class="cls-37" d="M262,365c5-1.85,10.68-1.51,15.89-1.13.16,0,.16-.23,0-.25-5.23-.38-10.94-.71-16,1.13-.15.06-.08.3.07.25Z" transform="translate(-145.37 -213.34)"/><path class="cls-37" d="M227.36,308.86a4.89,4.89,0,0,1,2.16.35,5.13,5.13,0,0,1,1.82,1.11c.46.45,1.17-.26.71-.71a6.34,6.34,0,0,0-2.21-1.34,5.57,5.57,0,0,0-2.48-.41.5.5,0,0,0,0,1Z" transform="translate(-145.37 -213.34)"/><path class="cls-37" d="M281.49,309.48a13.6,13.6,0,0,1,4.15-.62.5.5,0,0,0,0-1,14.44,14.44,0,0,0-4.42.66.5.5,0,0,0,.27,1Z" transform="translate(-145.37 -213.34)"/><path class="cls-38" d="M231.53,378.42a9.76,9.76,0,0,1-2.15-.86l-5.85-49.76,1.68-1.75.12.1a4.67,4.67,0,0,1,1.25,1.41A5.44,5.44,0,0,1,227,330c.18,8.79,1,17.56,1.76,26.32a39.51,39.51,0,0,0,.63,4.73,37.72,37.72,0,0,1,1,4.56c.09,1.07,0,2.16.14,3.23a33.45,33.45,0,0,0,1.45,4.76A5.49,5.49,0,0,1,231.53,378.42Z" transform="translate(-145.37 -213.34)"/><path class="cls-39" d="M231.73,310a11.25,11.25,0,0,0,4.53-2.15,24.2,24.2,0,0,1,2.19-1.81,19.75,19.75,0,0,1,4.15-1.61A16.75,16.75,0,0,0,247,302a1.7,1.7,0,0,0,.5-.5.91.91,0,0,0,0-.63,2.89,2.89,0,0,0-1.25-2c-2.89-1.59-8.55,2.59-11.37,4.11a10.63,10.63,0,0,0-3.27,2.45C231.09,306.11,230.42,310.24,231.73,310Z" transform="translate(-145.37 -213.34)"/><path class="cls-39" d="M226.27,323.79a7.57,7.57,0,0,0,1.12-3.24,16.05,16.05,0,0,1,.17-1.94,13.31,13.31,0,0,1,1.19-2.79,11.56,11.56,0,0,0,1-3.27,1.09,1.09,0,0,0,0-.48.55.55,0,0,0-.3-.3,1.94,1.94,0,0,0-1.57-.35c-2.16.65-2.83,5.41-3.43,7.51a6.94,6.94,0,0,0-.37,2.77C224.09,322.26,225.79,324.57,226.27,323.79Z" transform="translate(-145.37 -213.34)"/></g></g><g id="foca"><path class="cls-40" d="M486.86,459.43a15.3,15.3,0,0,1-2.4,1.44,18.43,18.43,0,0,1-19-1.44c-9,18-15.64,18-15.64,18s-4.93-35.57-16.08-50.14a33.51,33.51,0,0,0-4.36-4.73c-9.42-8.46-17.85-6.37-23.06-37.06-6-35.36,6.42-60.87,6.42-60.87.86-5.34,7.72-31.81,31.72-18.79,7.61,6.21-2.57,16.87,6,32.3S465,379.57,460.29,400a77.15,77.15,0,0,0-2.08,19.5c.32,10.72,3.32,18.59,7.22,21.93,4.86,4.16,15.9,13.39,19.93,16.74C486.3,459,486.86,459.43,486.86,459.43Z" transform="translate(-145.37 -213.34)"/><g id="cara"><ellipse cx="293.02" cy="101.65" rx="1.91" ry="2.37"/><ellipse cx="279.36" cy="100.53" rx="1.91" ry="2.37"/><path d="M429.7,318.36c-1,0-2.16-.29-2.78.5a9,9,0,0,0-.62,3c.35.88,3.42,2.91,4.37,2.76s1.08-1.09,1.78-1.79c.44-.44.85,0,1.24-.62a4,4,0,0,0,.19-1.78c-.43-2.35-2.65-2.4-4.67-2.41" transform="translate(-145.37 -213.34)"/><path d="M429.7,317.86c-1,0-2.27-.28-3.07.57a4.14,4.14,0,0,0-.67,1.95c-.11.58-.35,1.35,0,1.89a5.88,5.88,0,0,0,1.68,1.54,8.65,8.65,0,0,0,2.22,1.19,1.87,1.87,0,0,0,2.17-.7c.25-.34.45-.89.81-1.13a1.93,1.93,0,0,1,.54-.12,1.17,1.17,0,0,0,.64-.42,2.33,2.33,0,0,0,.38-1.34,3.74,3.74,0,0,0-.1-1.29c-.63-2.3-3.08-2.46-5.08-2.47a.5.5,0,0,0,0,1c1.26,0,3.13-.09,3.88,1.16a2.85,2.85,0,0,1,.24,2.07c-.09.37-.29.31-.61.39a1.82,1.82,0,0,0-1,.85,6.15,6.15,0,0,1-.62.89.87.87,0,0,1-.42.23.51.51,0,0,1-.22,0,5.39,5.39,0,0,1-1.72-.8,8.21,8.21,0,0,1-1.63-1.25l-.2-.22s-.15-.28-.09-.14,0,.06,0,0,0-.1,0-.15a2.58,2.58,0,0,1,0-.4c.06-.38.14-.76.23-1.13,0-.17.09-.34.14-.51s0-.12.05-.18.09-.21,0-.12c.41-.7,1.75-.37,2.41-.36a.5.5,0,0,0,0-1Z" transform="translate(-145.37 -213.34)"/><path d="M431,325.39c.48,1.66,1.5,2.81,3.38,2.57" transform="translate(-145.37 -213.34)"/><path d="M430.5,325.53a4.48,4.48,0,0,0,1.3,2.22,3.32,3.32,0,0,0,2.56.71.5.5,0,0,0,0-1,3.76,3.76,0,0,1-.67,0h-.13c-.14,0,.1,0,0,0a1.4,1.4,0,0,1-.28-.06l-.25-.08h0l-.07,0-.11-.05-.23-.14-.09-.07,0,0a2.6,2.6,0,0,1-.36-.38c-.07-.08,0,.07,0,0l-.07-.1a1.58,1.58,0,0,1-.15-.24c-.05-.09-.1-.18-.14-.27a.37.37,0,0,1-.05-.11c-.06-.13,0,.09,0,0s-.15-.4-.21-.6a.5.5,0,1,0-1,.27Z" transform="translate(-145.37 -213.34)"/><path d="M430.66,325.07a7.41,7.41,0,0,1-4.82,1.93" transform="translate(-145.37 -213.34)"/><path d="M430.31,324.72a6.93,6.93,0,0,1-2.05,1.28,5.48,5.48,0,0,1-2.42.5.5.5,0,0,0-.5.5.51.51,0,0,0,.5.5,6.22,6.22,0,0,0,2.75-.56,8,8,0,0,0,2.42-1.52c.48-.43-.23-1.14-.7-.7Z" transform="translate(-145.37 -213.34)"/><path d="M437.41,318.8a2.47,2.47,0,0,0,1.45,1" transform="translate(-145.37 -213.34)"/><path d="M437,319.06a3.38,3.38,0,0,0,.81.79,3,3,0,0,0,.93.4.51.51,0,0,0,.62-.35.5.5,0,0,0-.35-.61l-.4-.13.12,0a3,3,0,0,1-.54-.32l.1.08a2.73,2.73,0,0,1-.48-.48l.08.1,0,0a.53.53,0,0,0-.3-.23.5.5,0,0,0-.38.05.5.5,0,0,0-.23.3.49.49,0,0,0,.05.39Z" transform="translate(-145.37 -213.34)"/><path d="M437.41,319.12c.54.5,1.1.91,1.61,1.45" transform="translate(-145.37 -213.34)"/><path d="M437.06,319.48c.53.49,1.11.92,1.6,1.44a.5.5,0,0,0,.71,0,.5.5,0,0,0,0-.7c-.49-.53-1.08-1-1.61-1.45a.5.5,0,1,0-.7.71Z" transform="translate(-145.37 -213.34)"/><path d="M438.05,319.29a3.18,3.18,0,0,0,1,.16" transform="translate(-145.37 -213.34)"/><path d="M437.92,319.77a3.43,3.43,0,0,0,1.1.18.51.51,0,0,0,.35-.15.5.5,0,0,0,0-.71A.52.52,0,0,0,439,319a2.6,2.6,0,0,1-.4,0l.13,0a2.7,2.7,0,0,1-.56-.14.5.5,0,0,0-.57.74.58.58,0,0,0,.3.23Z" transform="translate(-145.37 -213.34)"/><path d="M425.52,317.52a8,8,0,0,0-2.73.16" transform="translate(-145.37 -213.34)"/><path d="M425.52,317a7.9,7.9,0,0,0-2.87.18.52.52,0,0,0-.35.61.51.51,0,0,0,.62.35l.32-.1.15,0h.07a5.07,5.07,0,0,1,.68,0c.46,0,.92,0,1.38,0a.5.5,0,0,0,0-1Z" transform="translate(-145.37 -213.34)"/></g><g id="torzo-2" data-name="torzo"><path class="cls-41" d="M435.17,341.76c3,1.14,5.16,4,6.18,7.11a32.54,32.54,0,0,1,1.16,9.64l.33,15.36c.15,7.11.29,14.22.26,21.33,0,2.18-.16,4.66-1.83,6.07a5.27,5.27,0,0,1-3.62,1.07c-3.62-.13-6.81-2.68-8.67-5.79s-2.65-6.73-3.39-10.27c-2.65-12.73-5.12-25.64-4.57-38.63C421.26,342,430.76,340.11,435.17,341.76Z" transform="translate(-145.37 -213.34)"/><path class="cls-42" d="M454.71,345.11c-1.92,0-21,34.84-20,37.28s27.41-16.25,27.41-17.55S456.64,345.11,454.71,345.11Z" transform="translate(-145.37 -213.34)"/><path class="cls-33" d="M542,228.53c-8,15.87-21.36,28.06-31.95,42.1-5.81,7.7-11.12,15.79-16.68,23.68s-11.28,15.77-17.49,23.22S464,332.58,458.36,340.35s-11.11,15.35-17.28,22.54S429.43,377.22,424,384.75s-10.76,15-17,21.82a51,51,0,0,1-9.93,8.61c-3.6,2.34-7.4,4.35-11.06,6.58-4.09,2.48-7.92,5.38-11.86,8.09-4.19,2.87-8.41,5.7-12.58,8.6q-3.11,2.15-6.16,4.37a2.57,2.57,0,0,0-.9,3.42,2.54,2.54,0,0,0,3.42.9c8.3-6,16.95-11.59,25.3-17.55,7.19-5.14,15.44-8.68,22.21-14.42a78,78,0,0,0,9.41-10.07c3-3.63,5.83-7.39,8.62-11.19,5.48-7.48,10.72-15.15,16.64-22.3,3-3.61,6.13-7.09,9-10.76,3.06-3.84,6-7.76,8.91-11.72,5.61-7.64,11.05-15.42,17-22.83,3-3.8,6.23-7.49,9.23-11.32s6-7.86,8.88-11.86c5.75-8,11.27-16.08,16.93-24.1,5.16-7.32,10.87-14.11,16.69-20.91s11.58-13.65,16.26-21.26q1.73-2.83,3.23-5.79c1.44-2.87-2.87-5.4-4.32-2.53Z" transform="translate(-145.37 -213.34)"/><path class="cls-42" d="M405.21,346.56c-1.47,1.26-3.28,11-2.27,14.58s20.92,29.16,26.88,29.34-21.56-52.2-22.39-50.94S405.21,346.56,405.21,346.56Z" transform="translate(-145.37 -213.34)"/><path class="cls-43" d="M423.12,332.67c6,2.59,12.73,2.17,19.22,1.71l0,1.78a45.09,45.09,0,0,1-11.33,2.07,16.51,16.51,0,0,1-4.44-.23,20.65,20.65,0,0,1-4.51-1.75c-1.26-.61-4.21-2.08-3.4-4S421.93,332.16,423.12,332.67Z" transform="translate(-145.37 -213.34)"/><path class="cls-44" d="M436.89,413.53c3.89-1.84,8.19-1.29,12.43-1.29" transform="translate(-145.37 -213.34)"/><path class="cls-44" d="M437.53,414.61c3.66-1.7,7.89-1.13,11.79-1.12a1.25,1.25,0,0,0,0-2.5c-4.43,0-8.91-.46-13.06,1.46a1.26,1.26,0,0,0-.44,1.71,1.28,1.28,0,0,0,1.71.45Z" transform="translate(-145.37 -213.34)"/><path class="cls-44" d="M441.61,417.59a5.75,5.75,0,0,1,3-.43" transform="translate(-145.37 -213.34)"/><path class="cls-44" d="M442.24,418.67l.19-.09-.29.13a4.76,4.76,0,0,1,1.23-.33l-.33.05a7.49,7.49,0,0,1,1.57,0,1.23,1.23,0,0,0,.88-.37,1.23,1.23,0,0,0,0-1.76,1.35,1.35,0,0,0-.88-.37,7.79,7.79,0,0,0-1.74,0,6.24,6.24,0,0,0-1.89.56,1.24,1.24,0,0,0-.45,1.71,1.23,1.23,0,0,0,.75.57,1.4,1.4,0,0,0,1-.12Z" transform="translate(-145.37 -213.34)"/></g></g><g id="agua"><path class="cls-45" d="M283.22,511.67c16.94.12,32.5,10.15,49.42,11.07,11.56.62,22.86-3,34.25-5.1A123.41,123.41,0,0,1,432.78,524c13,5,25.21,12.25,38.85,15,36.71,7.33,74.39-19.46,110.71-10.36,7.7,1.93,15,5.44,22.93,6.33,19.65,2.21,38.38-12.12,58-9.92,16.71,1.88,29.67,15.1,45.17,21.61,6.28,2.64,13.18,4.28,18.39,8.66s7.92,12.9,3.39,18c-3.4,3.84-9.18,4.12-14.3,4.12l-442.25,0c-8.35,0-17-.06-24.58-3.59a29.38,29.38,0,0,1-16.53-27C233.42,523.31,263.19,511.54,283.22,511.67Z" transform="translate(-145.37 -213.34)"/><path class="cls-46" d="M293.7,530.76c9.93,3.27,19.05,8.85,29.22,11.27,33.48,8,68.9-19.74,101.47-8.62,11.93,4.07,21.67,13,33.36,17.67,39.17,15.83,84.59-18.87,124.6-5.35,7.71,2.6,14.78,6.91,22.59,9.16,14.59,4.18,30.22.79,44.73-3.66s29-10,44.17-10.24,31.63,6.4,38,20.15c2.91,6.23,3.31,14.11-.84,19.59-5.13,6.78-14.84,7.57-23.34,7.67-9.45.11-18.9.09-28.35.07L436.27,588c-25.47-.06-51-.11-76.38-1.61-34.82-2.05-69.63-6.81-104.45-4.88-7,.39-14.91.69-19.79-4.29-4.13-4.22-4.5-10.73-4.63-16.63C230.3,527.12,266.71,521.86,293.7,530.76Z" transform="translate(-145.37 -213.34)"/><path class="cls-47" d="M232.62,565.9S320.14,534.29,341.11,552s75.92-8.55,104.69-5.38,88.75,41.77,125,27.69,60.23-26.65,75.17-23.22,15.86,8.5,40.71,4.88,63.79,4.38,63.79,6.11,4.28,49.72,4.28,49.72l-519.75,1Z" transform="translate(-145.37 -213.34)"/></g></svg>