<svg id="Capa_1" data-name="Capa 1" xmlns="http://www.w3.org/2000/svg" xmlns:xlink="http://www.w3.org/1999/xlink" viewBox="0 0 689.13 547.25"><defs><style>.cls-1{fill:#07144f;}.cls-2{fill:#6f2eff;}.cls-3{fill:#f2dd46;}.cls-4{fill:#a20049;}.cls-5{fill:#7c5cff;}.cls-5,.cls-7{stroke:#000;}.cls-5,.cls-6,.cls-7{stroke-miterlimit:10;}.cls-6{stroke:#f9f9f9;fill:url(#Degradado_sin_nombre_207);}.cls-7{fill:#de00e7;}.cls-8{fill:#936ff7;}.cls-9{fill:#471eba;}.cls-10{fill:#d38;}.cls-11{fill:#f8ffd6;}.cls-12{fill:#cac9d1;}.cls-13{fill:#ccb648;}.cls-14{fill:#e3ff8b;}.cls-15{fill:#f8ffd9;}.cls-16{fill:#acc152;}.cls-17{fill:url(#Degradado_sin_nombre_378);}.cls-18{fill:url(#Degradado_sin_nombre_378-2);}.cls-19{fill:#2b74cc;}.cls-20{fill:#113d82;}.cls-21{fill:#f9f9f9;}.cls-22{fill:url(#Degradado_sin_nombre_16);}.cls-23{fill:none;}.cls-24{fill:#ff1759;}.cls-25{fill:url(#Degradado_sin_nombre_16-2);}.cls-26{fill:url(#Degradado_sin_nombre_16-3);}.cls-27{fill:url(#Degradado_sin_nombre_16-4);}.cls-28{fill:#c93a3a;}.cls-29{fill:#ea7373;}.cls-30{fill:#cf2eff;}.cls-31{fill:#a26149;}.cls-32{fill:#a200a2;}.cls-33{fill:#a2c549;}</style><linearGradient id="Degradado_sin_nombre_207" x1="271.3" y1="585.59" x2="309.43" y2="585.59" gradientUnits="userSpaceOnUse"><stop offset="0" stop-color="#fff"/><stop offset="0" stop-color="#ffadff"/><stop offset="0.96" stop-color="#fffcaa"/></linearGradient><linearGradient id="Degradado_sin_nombre_378" x1="518.94" y1="494.89" x2="556.63" y2="494.89" gradientUnits="userSpaceOnUse"><stop offset="0" stop-color="#fff"/><stop offset="0" stop-color="#35adff"/><stop offset="0.96" stop-color="#5c73aa"/></linearGradient><linearGradient id="Degradado_sin_nombre_378-2" x1="519.25" y1="478.72" x2="558.6" y2="478.72" xlink:href="#Degradado_sin_nombre_378"/><linearGradient id="Degradado_sin_nombre_16" x1="637.54" y1="283.05" x2="637.54" y2="283.05" gradientUnits="userSpaceOnUse"><stop offset="0" stop-color="#fff"/><stop offset="1" stop-color="#ff7fa6"/></linearGradient><linearGradient id="Degradado_sin_nombre_16-2" x1="728.94" y1="303.8" x2="810.53" y2="303.8" gradientTransform="translate(4.28 -239.62) rotate(16.42)" xlink:href="#Degradado_sin_nombre_16"/><linearGradient id="Degradado_sin_nombre_16-3" x1="728.94" y1="300.16" x2="810.53" y2="300.16" gradientTransform="translate(4.28 -239.62) rotate(16.42)" xlink:href="#Degradado_sin_nombre_16"/><linearGradient id="Degradado_sin_nombre_16-4" x1="728.94" y1="296.93" x2="810.53" y2="296.93" gradientTransform="translate(4.28 -239.62) rotate(16.42)" xlink:href="#Degradado_sin_nombre_16"/></defs><path class="cls-1" d="M752.1,371c-4.19,15.47-9.49,31-15,47.89-14,42.88-28.87,85.53-47,126.85-14.94,34.06-32.64,61.51-63,83.22-31.82,22.73-59.61,49.81-96.38,65.7C461.46,724.6,382.58,714.6,307.17,712.9c-40-.9-80.59.65-119.6-8.4s-77.34-30.65-95.71-66.24c-9-17.53-12.72-37.28-15.61-56.79-4.89-33-7.71-68.1,2.16-100.52,3.67-12.05,5.73-26,12.38-36.69,9.5-15.27,23.71-26.56,32.08-43.07,4.2-8.27,7.35-17,10.89-25.61,25.72-62.19,75.76-115.37,133.6-149.33,53.92-31.67,116.63-58.43,179.26-57.62l137,1.79c31.58.41,63.66.9,93.88,10.08s58.87,28.44,72,57.17c8.71,19.05,10,40.54,11.12,61.45C762.05,325.67,758.27,348.28,752.1,371Z" transform="translate(-71.79 -168.62)"/><path class="cls-2" d="M336.7,332.55a20.49,20.49,0,1,1-8.56-4.37A20.38,20.38,0,0,1,336.7,332.55Z" transform="translate(-71.79 -168.62)"/><path class="cls-3" d="M156.42,493.43a29.19,29.19,0,0,1-3.73-5.67,29.63,29.63,0,0,1,39.47-40,29.2,29.2,0,0,1,9.71,7.6,29.63,29.63,0,1,1-45.45,38Z" transform="translate(-71.79 -168.62)"/><path class="cls-4" d="M366.35,337.39a7,7,0,0,1-.23,1.78,6.84,6.84,0,0,1-13.45-1.78c0-.11,0-.22,0-.34a6.84,6.84,0,0,1,13.67.34Z" transform="translate(-71.79 -168.62)"/><circle class="cls-5" cx="356.89" cy="47.12" r="5.18"/><path class="cls-6" d="M295.82,565.4a20.85,20.85,0,0,1-24.52,31.18,20.84,20.84,0,1,0,24.52-31.18Z" transform="translate(-71.79 -168.62)"/><circle class="cls-7" cx="218.57" cy="159.01" r="2.12"/><path class="cls-8" d="M336.09,332c-.61.27-1.23.52-1.8.8-4,2-6.68,6.1-10.85,7.63-2.56.93-5.36.76-8.08,1a24.81,24.81,0,0,0-8.62,2.51c-.65.32-2.3,1.66-3.85,2.8A20.53,20.53,0,0,1,336.09,332Z" transform="translate(-71.79 -168.62)"/><path class="cls-9" d="M343.88,348.26A20.52,20.52,0,0,1,310.37,364c2.1-3.21,7.82-6,10.14-7.13,5.91-2.74,12.48-3.73,18.35-6.59a20.34,20.34,0,0,1,4.93-2Z" transform="translate(-71.79 -168.62)"/><path class="cls-10" d="M366.35,337.39a7,7,0,0,1-.23,1.78,43.1,43.1,0,0,1-6.05-2.14,10.92,10.92,0,0,0-4.92-.76,20,20,0,0,0-2.47.78,6.84,6.84,0,0,1,13.67.34Z" transform="translate(-71.79 -168.62)"/><path class="cls-11" d="M152.69,487.76a29.63,29.63,0,0,1,39.47-40,14.22,14.22,0,0,1-3.94,7c-1.85,1.68-4.12,2.86-5.81,4.68-4.4,4.74-4.91,13.63-11.2,15.14a42.56,42.56,0,0,1-4.53.37c-4.05.53-7.28,3.61-9.75,6.87C155.48,483.8,154.17,485.86,152.69,487.76Z" transform="translate(-71.79 -168.62)"/><path class="cls-12" d="M557,477.67l-1.38-.43c-3.73-1.16-7.75-2.27-12-3.27-2.73-.65-5.41-1.23-8-1.73-2.08-.4-4.1-.76-6.06-1.06-.77-.12-1.52-.24-2.27-.34l-1.74-.23c-13.25-1.7-22.79-1-23.57,2.32-.72,3,6.09,7.44,16.93,11.6a19.92,19.92,0,0,1,.29-2.59c-5.37-2.52-8.49-5-8.05-6.82.48-2,5.23-2.78,12.3-2.35a107.63,107.63,0,0,1,14.12,1.93c1.83.36,3.7.76,5.6,1.22,4.3,1,8.35,2.19,12,3.42.94.32,1.84.64,2.72,1,9,3.32,14.81,6.94,14.23,9.37-.53,2.22-6.29,2.93-14.62,2.17-.07.23-.16.47-.25.69a15.42,15.42,0,0,1-.65,1.5c13.83,1.89,23.89,1.21,24.69-2.18C582.19,488.2,572,482.49,557,477.67Z" transform="translate(-71.79 -168.62)"/><path class="cls-13" d="M162.94,499.23c1.08-.63,2.22-1.18,3.25-1.72,9.17-4.77,15-14.79,24.7-18.45,2.58-1,5.37-1.47,7.67-3,3.8-2.48,5.29-8.47,8.62-11.28a29.64,29.64,0,0,1-44.24,34.42Z" transform="translate(-71.79 -168.62)"/><path class="cls-14" d="M437.69,235.61a28.93,28.93,0,0,1,4.61-5,29.63,29.63,0,0,1,48.32,28.62,29.62,29.62,0,0,1-12.87,18.69,29.63,29.63,0,0,1-40.06-42.32Z" transform="translate(-71.79 -168.62)"/><path class="cls-15" d="M442.3,230.62a29.63,29.63,0,0,1,48.32,28.62,14.22,14.22,0,0,1-7.77-2.12c-2.07-1.38-3.76-3.3-5.94-4.51-5.67-3.11-14.41-1.46-17.4-7.2a44.36,44.36,0,0,1-1.46-4.3c-1.49-3.8-5.26-6.2-9-7.8C446.81,232.37,444.5,231.6,442.3,230.62Z" transform="translate(-71.79 -168.62)"/><path class="cls-16" d="M433.65,243.34c.87.9,1.68,1.87,2.45,2.74,6.85,7.74,18,11,23.88,19.5,1.58,2.26,2.73,4.85,4.74,6.72,3.32,3.09,9.5,3.08,13,5.63a29.63,29.63,0,0,1-44.1-34.59Z" transform="translate(-71.79 -168.62)"/><path class="cls-12" d="M557.53,491.84c-.08.24-.16.47-.25.69-.2.52-.41,1-.65,1.51-5.22-.71-11-1.78-17-3.21a167.67,167.67,0,0,1-20.7-6.3,19.92,19.92,0,0,1,.29-2.59,112.36,112.36,0,0,0,20.88,6.94A125.24,125.24,0,0,0,557.53,491.84Z" transform="translate(-71.79 -168.62)"/><path class="cls-17" d="M556.63,494a19.86,19.86,0,0,1-11.51,10.19,19.86,19.86,0,0,1-16.9-2,20.71,20.71,0,0,1-3.51-2.81,19.89,19.89,0,0,1-3.21-4.24,18.93,18.93,0,0,1-1.7-4,19.6,19.6,0,0,1-.86-5.77c0-.3,0-.6,0-.9a167.76,167.76,0,0,0,20.7,6.29C545.66,492.25,551.42,493.33,556.63,494Z" transform="translate(-71.79 -168.62)"/><path class="cls-18" d="M558.6,485.43a19.68,19.68,0,0,1-1.07,6.41,125.24,125.24,0,0,1-17.4-3,113.1,113.1,0,0,1-20.88-6.94c.06-.35.13-.69.21-1a20.14,20.14,0,0,1,1.11-3.37q.4-.92.9-1.8a6.24,6.24,0,0,1,.49-.83c.21-.29.4-.58.59-.88a10.39,10.39,0,0,1,1-1.26l.16-.18a19.1,19.1,0,0,1,1.94-2q.23-.21.45-.39l.19-.16a18.15,18.15,0,0,1,1.5-1.11c.35-.24.71-.46,1.07-.67a19.6,19.6,0,0,1,10-2.68,19.79,19.79,0,0,1,17,9.68,19,19,0,0,1,1,1.9l.09.17c0,.11.09.21.13.32a17.26,17.26,0,0,1,.76,2.08c.05.18.11.37.15.55A19.66,19.66,0,0,1,558.6,485.43Z" transform="translate(-71.79 -168.62)"/><path class="cls-19" d="M555.8,475.28l-.06.78c0,.39-.06.79-.11,1.18a10.72,10.72,0,0,1-.43,2.1,7,7,0,0,1-.49,1.21,4.7,4.7,0,0,1-3.55,2.66c-3.54.34-5.81-4.34-9.36-4.59a6.64,6.64,0,0,1-2-.18c-1.29-.51-1.55-2.15-2-3.43a2.88,2.88,0,0,0-.13-.31,6.34,6.34,0,0,0-2-2.46,5.83,5.83,0,0,0-3.06-1.22,23.2,23.2,0,0,0-3,.16,8.61,8.61,0,0,1-.88,0,4.49,4.49,0,0,1-1.39-.34,3.05,3.05,0,0,1-1.1-.78,18.15,18.15,0,0,1,1.5-1.11c.35-.24.71-.46,1.07-.67a19.6,19.6,0,0,1,10-2.68A19.79,19.79,0,0,1,555.8,475.28Z" transform="translate(-71.79 -168.62)"/><path class="cls-20" d="M545.16,503.72c0,.16,0,.33,0,.5a19.86,19.86,0,0,1-16.9-2,20.71,20.71,0,0,1-3.51-2.81,19.89,19.89,0,0,1-3.21-4.24,19.27,19.27,0,0,1,3.09-.82,19.8,19.8,0,0,1,20.57,9.37Z" transform="translate(-71.79 -168.62)"/><path class="cls-1" d="M459,373.6" transform="translate(-71.79 -168.62)"/><path class="cls-21" d="M459.45,375.59c1.09,0,2.16-.74,1.88-1.93a3,3,0,0,0-2.82-2c-1.09,0-2.16.73-1.88,1.93a3,3,0,0,0,2.82,2Z" transform="translate(-71.79 -168.62)"/><path class="cls-1" d="M488,383.86" transform="translate(-71.79 -168.62)"/><path class="cls-21" d="M486.8,385.44a4.19,4.19,0,0,0,3.12-1.66c.58-.85.22-1.5-.8-1.5a4.21,4.21,0,0,0-3.12,1.66c-.58.85-.22,1.5.8,1.5Z" transform="translate(-71.79 -168.62)"/><path class="cls-1" d="M564.16,442" transform="translate(-71.79 -168.62)"/><path class="cls-21" d="M565.44,443.8c1.08,0,.67-1.09.26-1.67-.55-.79-1.76-2-2.82-2s-.67,1.09-.27,1.67c.55.79,1.77,2,2.83,2Z" transform="translate(-71.79 -168.62)"/><path class="cls-1" d="M535.86,491" transform="translate(-71.79 -168.62)"/><path class="cls-21" d="M535.64,493.26c2.89,0,3.7-4.46.45-4.46-2.89,0-3.7,4.46-.45,4.46Z" transform="translate(-71.79 -168.62)"/><path class="cls-1" d="M399.07,420.49" transform="translate(-71.79 -168.62)"/><path class="cls-21" d="M397.47,422a4.73,4.73,0,0,0,3.14-1.41c.38-.38,1.22-1.68.05-1.68a4.73,4.73,0,0,0-3.14,1.41c-.38.37-1.22,1.68,0,1.68Z" transform="translate(-71.79 -168.62)"/><path class="cls-1" d="M384.41,452.73" transform="translate(-71.79 -168.62)"/><path class="cls-21" d="M384.76,455a2,2,0,0,0,2.07-2.28,2.76,2.76,0,0,0-2.77-2.16,2,2,0,0,0-2.06,2.28,2.75,2.75,0,0,0,2.76,2.16Z" transform="translate(-71.79 -168.62)"/><path class="cls-1" d="M289.65,434.17v2.93" transform="translate(-71.79 -168.62)"/><path class="cls-21" d="M287.22,434.72v2.93a.58.58,0,0,0,.31.4,1.1,1.1,0,0,0,.59.26,2.32,2.32,0,0,0,.83.06,3.53,3.53,0,0,0,1-.11,3.93,3.93,0,0,0,1.64-.73l.33-.32a.77.77,0,0,0,.2-.66v-2.93a.56.56,0,0,0-.31-.4,1.13,1.13,0,0,0-.59-.26,2.36,2.36,0,0,0-.84-.06,3.5,3.5,0,0,0-1,.11,4,4,0,0,0-1.65.73l-.32.32a.77.77,0,0,0-.2.66Z" transform="translate(-71.79 -168.62)"/><path class="cls-1" d="M315.05,506.46" transform="translate(-71.79 -168.62)"/><path class="cls-21" d="M314,508.08a4.16,4.16,0,0,0,3.06-1.76c.56-.9.16-1.49-.85-1.49a4.16,4.16,0,0,0-3.07,1.77c-.56.89-.15,1.48.86,1.48Z" transform="translate(-71.79 -168.62)"/><path class="cls-1" d="M461.59,580.7" transform="translate(-71.79 -168.62)"/><path class="cls-21" d="M463.26,582.44c.87,0-.57-1.71-.7-1.84-.63-.65-1.66-1.64-2.65-1.64s.58,1.71.7,1.84c.63.66,1.66,1.64,2.65,1.64Z" transform="translate(-71.79 -168.62)"/><path class="cls-1" d="M495.34,492.33" transform="translate(-71.79 -168.62)"/><path class="cls-21" d="M494.32,493.5c1,0,2.62-.3,3.24-1.18s-.5-1.15-1.21-1.15c-1,0-2.62.3-3.23,1.18s.5,1.15,1.2,1.15Z" transform="translate(-71.79 -168.62)"/><path class="cls-1" d="M510.37,473.38" transform="translate(-71.79 -168.62)"/><path class="cls-21" d="M508.29,474a12.11,12.11,0,0,0,3.38-.53c.24-.06,1.77-.66.78-.66a12.11,12.11,0,0,0-3.38.53c-.24.07-1.77.66-.78.66Z" transform="translate(-71.79 -168.62)"/><path class="cls-1" d="M486,437.1l-2.93-2.93" transform="translate(-71.79 -168.62)"/><path class="cls-21" d="M487.9,437.12,485,434.19a3.49,3.49,0,0,0-.68-.48,5,5,0,0,0-.87-.42,3.81,3.81,0,0,0-.93-.27,3.24,3.24,0,0,0-.82-.11l-.43,0a.61.61,0,0,0-.49.32c-.1.37.21.66.44.89l2.93,2.93a3.22,3.22,0,0,0,.68.48,4.37,4.37,0,0,0,.87.42,4.22,4.22,0,0,0,.92.27,3.24,3.24,0,0,0,.82.11l.44,0a.65.65,0,0,0,.49-.32c.09-.37-.21-.66-.44-.89Z" transform="translate(-71.79 -168.62)"/><path class="cls-1" d="M361,375.56" transform="translate(-71.79 -168.62)"/><path class="cls-21" d="M361,377.81a2.56,2.56,0,0,0,2.47-2.4,2.25,2.25,0,0,0-2.47-2.1,2.56,2.56,0,0,0-2.48,2.39,2.27,2.27,0,0,0,2.48,2.11Z" transform="translate(-71.79 -168.62)"/><path class="cls-1" d="M300.4,345.27" transform="translate(-71.79 -168.62)"/><path class="cls-21" d="M301.87,347.2c.94,0-.24-1.78-.41-2-.54-.72-1.53-1.85-2.53-1.85s.24,1.78.41,2c.54.71,1.53,1.85,2.53,1.85Z" transform="translate(-71.79 -168.62)"/><path class="cls-1" d="M298.45,309.13" transform="translate(-71.79 -168.62)"/><path class="cls-21" d="M297.69,311.18a3.15,3.15,0,0,0,2.94-1.95,1.54,1.54,0,0,0-1.43-2.16,3.17,3.17,0,0,0-2.94,2,1.53,1.53,0,0,0,1.43,2.15Z" transform="translate(-71.79 -168.62)"/><path class="cls-1" d="M384.41,345.27" transform="translate(-71.79 -168.62)"/><path class="cls-21" d="M384.39,346.32c.61,0,2.5,0,2.52-1s-1.92-1.11-2.47-1.11-2.51,0-2.53,1,1.93,1.1,2.48,1.1Z" transform="translate(-71.79 -168.62)"/><path class="cls-1" d="M416.65,382.39" transform="translate(-71.79 -168.62)"/><path class="cls-21" d="M418.75,382.89c1,0-.69-.49-.82-.52a14.82,14.82,0,0,0-3.39-.47c-1,0,.7.49.82.52a15,15,0,0,0,3.39.47Z" transform="translate(-71.79 -168.62)"/><path class="cls-1" d="M556.34,391.19" transform="translate(-71.79 -168.62)"/><path class="cls-21" d="M557.41,392.32c.73,0,1.79-.4,1.15-1.24s-2.3-1-3.28-1c-.73,0-1.8.4-1.16,1.23s2.31,1,3.29,1Z" transform="translate(-71.79 -168.62)"/><path class="cls-1" d="M621.79,453.71" transform="translate(-71.79 -168.62)"/><path class="cls-21" d="M621.29,454.79c.77,0,2.64-.27,2.93-1.17s-1.41-1-1.92-1c-.77,0-2.64.27-2.93,1.18s1.4,1,1.92,1Z" transform="translate(-71.79 -168.62)"/><path class="cls-1" d="M674.55,368.72" transform="translate(-71.79 -168.62)"/><path class="cls-21" d="M676.09,370.58c.93,0-.34-1.78-.5-2-.58-.71-1.58-1.75-2.59-1.75s.34,1.77.5,2c.58.7,1.58,1.75,2.59,1.75Z" transform="translate(-71.79 -168.62)"/><path class="cls-1" d="M579.79,300.34" transform="translate(-71.79 -168.62)"/><path class="cls-21" d="M580.22,302.67c3,0,1.63-4.67-.87-4.67-3,0-1.62,4.67.87,4.67Z" transform="translate(-71.79 -168.62)"/><path class="cls-1" d="M567.09,335.5" transform="translate(-71.79 -168.62)"/><path class="cls-21" d="M567.93,337.8c2.06,0,.22-4.59-1.68-4.59-2.06,0-.22,4.59,1.68,4.59Z" transform="translate(-71.79 -168.62)"/><path class="cls-1" d="M517.27,374.58" transform="translate(-71.79 -168.62)"/><path class="cls-21" d="M517.29,376.38c1,0,2.47-.61,2.48-1.83s-1.52-1.77-2.52-1.77-2.47.61-2.48,1.82,1.52,1.78,2.52,1.78Z" transform="translate(-71.79 -168.62)"/><path class="cls-1" d="M450.84,308.15" transform="translate(-71.79 -168.62)"/><path class="cls-21" d="M450.26,310.08a3.05,3.05,0,0,0,2.92-1.89c.34-1.16-.68-2-1.76-2a3,3,0,0,0-2.92,1.89c-.34,1.15.68,2,1.76,2Z" transform="translate(-71.79 -168.62)"/><path class="cls-1" d="M534.85,249.54" transform="translate(-71.79 -168.62)"/><path class="cls-21" d="M534.85,250.41c.51,0,2.5,0,2.5-.87s-2.07-.87-2.5-.87-2.5,0-2.5.87,2.07.87,2.5.87Z" transform="translate(-71.79 -168.62)"/><path class="cls-1" d="M455.72,215.35" transform="translate(-71.79 -168.62)"/><path class="cls-21" d="M456.38,217.73c1.27,0,1.61-1.75,1.36-2.69a2.69,2.69,0,0,0-2.67-2.07c-1.27,0-1.61,1.75-1.36,2.68a2.69,2.69,0,0,0,2.67,2.08Z" transform="translate(-71.79 -168.62)"/><path class="cls-1" d="M445,274" transform="translate(-71.79 -168.62)"/><path class="cls-21" d="M444.36,274.5c.5,0,2.82,0,3-.59s-1.51-.49-1.79-.49c-.51,0-2.82,0-3,.6s1.51.48,1.8.48Z" transform="translate(-71.79 -168.62)"/><path class="cls-1" d="M428.37,321.83" transform="translate(-71.79 -168.62)"/><path class="cls-21" d="M428.75,323.79c3.27,0,1.77-3.92-.76-3.92-3.26,0-1.76,3.92.76,3.92Z" transform="translate(-71.79 -168.62)"/><path class="cls-1" d="M346.31,271" transform="translate(-71.79 -168.62)"/><path class="cls-21" d="M345.41,272.86a3.64,3.64,0,0,0,2.94-2c.46-1-.07-1.7-1.13-1.7a3.67,3.67,0,0,0-3,2c-.46,1,.07,1.7,1.14,1.7Z" transform="translate(-71.79 -168.62)"/><path class="cls-1" d="M400,192.88" transform="translate(-71.79 -168.62)"/><path class="cls-21" d="M400.61,193.84c.53,0,2.15-.05,1.86-1s-2.36-1-3-1-2.16.06-1.86,1,2.35,1,3,1Z" transform="translate(-71.79 -168.62)"/><path class="cls-1" d="M285.75,235.86" transform="translate(-71.79 -168.62)"/><path class="cls-21" d="M287.29,237.71c.64,0-.64-1.55-.75-1.68-.43-.52-1.54-2-2.34-2-.64,0,.64,1.55.75,1.69.43.51,1.54,2,2.34,2Z" transform="translate(-71.79 -168.62)"/><path class="cls-1" d="M687.25,230" transform="translate(-71.79 -168.62)"/><path class="cls-21" d="M688,232.13c2.48,0,.2-4.26-1.55-4.26-2.48,0-.2,4.26,1.55,4.26Z" transform="translate(-71.79 -168.62)"/><path class="cls-1" d="M732.18,302.29" transform="translate(-71.79 -168.62)"/><path class="cls-21" d="M731.33,304c1.13,0,2.61-.31,3.15-1.46s-.43-1.88-1.45-1.88-2.61.32-3.14,1.46.43,1.88,1.44,1.88Z" transform="translate(-71.79 -168.62)"/><path class="cls-1" d="M663.8,426.35" transform="translate(-71.79 -168.62)"/><path class="cls-21" d="M664.57,428.51c2.55,0,.32-4.31-1.54-4.31-2.55,0-.32,4.31,1.54,4.31Z" transform="translate(-71.79 -168.62)"/><path class="cls-1" d="M299.42,573.86" transform="translate(-71.79 -168.62)"/><path class="cls-21" d="M299.62,575.93c1.14,0,2.39-.78,2.27-2a2.63,2.63,0,0,0-2.67-2.08,2.08,2.08,0,0,0-2.27,2,2.64,2.64,0,0,0,2.67,2.09Z" transform="translate(-71.79 -168.62)"/><path class="cls-1" d="M342.41,625.64" transform="translate(-71.79 -168.62)"/><path class="cls-21" d="M342.61,628c3,0,2.28-4.8-.4-4.8-3,0-2.29,4.8.4,4.8Z" transform="translate(-71.79 -168.62)"/><path class="cls-1" d="M289.65,642.25" transform="translate(-71.79 -168.62)"/><path class="cls-21" d="M290.28,644.31A1.87,1.87,0,0,0,292,642a2.9,2.9,0,0,0-3-1.8,1.87,1.87,0,0,0-1.75,2.33,2.9,2.9,0,0,0,3,1.8Z" transform="translate(-71.79 -168.62)"/><path class="cls-1" d="M402,525" transform="translate(-71.79 -168.62)"/><path class="cls-21" d="M399.8,526a7.71,7.71,0,0,0,2.92-1c.26-.12,1.71-1,1.47-1a7.71,7.71,0,0,0-2.92,1c-.26.12-1.71,1-1.47,1Z" transform="translate(-71.79 -168.62)"/><path class="cls-22" d="M637.54,283.05" transform="translate(-71.79 -168.62)"/><path class="cls-23" d="M676.62,269.07c0,.16,0,.31,0,.46,0,.54,0,1.07-.1,1.6a19.84,19.84,0,0,1-.76,3.77c-.06.19-.13.37-.19.56,7.89.64,13.31.27,14-1.22s-3.32-3.63-10-5.89h0c-.93-.31-1.92-.63-2.94-.94,0,.06,0,.11,0,.17Q676.62,268.32,676.62,269.07Z" transform="translate(-71.79 -168.62)"/><path class="cls-23" d="M638.45,261.29c.15-.37.33-.74.51-1.11h0l-1.66-.12a54.17,54.17,0,0,0-8.77,0c-2.07.23-3.36.67-3.65,1.35-.63,1.45,3.34,3.65,10.09,5.92l1.93.63a19.31,19.31,0,0,1,1.55-6.64Z" transform="translate(-71.79 -168.62)"/><path class="cls-24" d="M673.26,277.31c-5.77-.62-12.22-1.6-18.93-2.93-3.81-.76-7.47-1.59-10.9-2.45q-3.43-.87-6.53-1.78a17.94,17.94,0,0,0,.33,2.76,17.54,17.54,0,0,0,.49,2h0a19.88,19.88,0,0,0,3.19,6.23,21.13,21.13,0,0,0,1.59,1.82c.31.32.63.62,1,.92s.4.35.6.52.45.37.68.54q.69.52,1.44,1c.17.12.35.22.52.32l.37.21.46.25.69.35.65.28.58.26a19.81,19.81,0,0,0,2.77.87,18.26,18.26,0,0,0,2,.35c.34,0,.68.08,1,.1l.32,0,.6,0h.62c.56,0,1.12,0,1.67-.07l.55-.05.89-.12.77-.13.83-.19.78-.2L663,288l.76-.27c.49-.19,1-.4,1.47-.62l.71-.36.68-.37h0A20,20,0,0,0,671,283a19.75,19.75,0,0,0,2-2.44.5.5,0,0,0,.08-.12,19.69,19.69,0,0,0,1.68-2.93l-1.48-.15Z" transform="translate(-71.79 -168.62)"/><path class="cls-24" d="M676.12,264.65c-4.78-1.36-10.14-2.64-15.89-3.79-4.81-.95-9.49-1.73-13.88-2.32-2.07-.28-4.08-.51-6-.71.15-.23.32-.46.49-.69l.17-.21a19.94,19.94,0,0,1,10.23-7,19.05,19.05,0,0,1,1.88-.44h0a19.58,19.58,0,0,1,3.62-.33c.62,0,1.23,0,1.83.08a19.88,19.88,0,0,1,13.62,7.29c.35.42.67.86,1,1.31A19.77,19.77,0,0,1,676.12,264.65Z" transform="translate(-71.79 -168.62)"/><path class="cls-24" d="M675.58,275.4l0,.06h0a186.54,186.54,0,0,1-20.39-3l-1.57-.31c-6.32-1.31-12-2.78-16.68-4.25a19.31,19.31,0,0,1,1.55-6.64c.15-.37.33-.74.51-1.12l2.91.27c5.15.54,11.1,1.45,17.37,2.69s12.14,2.71,16.93,4.15l.38.12c0,.06,0,.11,0,.17q.06.75.06,1.5c0,.16,0,.31,0,.46,0,.54,0,1.07-.1,1.6a19.84,19.84,0,0,1-.76,3.77c-.12.41-.45.69-.51,1.12a1.94,1.94,0,0,0,0,.24,1.43,1.43,0,0,1-.16.58,2.76,2.76,0,0,0-.31.62l-1.47-.15h0c-5.77-.62-12.22-1.6-18.93-2.93-3.81-.76-7.47-1.59-10.9-2.45q-3.43-.87-6.53-1.78c0-.13,0-.27,0-.4s0-.45,0-.68,0-.76,0-1.14a172.1,172.1,0,0,0,16.69,4.25l1.56.31a186.54,186.54,0,0,0,20.39,3h0c-.22.64-.47,1.27-.75,1.88Z" transform="translate(-71.79 -168.62)"/><path class="cls-25" d="M636.86,269.07c0-.38,0-.76,0-1.14L635,267.3c-6.75-2.27-10.72-4.47-10.09-5.92.29-.68,1.58-1.12,3.65-1.35a54.17,54.17,0,0,1,8.77,0l1.66.12a19.74,19.74,0,0,1,1.39-2.34l-.93-.09c-4.14-.4-7.9-.59-11.09-.58-6.34,0-10.49.83-11.22,2.47-1.11,2.56,6.33,6.45,18.25,10.07l1.54.45c0-.13,0-.27,0-.4S636.86,269.3,636.86,269.07Z" transform="translate(-71.79 -168.62)"/><path class="cls-26" d="M679.54,265.65c-1.1-.34-2.25-.67-3.42-1a17.85,17.85,0,0,1,.39,2.34c0,.14,0,.27,0,.41,1,.31,2,.63,2.94.94h0c6.71,2.26,10.65,4.45,10,5.89s-6.07,1.86-14,1.22c-.24.68-.5,1.35-.8,2,12.54,1.23,21.59.65,22.68-1.85S691.26,269.23,679.54,265.65Z" transform="translate(-71.79 -168.62)"/><path class="cls-24" d="M675.55,275.46h0a186.54,186.54,0,0,1-20.39-3l-1.56-.31h0c-6.32-1.31-12-2.78-16.68-4.25,0,.38,0,.76,0,1.14s0,.45,0,.68,0,.27,0,.4q3.09.92,6.53,1.78c3.43.86,7.09,1.69,10.9,2.45,6.71,1.33,13.16,2.31,18.93,2.93h0l1.48.15c.3-.65.56-1.32.8-2Z" transform="translate(-71.79 -168.62)"/><path class="cls-24" d="M641.87,260.44c5.15.54,11.1,1.45,17.37,2.69s12.14,2.71,16.93,4.15h0l.38.12c0-.14,0-.27,0-.41a17.85,17.85,0,0,0-.39-2.34c-4.78-1.35-10.14-2.64-15.89-3.79-4.81-.95-9.49-1.73-13.88-2.32-2.07-.28-4.08-.51-6-.71a19.74,19.74,0,0,0-1.39,2.34Z" transform="translate(-71.79 -168.62)"/><path class="cls-27" d="M641.87,260.44c5.15.54,11.1,1.45,17.37,2.69s12.14,2.71,16.93,4.15h0l.38.12c0-.14,0-.27,0-.41a17.85,17.85,0,0,0-.39-2.34c-4.78-1.35-10.14-2.64-15.89-3.79-4.81-.95-9.49-1.73-13.88-2.32-2.07-.28-4.08-.51-6-.71a19.74,19.74,0,0,0-1.39,2.34Z" transform="translate(-71.79 -168.62)"/><path class="cls-28" d="M672.19,256.57a7.13,7.13,0,0,1-3.33-1.75c-8.26-7-8.37,4.57-12.87,1.6s-2.38,3.24-7.53-1.74a14.08,14.08,0,0,0-2.76-2.13,19.62,19.62,0,0,1,5.54-2.58,19.05,19.05,0,0,1,1.88-.44h0a19.58,19.58,0,0,1,3.62-.33c.62,0,1.23,0,1.83.08A19.88,19.88,0,0,1,672.19,256.57Z" transform="translate(-71.79 -168.62)"/><path class="cls-29" d="M673.1,280.19a20,20,0,0,0,2.67-5.5,19.76,19.76,0,0,0,.85-5.36,11.31,11.31,0,0,1-7.37-1c-6.55-2.92-2.44,2.19-7.68.94s-1.38,9.67-11.54,5.92c-6.57-2.43-7.61,3.23-7.53,7.53a19.88,19.88,0,0,0,30.6-2.53Z" transform="translate(-71.79 -168.62)"/><path class="cls-1" d="M135.43,491.57" transform="translate(-71.79 -168.62)"/><path class="cls-21" d="M136.91,493.48c.84,0-.38-1.7-.53-1.88-.48-.63-1.51-1.94-2.44-1.94s.39,1.7.53,1.88c.49.63,1.52,1.94,2.44,1.94Z" transform="translate(-71.79 -168.62)"/><path class="cls-1" d="M179.14,546.86" transform="translate(-71.79 -168.62)"/><path class="cls-21" d="M180.67,548.45c1.08,0,.34-1.11,0-1.52a4.93,4.93,0,0,0-3-1.67c-1.08,0-.34,1.11,0,1.52a5,5,0,0,0,3,1.67Z" transform="translate(-71.79 -168.62)"/><path class="cls-1" d="M229.29,518.57" transform="translate(-71.79 -168.62)"/><path class="cls-21" d="M230.29,519.72c.72,0,1.8-.22,1.21-1.11s-2.3-1.19-3.22-1.19c-.71,0-1.8.22-1.21,1.11s2.3,1.19,3.22,1.19Z" transform="translate(-71.79 -168.62)"/><path class="cls-1" d="M194.57,482.57" transform="translate(-71.79 -168.62)"/><path class="cls-21" d="M194.58,483.17c.37,0,2.5,0,2.49-.64s-2.25-.56-2.51-.56-2.5,0-2.49.64,2.25.56,2.51.56Z" transform="translate(-71.79 -168.62)"/><path class="cls-1" d="M212.57,419.57" transform="translate(-71.79 -168.62)"/><path class="cls-21" d="M213,421.78a2,2,0,0,0,2-2.35,2.76,2.76,0,0,0-2.83-2.07,2,2,0,0,0-2,2.35,2.77,2.77,0,0,0,2.83,2.07Z" transform="translate(-71.79 -168.62)"/><path class="cls-1" d="M120,541.71" transform="translate(-71.79 -168.62)"/><path class="cls-21" d="M120.91,543.06c.78,0,1.86-.3,1.33-1.28s-2.18-1.41-3.15-1.41c-.78,0-1.86.3-1.33,1.28s2.18,1.41,3.15,1.41Z" transform="translate(-71.79 -168.62)"/><path class="cls-1" d="M157.29,554.57" transform="translate(-71.79 -168.62)"/><path class="cls-21" d="M159.09,556.18c.86,0-.73-1.69-.84-1.79a4.66,4.66,0,0,0-2.77-1.43c-.86,0,.73,1.69.84,1.79a4.66,4.66,0,0,0,2.77,1.43Z" transform="translate(-71.79 -168.62)"/><path class="cls-1" d="M130.29,545.57" transform="translate(-71.79 -168.62)"/><path class="cls-21" d="M130.8,547.81a1.9,1.9,0,0,0,1.79-2.34,2.89,2.89,0,0,0-2.82-2.14,1.89,1.89,0,0,0-1.78,2.35,2.88,2.88,0,0,0,2.81,2.13Z" transform="translate(-71.79 -168.62)"/><path class="cls-1" d="M122.57,564.86" transform="translate(-71.79 -168.62)"/><path class="cls-21" d="M123.94,566.86c1.09,0,.14-1.9-.09-2.25a3.54,3.54,0,0,0-2.65-1.76c-1.08,0-.14,1.91.1,2.25a3.48,3.48,0,0,0,2.64,1.76Z" transform="translate(-71.79 -168.62)"/><path class="cls-1" d="M153.43,590.57" transform="translate(-71.79 -168.62)"/><path class="cls-21" d="M153.29,592.79c2.87,0,3.51-4.43.27-4.43-2.86,0-3.51,4.43-.27,4.43Z" transform="translate(-71.79 -168.62)"/><path class="cls-1" d="M143.14,563.57" transform="translate(-71.79 -168.62)"/><path class="cls-21" d="M142.74,565.18c1,0,2.6-.47,2.85-1.6s-1.17-1.62-2.05-1.62-2.6.47-2.84,1.61,1.17,1.61,2,1.61Z" transform="translate(-71.79 -168.62)"/><path class="cls-1" d="M239.57,648.43" transform="translate(-71.79 -168.62)"/><path class="cls-21" d="M238.69,650.31a3.57,3.57,0,0,0,3-1.94,1.21,1.21,0,0,0-1.2-1.82,3.54,3.54,0,0,0-2.95,1.94,1.2,1.2,0,0,0,1.19,1.82Z" transform="translate(-71.79 -168.62)"/><path class="cls-1" d="M513.43,629.14" transform="translate(-71.79 -168.62)"/><path class="cls-21" d="M513.42,631.22a2.11,2.11,0,1,0-2.49-2.09,2.37,2.37,0,0,0,2.49,2.09Z" transform="translate(-71.79 -168.62)"/><path class="cls-1" d="M437.57,672.86" transform="translate(-71.79 -168.62)"/><path class="cls-21" d="M437.21,675.08a2.77,2.77,0,0,0,2.78-2.15,2,2,0,0,0-2.06-2.29,2.76,2.76,0,0,0-2.77,2.14,2,2,0,0,0,2,2.3Z" transform="translate(-71.79 -168.62)"/><path class="cls-1" d="M366.86,689.57" transform="translate(-71.79 -168.62)"/><path class="cls-21" d="M369,690.7c.55,0-1.27-1.2-1.35-1.24a6.73,6.73,0,0,0-2.92-1c-.54,0,1.27,1.2,1.35,1.24a6.73,6.73,0,0,0,2.92,1Z" transform="translate(-71.79 -168.62)"/><path class="cls-1" d="M604.71,575.14" transform="translate(-71.79 -168.62)"/><path class="cls-21" d="M604.46,577.27c2.75,0,3.76-4.25.5-4.25-2.74,0-3.75,4.25-.5,4.25Z" transform="translate(-71.79 -168.62)"/><path class="cls-1" d="M360.43,545.57" transform="translate(-71.79 -168.62)"/><path class="cls-21" d="M362.11,547.42s-1.33-1.85-1.49-2c-.37-.42-1.24-1.68-1.87-1.68,0,0,1.33,1.86,1.49,2,.37.41,1.24,1.67,1.87,1.67Z" transform="translate(-71.79 -168.62)"/><path class="cls-1" d="M453,485.14" transform="translate(-71.79 -168.62)"/><path class="cls-21" d="M451.43,486.1a6.47,6.47,0,0,0,3.41-.92c.71-.47.72-1-.27-1a6.39,6.39,0,0,0-3.41.93c-.71.47-.72,1,.27,1Z" transform="translate(-71.79 -168.62)"/><path class="cls-1" d="M505.71,584.14" transform="translate(-71.79 -168.62)"/><path class="cls-21" d="M505.11,584.88c.68,0,2.65,0,3-.74s-1.53-.73-1.81-.73c-.68,0-2.65,0-3,.74s1.53.73,1.81.73Z" transform="translate(-71.79 -168.62)"/><path class="cls-1" d="M408,616.29" transform="translate(-71.79 -168.62)"/><path class="cls-21" d="M407.71,618.44a2.61,2.61,0,0,0,2.76-2,2.16,2.16,0,0,0-2.18-2.3,2.61,2.61,0,0,0-2.76,2,2.16,2.16,0,0,0,2.18,2.3Z" transform="translate(-71.79 -168.62)"/><path class="cls-1" d="M379.71,492.86" transform="translate(-71.79 -168.62)"/><path class="cls-21" d="M378.17,493.87a6.19,6.19,0,0,0,3.39-1c.71-.5.67-1-.3-1a6.24,6.24,0,0,0-3.39,1c-.71.51-.67,1,.3,1Z" transform="translate(-71.79 -168.62)"/><path class="cls-1" d="M210,345h1.29" transform="translate(-71.79 -168.62)"/><path class="cls-21" d="M210.36,347.13h1.29a2,2,0,0,0,.89-.25,1.91,1.91,0,0,0,.73-.5,1.39,1.39,0,0,0,.4-.74,1.31,1.31,0,0,0,.08-.85l-.17-.54a2.4,2.4,0,0,0-.78-.89l-.56-.3a2.79,2.79,0,0,0-1.31-.19h-1.29a2,2,0,0,0-.9.25,1.8,1.8,0,0,0-.72.5,1.48,1.48,0,0,0-.41.74,1.45,1.45,0,0,0-.08.85l.18.54a2.29,2.29,0,0,0,.77.89l.56.3a2.85,2.85,0,0,0,1.32.19Z" transform="translate(-71.79 -168.62)"/><path class="cls-30" d="M450.9,603.31a20.5,20.5,0,1,1-4.17,8.65A20.42,20.42,0,0,1,450.9,603.31Z" transform="translate(-71.79 -168.62)"/><path class="cls-9" d="M466.44,595.77A20.53,20.53,0,0,1,483,628.92c-3.26-2-6.23-7.68-7.36-10-2.87-5.84-4-12.38-7-18.19a20.34,20.34,0,0,1-2.14-4.88A.36.36,0,0,0,466.44,595.77Z" transform="translate(-71.79 -168.62)"/><path class="cls-31" d="M462.56,599a6.93,6.93,0,0,1-.23,1.77A6.84,6.84,0,0,1,448.89,599c0-.11,0-.23,0-.34a6.83,6.83,0,0,1,13.66.34Z" transform="translate(-71.79 -168.62)"/><path class="cls-32" d="M495.14,609.45a6.52,6.52,0,0,1-.24,1.77,6.84,6.84,0,0,1-13.44-1.77c0-.12,0-.23,0-.34a6.84,6.84,0,0,1,13.67.34Z" transform="translate(-71.79 -168.62)"/><path class="cls-33" d="M489.92,587.42a6.84,6.84,0,0,1-13.68,0c0-.11,0-.23,0-.34a6.84,6.84,0,0,1,13.67.34Z" transform="translate(-71.79 -168.62)"/></svg>