<svg xmlns="http://www.w3.org/2000/svg" xmlns:xlink="http://www.w3.org/1999/xlink" viewBox="0 0 1362.77 1279.77"><defs><style>.cls-1{fill:#07144f;}.cls-2{fill:#152c68;}.cls-3{fill:#6f2eff;}.cls-4{fill:#e3ff8b;}.cls-5{fill:#a20049;}.cls-6{fill:#7c5cff;}.cls-6,.cls-8{stroke:#000;}.cls-20,.cls-21,.cls-23,.cls-24,.cls-25,.cls-6,.cls-7,.cls-8{stroke-miterlimit:10;}.cls-7{stroke:#f9f9f9;fill:url(#Degradado_sin_nombre_207);}.cls-8{fill:#de00e7;}.cls-9{fill:#936ff7;}.cls-10{fill:#471eba;}.cls-11{fill:#d38;}.cls-12{fill:#f8ffd9;}.cls-13{fill:#cac9d1;}.cls-14{fill:#acc152;}.cls-15{fill:url(#Degradado_sin_nombre_378);}.cls-16{fill:url(#Degradado_sin_nombre_378-2);}.cls-17{fill:#2b74cc;}.cls-18{fill:#113d82;}.cls-19{fill:#f9f9f9;}.cls-20{fill:#a7d14b;}.cls-20,.cls-21,.cls-25{stroke:#1d1d1b;}.cls-21,.cls-23{fill:#227c09;}.cls-22{fill:#1e5b0a;}.cls-23,.cls-24{stroke:#8e892d;}.cls-23{stroke-width:2px;}.cls-24,.cls-29{fill:none;}.cls-25{fill:#6d8c17;}.cls-26{fill:#c3c941;}.cls-27{fill:#635d11;}.cls-28{fill:url(#Degradado_sin_nombre_16);}.cls-30{fill:#ff1759;}.cls-31{fill:url(#Degradado_sin_nombre_16-2);}.cls-32{fill:url(#Degradado_sin_nombre_16-3);}.cls-33{fill:url(#Degradado_sin_nombre_16-4);}.cls-34{fill:#c93a3a;}.cls-35{fill:#ea7373;}</style><linearGradient id="Degradado_sin_nombre_207" x1="495.48" y1="903.94" x2="570.75" y2="903.94" gradientUnits="userSpaceOnUse"><stop offset="0" stop-color="#fff"/><stop offset="0" stop-color="#ffadff"/><stop offset="0.96" stop-color="#fffcaa"/></linearGradient><linearGradient id="Degradado_sin_nombre_378" x1="984.37" y1="724.88" x2="1058.78" y2="724.88" gradientUnits="userSpaceOnUse"><stop offset="0" stop-color="#fff"/><stop offset="0" stop-color="#35adff"/><stop offset="0.96" stop-color="#5c73aa"/></linearGradient><linearGradient id="Degradado_sin_nombre_378-2" x1="984.98" y1="692.95" x2="1062.66" y2="692.95" xlink:href="#Degradado_sin_nombre_378"/><linearGradient id="Degradado_sin_nombre_16" x1="1218.52" y1="306.67" x2="1218.52" y2="306.67" gradientUnits="userSpaceOnUse"><stop offset="0" stop-color="#fff"/><stop offset="1" stop-color="#ff7fa6"/></linearGradient><linearGradient id="Degradado_sin_nombre_16-2" x1="1182.7" y1="257.33" x2="1343.77" y2="257.33" gradientTransform="translate(117.47 -324.27) rotate(16.42)" xlink:href="#Degradado_sin_nombre_16"/><linearGradient id="Degradado_sin_nombre_16-3" x1="1182.7" y1="250.14" x2="1343.77" y2="250.14" gradientTransform="translate(117.47 -324.27) rotate(16.42)" xlink:href="#Degradado_sin_nombre_16"/><linearGradient id="Degradado_sin_nombre_16-4" x1="1182.7" y1="243.77" x2="1343.77" y2="243.77" gradientTransform="translate(117.47 -324.27) rotate(16.42)" xlink:href="#Degradado_sin_nombre_16"/></defs><g id="cielo"><path class="cls-1" d="M1450.93,469c-17.23,41.53-50.88,74.05-72.2,113.64-13.64,25.33-22.2,53.49-39,76.83-15.48,21.51-37.06,37.69-55.94,56.28-50.06,49.32-81.16,115.81-133.6,162.58-55.73,49.7-130.07,72.43-193,112.7-75.45,48.32-134.83,122.13-217.81,155.93-43.74,17.82-91.79,23.54-139.58,29.07-44.07,5.09-87.92,10-128,24.17a237.53,237.53,0,0,0-30.78,13.26,203.94,203.94,0,0,0-24,14.6c-34.18,24.18-59.63,59-93.3,83.87-38.69,28.58-89.85,42.77-136.14,29.72s-84.54-56.75-83.63-104.84c0-16.9,5.21-33.4,8.38-49.85,3-15.49,3.59-29.68,7.79-45.16a84.51,84.51,0,0,1,4.27-12.94,48.79,48.79,0,0,1,2.81-5.24,103.93,103.93,0,0,1,8.36-11.38l1-1.24c13.39-16.42,23.42-35,41.87-45.87a102.29,102.29,0,0,1,11.86-6.34c9.08-3.88,18.68-6.26,28.17-8.91s19-5.61,27.75-10.64c15.79-9.09,29.11-22,43.35-33.29,2.08-1.65,4.17-3.27,6.29-4.84,18.17-13.43,31.18-32.68,42-52.52a378,378,0,0,0,40-113.15c3.82-20.87,5.28-41.72,6.17-62.87.73-17.48,7.1-34.74,6.87-51.77-.18-13.84-2.28-27.69-3.75-41.43C378.3,596.07,383.64,512,389,428.44c3.26-51,6.64-102.61,22.56-151.16C444.65,176.35,534.63,96.24,638.72,75c42.33-8.62,85.91-8.1,129.1-7.53L1115.05,72c62.35.81,125.68,1.77,185.34,19.91s116.22,56.14,142.14,112.86c17.19,37.61,19.71,80,22,121.32C1467.11,374.3,1469.42,424.38,1450.93,469Z" transform="translate(-103.48 -67.22)"/><path class="cls-2" d="M599.83,1176c-44.07,5.09-87.92,10-128,24.17a237.53,237.53,0,0,0-30.78,13.26l-95.94-21.16c-39.32-8.67-82.07-19.47-106.13-51.76-19-25.47-21.8-58.21-20.51-90.66,9.56-2.67,19-5.61,27.75-10.64,15.79-9.09,29.11-22,43.35-33.29,20.49,4.07,41,9.81,61.76,9.36,22.87-.5,49,1.48,63.16,19.44,6,7.62,9,17.23,14.64,25.11,16.58,23.09,49.91,25,74.21,39.7,19.75,12,33.42,32.61,54,43.18,10.25,5.27,21.93,7.87,31.18,14.74C594.43,1161.82,599,1169,599.83,1176Z" transform="translate(-103.48 -67.22)"/></g><g id="planetas"><path class="cls-3" d="M624.59,404.38a40.47,40.47,0,1,1-16.89-8.62A40.21,40.21,0,0,1,624.59,404.38Z" transform="translate(-103.48 -67.22)"/><path class="cls-4" d="M817.4,193.28a57.56,57.56,0,0,1,9.09-9.87,58.49,58.49,0,0,1,95.4,56.52,58.48,58.48,0,0,1-25.41,36.89,58.49,58.49,0,0,1-79.08-83.54Z" transform="translate(-103.48 -67.22)"/><path class="cls-5" d="M683.13,413.94a13.5,13.5,0,0,1-27,0c0-.22,0-.45,0-.67a13.5,13.5,0,0,1,27,.67Z" transform="translate(-103.48 -67.22)"/><circle class="cls-6" cx="702.71" cy="106.55" r="10.23"/><path class="cls-7" d="M543.88,864.07A41.14,41.14,0,0,1,503,927.64a41.6,41.6,0,0,1-7.56-2,41.14,41.14,0,1,0,48.4-61.56Z" transform="translate(-103.48 -67.22)"/><circle class="cls-8" cx="487.4" cy="312.32" r="4.18"/><path class="cls-9" d="M623.39,403.37c-1.2.54-2.42,1-3.56,1.59-7.87,3.86-13.19,12-21.41,15.05-5,1.84-10.59,1.51-15.95,2a49.21,49.21,0,0,0-17,4.95c-1.29.64-4.55,3.29-7.6,5.53a40.52,40.52,0,0,1,65.54-29.16Z" transform="translate(-103.48 -67.22)"/><path class="cls-10" d="M638.78,435.39a40.52,40.52,0,0,1-66.16,31.12c4.13-6.34,15.43-11.95,20-14.07,11.67-5.41,24.64-7.36,36.22-13,3.16-1.54,6.27-3.37,9.73-4Z" transform="translate(-103.48 -67.22)"/><path class="cls-11" d="M683.13,413.94a13.49,13.49,0,0,1-.46,3.5c-4.12-.8-8-2.79-11.94-4.22a21.67,21.67,0,0,0-9.71-1.5,38.08,38.08,0,0,0-4.87,1.55,13.5,13.5,0,0,1,27,.67Z" transform="translate(-103.48 -67.22)"/><path class="cls-12" d="M826.49,183.41a58.49,58.49,0,0,1,95.4,56.52c-5.7-.05-11.15-1.39-15.34-4.2s-7.44-6.51-11.73-8.89c-11.19-6.15-28.45-2.89-34.36-14.22-1.37-2.66-1.78-5.7-2.87-8.5-2.94-7.5-10.38-12.22-17.81-15.38C835.4,186.88,830.83,185.35,826.49,183.41Z" transform="translate(-103.48 -67.22)"/><path class="cls-13" d="M1059.53,690.88l-2.72-.85c-7.37-2.3-15.3-4.48-23.59-6.46-5.39-1.28-10.68-2.43-15.82-3.42q-6.15-1.18-11.95-2.09c-1.52-.24-3-.46-4.5-.67l-3.42-.46c-26.17-3.34-45-1.89-46.55,4.6-1.41,6,12,14.67,33.43,22.89a39.12,39.12,0,0,1,.57-5.12c-10.6-5-16.75-9.87-15.9-13.45.95-4,10.34-5.49,24.3-4.64a214.46,214.46,0,0,1,27.88,3.8q5.4,1.07,11,2.41c8.49,2,16.49,4.33,23.66,6.76,1.84.62,3.63,1.26,5.36,1.89,17.83,6.57,29.24,13.7,28.09,18.5-1.05,4.39-12.41,5.78-28.86,4.29-.15.46-.32.91-.49,1.36-.39,1-.82,2-1.29,3,27.3,3.73,47.16,2.38,48.75-4.3C1109.25,711.68,1089.15,700.39,1059.53,690.88Z" transform="translate(-103.48 -67.22)"/><path class="cls-14" d="M809.42,208.53c1.71,1.77,3.31,3.69,4.84,5.41,13.52,15.27,35.52,21.72,47.14,38.5,3.11,4.46,5.39,9.57,9.35,13.26,6.56,6.11,18.76,6.09,25.73,11.12a58.5,58.5,0,0,1-87.06-68.29Z" transform="translate(-103.48 -67.22)"/><path class="cls-13" d="M1060.56,718.86c-.15.46-.32.92-.49,1.36q-.58,1.51-1.29,3c-10.3-1.39-21.66-3.52-33.5-6.34a332.47,332.47,0,0,1-40.87-12.42,38.93,38.93,0,0,1,.57-5.12c10.31,4.85,24.83,9.79,41.22,13.69A248.08,248.08,0,0,0,1060.56,718.86Z" transform="translate(-103.48 -67.22)"/><path class="cls-15" d="M1058.78,723.18a39.14,39.14,0,0,1-56.09,16.16,40.25,40.25,0,0,1-6.92-5.54,39.65,39.65,0,0,1-6.35-8.37,38.56,38.56,0,0,1-3.35-7.83,39,39,0,0,1-1.7-11.4c0-.59,0-1.19,0-1.78a330.32,330.32,0,0,0,40.88,12.43C1037.12,719.67,1048.49,721.79,1058.78,723.18Z" transform="translate(-103.48 -67.22)"/><path class="cls-16" d="M1062.66,706.2a39,39,0,0,1-2.1,12.66A248.33,248.33,0,0,1,1026.2,713c-16.38-3.91-30.91-8.85-41.22-13.7.13-.68.26-1.35.42-2a39.25,39.25,0,0,1,2.2-6.65c.53-1.21,1.12-2.4,1.77-3.56a15.08,15.08,0,0,1,1-1.65q.61-.84,1.17-1.74a20.91,20.91,0,0,1,1.88-2.47c.11-.11.21-.24.31-.36a38.41,38.41,0,0,1,3.84-3.92l.88-.76c.12-.11.25-.21.38-.31a33.87,33.87,0,0,1,3-2.2c.68-.47,1.39-.9,2.11-1.32a38.85,38.85,0,0,1,12.68-4.67,39.78,39.78,0,0,1,7-.62,39.07,39.07,0,0,1,33.63,19.12,35.88,35.88,0,0,1,2,3.74c.06.11.11.23.17.35s.18.41.26.62A35.43,35.43,0,0,1,1061,695c.1.36.21.72.3,1.08A38.87,38.87,0,0,1,1062.66,706.2Z" transform="translate(-103.48 -67.22)"/><path class="cls-17" d="M1057.14,686.17c0,.51-.07,1-.11,1.54-.06.77-.13,1.54-.22,2.32a23.13,23.13,0,0,1-.84,4.15,15.84,15.84,0,0,1-1,2.38c-1.41,2.7-4,5-7,5.27-7,.66-11.47-8.58-18.48-9.08-1.32-.09-2.72.14-4-.35-2.53-1-3.06-4.24-4-6.78-.08-.21-.16-.41-.25-.61a12.71,12.71,0,0,0-3.86-4.86,11.5,11.5,0,0,0-6-2.39,45,45,0,0,0-5.91.3,14.6,14.6,0,0,1-1.75,0,8.09,8.09,0,0,1-2.75-.67,5.77,5.77,0,0,1-2.16-1.53,33.87,33.87,0,0,1,3-2.2c.68-.47,1.39-.9,2.11-1.32a38.85,38.85,0,0,1,12.68-4.67,39.78,39.78,0,0,1,7-.62A39.07,39.07,0,0,1,1057.14,686.17Z" transform="translate(-103.48 -67.22)"/><path class="cls-18" d="M1036.13,742.3c0,.33-.05.66-.07,1a39.24,39.24,0,0,1-33.37-3.95,40.25,40.25,0,0,1-6.92-5.54,39.65,39.65,0,0,1-6.35-8.37,36.92,36.92,0,0,1,6.11-1.62,39.1,39.1,0,0,1,40.6,18.49Z" transform="translate(-103.48 -67.22)"/></g><g id="estrellas"><path class="cls-1" d="M866,485.43" transform="translate(-103.48 -67.22)"/><path class="cls-19" d="M866.47,487.41c1.09,0,2.16-.73,1.88-1.93a3,3,0,0,0-2.82-2c-1.09,0-2.16.74-1.88,1.94a3,3,0,0,0,2.82,2Z" transform="translate(-103.48 -67.22)"/><path class="cls-1" d="M923.21,505.68" transform="translate(-103.48 -67.22)"/><path class="cls-19" d="M922.05,507.26a4.2,4.2,0,0,0,3.12-1.66c.58-.85.23-1.5-.8-1.5a4.21,4.21,0,0,0-3.12,1.66c-.57.85-.22,1.5.8,1.5Z" transform="translate(-103.48 -67.22)"/><path class="cls-1" d="M1073.64,620.43" transform="translate(-103.48 -67.22)"/><path class="cls-19" d="M1074.93,622.24c1.07,0,.66-1.08.26-1.67-.55-.79-1.77-2-2.83-2s-.67,1.09-.26,1.67c.55.79,1.76,2,2.83,2Z" transform="translate(-103.48 -67.22)"/><path class="cls-1" d="M1017.78,717.25" transform="translate(-103.48 -67.22)"/><path class="cls-19" d="M1017.56,719.48c2.89,0,3.7-4.46.45-4.46-2.89,0-3.7,4.46-.45,4.46Z" transform="translate(-103.48 -67.22)"/><path class="cls-1" d="M747.71,578" transform="translate(-103.48 -67.22)"/><path class="cls-19" d="M746.12,579.54a4.72,4.72,0,0,0,3.14-1.4c.38-.38,1.22-1.68,0-1.68a4.72,4.72,0,0,0-3.14,1.4c-.38.38-1.22,1.68,0,1.68Z" transform="translate(-103.48 -67.22)"/><path class="cls-1" d="M718.79,641.64" transform="translate(-103.48 -67.22)"/><path class="cls-19" d="M719.14,643.86a2,2,0,0,0,2.06-2.28,2.76,2.76,0,0,0-2.76-2.16,2,2,0,0,0-2.07,2.29,2.76,2.76,0,0,0,2.77,2.15Z" transform="translate(-103.48 -67.22)"/><path class="cls-1" d="M531.71,605v5.79" transform="translate(-103.48 -67.22)"/><path class="cls-19" d="M529.28,605.55v5.79c0,.37.65.6.9.66a4.21,4.21,0,0,0,1.8,0,3.93,3.93,0,0,0,1.64-.73,1.2,1.2,0,0,0,.53-1v-5.79c0-.37-.65-.6-.9-.66a3.91,3.91,0,0,0-1.8.05,4,4,0,0,0-1.65.73,1.21,1.21,0,0,0-.52,1Z" transform="translate(-103.48 -67.22)"/><path class="cls-1" d="M581.86,747.71" transform="translate(-103.48 -67.22)"/><path class="cls-19" d="M580.75,749.34a4.16,4.16,0,0,0,3.07-1.77c.56-.89.15-1.48-.86-1.48a4.14,4.14,0,0,0-3.06,1.77c-.56.89-.16,1.48.85,1.48Z" transform="translate(-103.48 -67.22)"/><path class="cls-1" d="M871.14,894.29" transform="translate(-103.48 -67.22)"/><path class="cls-19" d="M872.82,896c.86,0-.58-1.71-.7-1.84-.63-.66-1.66-1.65-2.65-1.65s.57,1.71.7,1.85c.63.65,1.66,1.64,2.65,1.64Z" transform="translate(-103.48 -67.22)"/><path class="cls-1" d="M937.77,719.83" transform="translate(-103.48 -67.22)"/><path class="cls-19" d="M936.76,721c1,0,2.62-.3,3.23-1.17s-.5-1.15-1.2-1.15c-1,0-2.62.3-3.24,1.17s.5,1.15,1.21,1.15Z" transform="translate(-103.48 -67.22)"/><path class="cls-1" d="M967.45,682.4" transform="translate(-103.48 -67.22)"/><path class="cls-19" d="M965.37,683a12.11,12.11,0,0,0,3.38-.53c.24-.07,1.78-.66.79-.66a12.23,12.23,0,0,0-3.39.53c-.23.07-1.77.66-.78.66Z" transform="translate(-103.48 -67.22)"/><path class="cls-1" d="M919.36,610.79,913.57,605" transform="translate(-103.48 -67.22)"/><path class="cls-19" d="M921.25,610.8,915.46,605a4.64,4.64,0,0,0-1.55-.9,4.73,4.73,0,0,0-1.74-.38c-.28,0-.84,0-.93.35s.21.66.44.89l5.79,5.79a5.7,5.7,0,0,0,3.29,1.28c.28,0,.84,0,.93-.36s-.21-.66-.44-.89Z" transform="translate(-103.48 -67.22)"/><path class="cls-1" d="M672.5,489.29" transform="translate(-103.48 -67.22)"/><path class="cls-19" d="M672.5,491.53a2.57,2.57,0,0,0,2.48-2.39,2.26,2.26,0,0,0-2.48-2.1,2.57,2.57,0,0,0-2.48,2.39,2.26,2.26,0,0,0,2.48,2.1Z" transform="translate(-103.48 -67.22)"/><path class="cls-1" d="M552.93,429.5" transform="translate(-103.48 -67.22)"/><path class="cls-19" d="M554.4,431.43c.93,0-.24-1.78-.41-2-.54-.71-1.53-1.85-2.53-1.85s.23,1.78.41,2c.53.71,1.53,1.85,2.53,1.85Z" transform="translate(-103.48 -67.22)"/><path class="cls-1" d="M549.07,358.14" transform="translate(-103.48 -67.22)"/><path class="cls-19" d="M548.31,360.2a3.18,3.18,0,0,0,3-2,1.54,1.54,0,0,0-1.43-2.15,3.18,3.18,0,0,0-3,2,1.55,1.55,0,0,0,1.43,2.16Z" transform="translate(-103.48 -67.22)"/><path class="cls-1" d="M718.79,429.5" transform="translate(-103.48 -67.22)"/><path class="cls-19" d="M718.76,430.55c.62,0,2.5-.05,2.53-1s-1.93-1.11-2.48-1.11-2.5.05-2.52,1,1.92,1.11,2.47,1.11Z" transform="translate(-103.48 -67.22)"/><path class="cls-1" d="M782.43,502.79" transform="translate(-103.48 -67.22)"/><path class="cls-19" d="M784.53,503.28c1,0-.69-.49-.82-.52a14.89,14.89,0,0,0-3.39-.47c-1,0,.7.49.82.52a15,15,0,0,0,3.39.47Z" transform="translate(-103.48 -67.22)"/><path class="cls-1" d="M1058.21,520.14" transform="translate(-103.48 -67.22)"/><path class="cls-19" d="M1059.28,521.27c.73,0,1.79-.4,1.15-1.23s-2.3-1-3.28-1c-.73,0-1.8.4-1.16,1.24s2.31,1,3.29,1Z" transform="translate(-103.48 -67.22)"/><path class="cls-1" d="M1187.43,643.57" transform="translate(-103.48 -67.22)"/><path class="cls-19" d="M1186.92,644.65c.78,0,2.64-.26,2.93-1.17s-1.4-1-1.91-1c-.78,0-2.64.27-2.94,1.17s1.41,1,1.92,1Z" transform="translate(-103.48 -67.22)"/><path class="cls-1" d="M1291.57,475.79" transform="translate(-103.48 -67.22)"/><path class="cls-19" d="M1293.12,477.65c.93,0-.34-1.78-.5-2-.59-.71-1.59-1.76-2.6-1.76s.34,1.78.5,2c.59.71,1.59,1.76,2.6,1.76Z" transform="translate(-103.48 -67.22)"/><path class="cls-1" d="M1104.5,340.79" transform="translate(-103.48 -67.22)"/><path class="cls-19" d="M1104.94,343.12c3,0,1.62-4.67-.88-4.67-3,0-1.62,4.67.88,4.67Z" transform="translate(-103.48 -67.22)"/><path class="cls-1" d="M1079.43,410.21" transform="translate(-103.48 -67.22)"/><path class="cls-19" d="M1080.27,412.51c2.06,0,.22-4.59-1.68-4.59-2.06,0-.22,4.59,1.68,4.59Z" transform="translate(-103.48 -67.22)"/><path class="cls-1" d="M981.07,487.36" transform="translate(-103.48 -67.22)"/><path class="cls-19" d="M981.09,489.16c1,0,2.47-.61,2.48-1.83s-1.52-1.78-2.52-1.78-2.47.62-2.48,1.83,1.52,1.78,2.52,1.78Z" transform="translate(-103.48 -67.22)"/><path class="cls-1" d="M849.93,356.21" transform="translate(-103.48 -67.22)"/><path class="cls-19" d="M849.35,358.14a3,3,0,0,0,2.92-1.89c.34-1.16-.69-2-1.76-2a3.06,3.06,0,0,0-2.93,1.89c-.33,1.16.69,2,1.77,2Z" transform="translate(-103.48 -67.22)"/><path class="cls-1" d="M1015.79,240.5" transform="translate(-103.48 -67.22)"/><path class="cls-19" d="M1015.79,241.37c.51,0,2.5,0,2.5-.87s-2.07-.87-2.5-.87-2.5,0-2.5.87,2.07.87,2.5.87Z" transform="translate(-103.48 -67.22)"/><path class="cls-1" d="M859.57,173" transform="translate(-103.48 -67.22)"/><path class="cls-19" d="M860.22,175.38c1.28,0,1.62-1.75,1.37-2.69a2.7,2.7,0,0,0-2.67-2.07c-1.27,0-1.62,1.75-1.36,2.69a2.69,2.69,0,0,0,2.66,2.07Z" transform="translate(-103.48 -67.22)"/><path class="cls-1" d="M838.36,288.71" transform="translate(-103.48 -67.22)"/><path class="cls-19" d="M837.73,289.26c.51,0,2.83,0,3-.6s-1.51-.49-1.79-.49c-.51,0-2.83,0-3,.6s1.51.49,1.79.49Z" transform="translate(-103.48 -67.22)"/><path class="cls-1" d="M805.57,383.21" transform="translate(-103.48 -67.22)"/><path class="cls-19" d="M806,385.18c3.27,0,1.77-3.93-.76-3.93-3.26,0-1.76,3.93.76,3.93Z" transform="translate(-103.48 -67.22)"/><path class="cls-1" d="M643.57,282.93" transform="translate(-103.48 -67.22)"/><path class="cls-19" d="M642.67,284.76a3.64,3.64,0,0,0,2.94-2c.46-1-.07-1.7-1.13-1.7a3.67,3.67,0,0,0-3,1.95c-.46,1,.07,1.71,1.14,1.71Z" transform="translate(-103.48 -67.22)"/><path class="cls-1" d="M749.64,128.64" transform="translate(-103.48 -67.22)"/><path class="cls-19" d="M750.21,129.61c.53,0,2.16-.06,1.86-1s-2.36-1-3-1-2.16.06-1.86.95,2.35,1,3,1Z" transform="translate(-103.48 -67.22)"/><path class="cls-1" d="M524,213.5" transform="translate(-103.48 -67.22)"/><path class="cls-19" d="M525.55,215.35c.64,0-.64-1.55-.75-1.68-.43-.52-1.55-2-2.35-2-.64,0,.64,1.55.75,1.68.43.52,1.55,2,2.35,2Z" transform="translate(-103.48 -67.22)"/><path class="cls-1" d="M1316.64,201.93" transform="translate(-103.48 -67.22)"/><path class="cls-19" d="M1317.42,204.06c2.48,0,.2-4.26-1.55-4.26-2.48,0-.2,4.26,1.55,4.26Z" transform="translate(-103.48 -67.22)"/><path class="cls-1" d="M1405.36,344.64" transform="translate(-103.48 -67.22)"/><path class="cls-19" d="M1404.51,346.32c1.13,0,2.61-.32,3.14-1.47s-.43-1.88-1.44-1.88-2.61.32-3.15,1.46.43,1.89,1.45,1.89Z" transform="translate(-103.48 -67.22)"/><path class="cls-1" d="M1270.36,589.57" transform="translate(-103.48 -67.22)"/><path class="cls-19" d="M1271.12,591.72c2.56,0,.32-4.3-1.53-4.3-2.55,0-.32,4.3,1.53,4.3Z" transform="translate(-103.48 -67.22)"/><path class="cls-1" d="M551,880.79" transform="translate(-103.48 -67.22)"/><path class="cls-19" d="M551.2,882.85c1.14,0,2.39-.77,2.27-2a2.64,2.64,0,0,0-2.67-2.09c-1.14,0-2.39.78-2.27,2a2.64,2.64,0,0,0,2.67,2.08Z" transform="translate(-103.48 -67.22)"/><path class="cls-1" d="M635.86,983" transform="translate(-103.48 -67.22)"/><path class="cls-19" d="M636.06,985.4c3,0,2.28-4.8-.4-4.8-3,0-2.29,4.8.4,4.8Z" transform="translate(-103.48 -67.22)"/><path class="cls-1" d="M531.71,1015.79" transform="translate(-103.48 -67.22)"/><path class="cls-19" d="M532.34,1017.85a1.87,1.87,0,0,0,1.75-2.33,2.9,2.9,0,0,0-3-1.8,1.87,1.87,0,0,0-1.75,2.33,2.9,2.9,0,0,0,3,1.8Z" transform="translate(-103.48 -67.22)"/><path class="cls-1" d="M753.5,784.36" transform="translate(-103.48 -67.22)"/><path class="cls-19" d="M751.31,785.36a8,8,0,0,0,2.92-1c.26-.12,1.71-1,1.46-1a7.79,7.79,0,0,0-2.92,1c-.26.11-1.71,1-1.46,1Z" transform="translate(-103.48 -67.22)"/></g><g id="tierra"><path class="cls-20" d="M471.87,1200.16A221.66,221.66,0,0,0,417.06,1228c-34.18,24.18-59.63,59-93.3,83.87A180.31,180.31,0,0,1,260.05,1342c-23.87,5.83-48.79,6.28-72.43-.39C143,1329,105.82,1288,104,1241.91c-.06-1.7-.08-3.42-.05-5.14,0-16.9,5.21-33.4,8.38-49.85,3-15.49,3.59-29.68,7.79-45.16a84.51,84.51,0,0,1,4.27-12.94,48.79,48.79,0,0,1,2.81-5.24c35.58,1.21,75.1-2.9,107.87,6.66,30.25,8.83,53.55,34.17,83.8,43,43.45,12.67,94.36-10.58,133.61,12C459.6,1189.26,465.81,1194.62,471.87,1200.16Z" transform="translate(-103.48 -67.22)"/><path class="cls-21" d="M291.09,1200.18c-1.61,1.16-3.74,1.2-5.72,1.19l-87.65-.33c-12.85,0-24.81-.06-37.26,2.22-7.45,1.36-19.23,2.51-20.13-8.77-.62-7.81,6.55-13.69,10.76-20.3a33.49,33.49,0,0,0,5-15.6c.84-10.5-2.16-21.84-5.63-32.06-5.28-15.59-11.4-32.61-5.6-48,2.71-7.2,7.82-13.27,10.73-20.39,4.1-10,3.54-21.25,5.17-32s6.62-22.25,16.79-26a24.22,24.22,0,0,1,5.65-1.27c1.9-.23,3.83-.3,5.75-.37,12.83-.43,26.29-.24,37.61,5.83,7.19,3.86,13,9.83,18.66,15.7,6,6.17,12.15,12.74,14.26,21.05,2.3,9.06-.63,18.7.82,27.93,2.4,15.29,16.35,27.24,17.31,42.69.64,10.31-4.73,20.26-4.26,30.58.83,18.39,19.57,32.31,20.24,50.7C293.68,1195.67,293.21,1198.64,291.09,1200.18Z" transform="translate(-103.48 -67.22)"/><path class="cls-22" d="M185.79,1029.14c-4,7.86-11.61,13.87-13.85,22.41-1.75,6.64,0,13.9-2.15,20.42-1.32,3.92-4,7.27-5.36,11.17-2,5.71-1.11,12-.4,18a230.23,230.23,0,0,1,1.38,35.22c-.17,4.55-.5,9.2-2.32,13.37a23.45,23.45,0,0,1-7,8.86c.84-10.5-2.16-21.84-5.63-32.06-5.28-15.59-11.4-32.61-5.6-48,2.71-7.2,7.82-13.27,10.73-20.39,4.1-10,3.54-21.25,5.17-32s6.62-22.25,16.79-26a24.22,24.22,0,0,1,5.65-1.27C188.88,1008,190.28,1020.39,185.79,1029.14Z" transform="translate(-103.48 -67.22)"/><polyline class="cls-23" points="102.94 1134.94 102.94 1024.47 102.94 961.47"/><path class="cls-23" d="M237,1059.13c-1.58.65-28.51,16.95-30.62,33.58" transform="translate(-103.48 -67.22)"/><path class="cls-23" d="M206.41,1131.71s18-31.28,42.88-32.57" transform="translate(-103.48 -67.22)"/><path class="cls-23" d="M163.57,1070.64c8.93,1.4,33.55,9.43,42.84,34.93" transform="translate(-103.48 -67.22)"/><path class="cls-23" d="M161.43,1124.43s27,2.57,45,36.43" transform="translate(-103.48 -67.22)"/><path class="cls-24" d="M238.57,1155.29s-4.58-6.14-32.16,19.92" transform="translate(-103.48 -67.22)"/><path class="cls-25" d="M260.05,1342c-23.87,5.83-48.79,6.28-72.43-.39C143,1329,105.82,1288,104,1241.91c12.7,10,30,30.2,35.63,35,13.43,12.14,27.81,24.77,45.58,28.23,8.79,1.71,17.95,1,26.63,3.23C230.83,1313.12,244.38,1330.37,260.05,1342Z" transform="translate(-103.48 -67.22)"/></g><g id="ojas"><path class="cls-26" d="M287.88,1121.51a7.47,7.47,0,0,0,3-1.59c.79-.69,1.53-1.61,2.58-1.75a4.59,4.59,0,0,1,2.38.67,16.79,16.79,0,0,0,6.22,1.53c-2.72,0-4.79,2.84-7.51,3a11.63,11.63,0,0,1-4-1,12.45,12.45,0,0,0-5.42-.53" transform="translate(-103.48 -67.22)"/><path class="cls-27" d="M288,1122.12a8.64,8.64,0,0,0,3.27-1.75c.92-.8,1.7-1.87,3.06-1.48s2.35,1,3.59,1.42a18.32,18.32,0,0,0,4.09.69v-1.25c-2.76.07-4.52,2.51-7.14,2.91-1.65.26-3.23-.73-4.78-1.16a13.36,13.36,0,0,0-5-.38c-.79.09-.8,1.34,0,1.25a12.27,12.27,0,0,1,5.11.47c1.52.48,3,1.27,4.64,1.08,2.65-.3,4.5-2.85,7.17-2.92a.63.63,0,0,0,0-1.25,16.92,16.92,0,0,1-4.34-.83c-1.22-.41-2.42-1.26-3.71-1.37a3.75,3.75,0,0,0-2.84,1.25,8.34,8.34,0,0,1-3.45,2.11.63.63,0,0,0,.33,1.21Z" transform="translate(-103.48 -67.22)"/><path class="cls-26" d="M288.5,1121.55a19.49,19.49,0,0,1,5.95-.36" transform="translate(-103.48 -67.22)"/><path class="cls-27" d="M288.66,1122.15a19.42,19.42,0,0,1,5.79-.34.63.63,0,0,0,.62-.62.64.64,0,0,0-.62-.63,21,21,0,0,0-6.12.38.63.63,0,0,0,.33,1.21Z" transform="translate(-103.48 -67.22)"/><path class="cls-26" d="M338.15,1046.43a12.42,12.42,0,0,0,5.2-2.25c1.42-1.06,2.78-2.48,4.55-2.57a7.58,7.58,0,0,1,3.87,1.43,28,28,0,0,0,10.16,3.39c-4.54-.38-8.37,4.1-12.92,3.92-2.31-.09-4.38-1.38-6.51-2.28a20.81,20.81,0,0,0-8.95-1.62" transform="translate(-103.48 -67.22)"/><path class="cls-27" d="M338.32,1047a13.22,13.22,0,0,0,5.34-2.31c1.74-1.28,3.33-3.07,5.69-2.23a24.88,24.88,0,0,1,2.89,1.52,31.18,31.18,0,0,0,3,1.36,28.71,28.71,0,0,0,6.51,1.67l.17-1.23c-4.6-.27-7.94,3.75-12.4,3.91-2.78.1-5.2-1.66-7.71-2.59a21.8,21.8,0,0,0-8.27-1.3.63.63,0,0,0,0,1.25,20.57,20.57,0,0,1,8.7,1.56c2.35,1,4.64,2.43,7.28,2.33,4.47-.16,7.87-4.17,12.4-3.91.69,0,.87-1.13.16-1.23a28.62,28.62,0,0,1-6.92-1.83c-2.09-.85-4.06-2.51-6.29-2.93-1.85-.35-3.37.61-4.76,1.71a14,14,0,0,1-6.14,3c-.78.15-.45,1.36.34,1.2Z" transform="translate(-103.48 -67.22)"/><path class="cls-26" d="M339.18,1046.57a32.93,32.93,0,0,1,10,.2" transform="translate(-103.48 -67.22)"/><path class="cls-27" d="M339.18,1047.19a33.19,33.19,0,0,1,9.8.18c.79.14,1.12-1.07.33-1.2a33.73,33.73,0,0,0-10.13-.23.65.65,0,0,0-.62.63c0,.3.29.67.62.62Z" transform="translate(-103.48 -67.22)"/><path class="cls-26" d="M283.83,1082.69a8.77,8.77,0,0,0,3.21-2.45c.8-1,1.49-2.2,2.7-2.56a5.49,5.49,0,0,1,2.93.32,20,20,0,0,0,7.61.6c-3.21.52-5.08,4.27-8.26,4.93-1.62.34-3.27-.19-4.9-.45a14.75,14.75,0,0,0-6.47.42" transform="translate(-103.48 -67.22)"/><path class="cls-27" d="M284.14,1083.23a9.49,9.49,0,0,0,3.34-2.55c.85-1,1.57-2.46,3.07-2.48a8.77,8.77,0,0,1,2.3.5,20.64,20.64,0,0,0,2.32.45,21.31,21.31,0,0,0,5.11.07l-.16-1.22c-3.11.58-4.71,3.64-7.54,4.72-1.89.72-3.91-.08-5.82-.32a15.69,15.69,0,0,0-6.28.5.62.62,0,0,0,.34,1.2,14.7,14.7,0,0,1,6.66-.33c1.8.33,3.65.81,5.43.15,2.84-1,4.5-4.14,7.54-4.72.68-.13.54-1.3-.17-1.23a20.25,20.25,0,0,1-5.66-.16c-1.5-.27-3.1-1.06-4.64-.82a4.63,4.63,0,0,0-2.81,2.06,9.72,9.72,0,0,1-3.66,3.1c-.72.34-.09,1.42.63,1.08Z" transform="translate(-103.48 -67.22)"/><path class="cls-26" d="M284.57,1082.61a23.52,23.52,0,0,1,6.92-1.58" transform="translate(-103.48 -67.22)"/><path class="cls-27" d="M284.73,1083.21a23.16,23.16,0,0,1,6.76-1.55.65.65,0,0,0,.63-.63.63.63,0,0,0-.63-.62,24.33,24.33,0,0,0-7.09,1.6.64.64,0,0,0-.43.77.62.62,0,0,0,.76.43Z" transform="translate(-103.48 -67.22)"/><path class="cls-26" d="M364.85,1068.71a20.37,20.37,0,0,0,7.17-5.89c1.76-2.3,3.25-5.16,6-6.09,2.17-.73,4.52,0,6.74.5a46.19,46.19,0,0,0,17.53.76c-7.33,1.44-11.33,10.21-18.58,12-3.68.9-7.51-.19-11.27-.65a34,34,0,0,0-14.82,1.49" transform="translate(-103.48 -67.22)"/><path class="cls-27" d="M365.17,1069.25a21.28,21.28,0,0,0,7.34-6c1.95-2.53,3.65-6,7.28-6.16a23.35,23.35,0,0,1,5.73,1,46.16,46.16,0,0,0,5.35.85,48.26,48.26,0,0,0,11.58-.3l-.33-1.21c-6.93,1.48-10.41,8.51-16.61,11.32-4.49,2-9.33.35-14-.09a34.88,34.88,0,0,0-14.09,1.61c-.76.25-.43,1.46.33,1.21a33.75,33.75,0,0,1,14.66-1.47c4.44.54,8.94,1.83,13.26,0,6.32-2.66,9.84-9.91,16.75-11.38.81-.17.45-1.32-.33-1.21a46.15,46.15,0,0,1-12.2.15,52.71,52.71,0,0,1-6.11-1.18,12.5,12.5,0,0,0-5.08-.44c-3,.55-4.74,3.1-6.38,5.41a21.21,21.21,0,0,1-7.81,6.85c-.72.36-.09,1.44.63,1.08Z" transform="translate(-103.48 -67.22)"/><path class="cls-26" d="M366.54,1068.46a53.86,53.86,0,0,1,15.77-4.18" transform="translate(-103.48 -67.22)"/><path class="cls-27" d="M366.86,1069a53.41,53.41,0,0,1,15.45-4.09c.79-.09.8-1.34,0-1.25a55.81,55.81,0,0,0-16.09,4.26c-.73.32-.1,1.4.64,1.08Z" transform="translate(-103.48 -67.22)"/><path class="cls-26" d="M332.39,1011.52A32.24,32.24,0,0,0,337,997.57c.42-4.58,0-9.68,2.9-13.25,2.29-2.81,6-3.86,9.46-5a73.28,73.28,0,0,0,24.16-13.79c-8.61,8.12-6.56,23.27-14.79,31.77-4.17,4.32-10.23,6.1-15.66,8.66a53.84,53.84,0,0,0-18.63,14.53" transform="translate(-103.48 -67.22)"/><path class="cls-27" d="M332.93,1011.83a33.44,33.44,0,0,0,4.56-12.8c.55-4,0-8.42,1.67-12.23,1.8-4.12,6.11-5.46,10-6.78A73.55,73.55,0,0,0,374,966l-.89-.89c-6.74,6.5-7.06,16.49-10.4,24.72a21,21,0,0,1-9.66,11c-4.76,2.62-10,4.24-14.68,7A54.91,54.91,0,0,0,324,1020c-.51.62.37,1.51.88.89a54.14,54.14,0,0,1,12.83-11.32c4.71-3,9.94-4.71,14.88-7.22a22.2,22.2,0,0,0,10.11-9.66c2.06-4,3.1-8.47,4.3-12.8,1.4-5.06,3.08-10.23,7-14,.58-.57-.28-1.4-.89-.89a73,73,0,0,1-24.41,13.81c-3.54,1.19-7.37,2.4-9.64,5.59s-2.29,7.54-2.52,11.37a33,33,0,0,1-4.68,15.37.63.63,0,0,0,1.08.63Z" transform="translate(-103.48 -67.22)"/><path class="cls-26" d="M334.44,1009.76a85.25,85.25,0,0,1,17.63-18.93" transform="translate(-103.48 -67.22)"/><path class="cls-27" d="M335,1010.07a85.77,85.77,0,0,1,17.53-18.8c.63-.5-.26-1.38-.88-.88a86.72,86.72,0,0,0-17.73,19.05c-.45.67.63,1.3,1.08.63Z" transform="translate(-103.48 -67.22)"/></g><g id="aro"><path class="cls-28" d="M1218.52,306.67" transform="translate(-103.48 -67.22)"/><path class="cls-29" d="M1295.66,279.07c0,.31,0,.61,0,.91,0,1.06-.08,2.11-.19,3.14a39.19,39.19,0,0,1-1.5,7.45c-.11.37-.26.73-.39,1.1,15.59,1.27,26.29.54,27.57-2.41s-6.55-7.16-19.8-11.63h0c-1.83-.62-3.77-1.24-5.8-1.86l0,.34C1295.62,277.08,1295.66,278.07,1295.66,279.07Z" transform="translate(-103.48 -67.22)"/><path class="cls-29" d="M1220.3,263.71c.31-.74.65-1.47,1-2.19v0l-3.27-.24a105.77,105.77,0,0,0-17.33,0c-4.08.45-6.62,1.33-7.2,2.68-1.25,2.85,6.59,7.18,19.91,11.67,1.23.42,2.5.83,3.81,1.25a39.56,39.56,0,0,1,.52-4.55A38.7,38.7,0,0,1,1220.3,263.71Z" transform="translate(-103.48 -67.22)"/><path class="cls-30" d="M1289,295.32c-11.41-1.21-24.13-3.15-37.37-5.78-7.54-1.51-14.76-3.13-21.52-4.83-4.52-1.14-8.83-2.32-12.91-3.51a37.74,37.74,0,0,0,.66,5.45,38.4,38.4,0,0,0,1,3.87h0a39.07,39.07,0,0,0,6.3,12.3,38.13,38.13,0,0,0,3.13,3.59c.61.63,1.24,1.23,1.89,1.82.39.35.79.69,1.2,1s.89.72,1.34,1.07c.91.69,1.86,1.34,2.83,2,.34.23.69.44,1,.64l.72.4c.3.17.6.34.91.5s.9.46,1.36.68.85.39,1.28.57l1.15.5a39.18,39.18,0,0,0,5.48,1.72,35,35,0,0,0,3.86.69c.67.09,1.34.16,2,.21l.64.05,1.19.05,1.06,0h.16c1.11,0,2.2-.05,3.29-.14l1.08-.1q.89-.1,1.77-.24c.51-.08,1-.17,1.52-.27s1.1-.23,1.64-.36,1-.26,1.54-.41l1.52-.47,1.49-.53c1-.37,2-.79,2.9-1.23.47-.23.94-.46,1.4-.7s.91-.49,1.36-.74h0a39.24,39.24,0,0,0,8.55-6.66,38.37,38.37,0,0,0,4-4.81c.06-.08.12-.15.17-.23a39,39,0,0,0,3.31-5.8l-2.92-.29Z" transform="translate(-103.48 -67.22)"/><path class="cls-30" d="M1294.68,270.33c-9.43-2.67-20-5.21-31.36-7.47-9.5-1.89-18.74-3.42-27.41-4.58-4.09-.56-8.05-1-11.85-1.4.31-.47.64-.92,1-1.37l.32-.42a39.3,39.3,0,0,1,9.27-8.65,38.43,38.43,0,0,1,10.93-5.08,37.8,37.8,0,0,1,3.71-.88h0a39,39,0,0,1,7.14-.65c1.22,0,2.43.06,3.62.17a39.2,39.2,0,0,1,26.89,14.38c.68.84,1.32,1.7,1.93,2.59A39,39,0,0,1,1294.68,270.33Z" transform="translate(-103.48 -67.22)"/><path class="cls-30" d="M1293.61,291.56a1.17,1.17,0,0,0,0,.11h0a364,364,0,0,1-40.25-5.86l-3.1-.62c-12.47-2.58-23.76-5.49-32.94-8.38a39.56,39.56,0,0,1,.52-4.55,38.7,38.7,0,0,1,2.54-8.55c.31-.74.65-1.47,1-2.22,1.85.15,3.76.33,5.75.54,10.15,1.06,21.91,2.85,34.28,5.31,12.52,2.48,24,5.33,33.44,8.19l.73.23,0,.34c.07,1,.11,2,.11,3,0,.31,0,.61,0,.91,0,1.06-.08,2.11-.19,3.14a39.19,39.19,0,0,1-1.5,7.45c-.24.8-.9,1.37-1,2.2,0,.16,0,.32,0,.48a2.66,2.66,0,0,1-.31,1.15,4.74,4.74,0,0,0-.62,1.23l-2.9-.3h0c-11.41-1.21-24.13-3.15-37.37-5.78-7.54-1.51-14.76-3.13-21.52-4.83-4.52-1.14-8.83-2.32-12.91-3.51,0-.27,0-.53,0-.8,0-.44,0-.89,0-1.33,0-.76,0-1.52.07-2.26,9.18,2.89,20.47,5.8,33,8.38l3.09.62a364,364,0,0,0,40.25,5.86h0a37.33,37.33,0,0,1-1.47,3.72Z" transform="translate(-103.48 -67.22)"/><path class="cls-31" d="M1217.17,279.07c0-.76,0-1.52.07-2.26-1.31-.42-2.58-.83-3.81-1.25-13.32-4.49-21.16-8.82-19.91-11.67.58-1.35,3.12-2.23,7.2-2.68a105.77,105.77,0,0,1,17.33,0l3.27.24a41.2,41.2,0,0,1,2.73-4.62l-1.82-.18c-8.18-.78-15.59-1.17-21.89-1.15-12.52,0-20.73,1.64-22.15,4.89-2.21,5,12.5,12.73,36,19.87l3,.9c0-.27,0-.53,0-.8C1217.18,280,1217.17,279.51,1217.17,279.07Z" transform="translate(-103.48 -67.22)"/><path class="cls-32" d="M1301.44,272.3c-2.17-.66-4.44-1.32-6.76-2a39.39,39.39,0,0,1,.77,4.64c0,.26,0,.53.07.8,2,.62,4,1.24,5.8,1.86h0c13.25,4.47,21,8.79,19.8,11.63s-12,3.68-27.57,2.41a38.65,38.65,0,0,1-1.57,3.95c24.75,2.43,42.62,1.29,44.78-3.66S1324.56,279.38,1301.44,272.3Z" transform="translate(-103.48 -67.22)"/><path class="cls-30" d="M1293.56,291.67h0a364,364,0,0,1-40.25-5.86l-3.09-.62h0c-12.47-2.58-23.76-5.49-32.94-8.38,0,.74-.07,1.5-.07,2.26,0,.44,0,.89,0,1.33,0,.27,0,.53,0,.8,4.08,1.19,8.39,2.37,12.91,3.51,6.76,1.7,14,3.32,21.52,4.83,13.24,2.63,26,4.57,37.37,5.78h0l2.92.29a38.65,38.65,0,0,0,1.57-3.95Z" transform="translate(-103.48 -67.22)"/><path class="cls-30" d="M1227.07,262c10.15,1.06,21.91,2.85,34.28,5.31,12.52,2.48,24,5.33,33.43,8.19h0l.73.23c0-.27,0-.54-.07-.8a39.39,39.39,0,0,0-.77-4.64c-9.44-2.66-20-5.21-31.37-7.47-9.5-1.88-18.73-3.41-27.4-4.57-4.1-.56-8.05-1-11.86-1.41a41.2,41.2,0,0,0-2.73,4.62C1223.17,261.64,1225.08,261.82,1227.07,262Z" transform="translate(-103.48 -67.22)"/><path class="cls-33" d="M1227.07,262c10.15,1.06,21.91,2.85,34.28,5.31,12.52,2.48,24,5.33,33.43,8.19h0l.73.23c0-.27,0-.54-.07-.8a39.39,39.39,0,0,0-.77-4.64c-9.44-2.66-20-5.21-31.37-7.47-9.5-1.88-18.73-3.41-27.4-4.57-4.1-.56-8.05-1-11.86-1.41a41.2,41.2,0,0,0-2.73,4.62C1223.17,261.64,1225.08,261.82,1227.07,262Z" transform="translate(-103.48 -67.22)"/><path class="cls-34" d="M1286.93,254.38a14,14,0,0,1-6.57-3.46c-16.31-13.83-16.53,9-25.41,3.17s-4.7,6.4-14.88-3.44a28.63,28.63,0,0,0-5.44-4.21,38.43,38.43,0,0,1,10.93-5.08,37.8,37.8,0,0,1,3.71-.88h0a39,39,0,0,1,7.14-.65c1.22,0,2.43.06,3.62.17A39.2,39.2,0,0,1,1286.93,254.38Z" transform="translate(-103.48 -67.22)"/><path class="cls-35" d="M1288.72,301a38.66,38.66,0,0,0,6.94-21.44c-3.37.77-8.08.9-14.55-2-12.93-5.75-4.8,4.34-15.16,1.87s-2.72,19.09-22.78,11.68c-13-4.79-15,6.37-14.87,14.87a39.25,39.25,0,0,0,60.42-5Z" transform="translate(-103.48 -67.22)"/></g></svg>